<svg width="16" height="17" viewBox="0 0 16 17" fill="none" xmlns="http://www.w3.org/2000/svg">
<mask id="path-1-inside-1_293_1607" fill="white">
<path d="M13.3334 6.27238L8.00004 9.60571L2.66671 6.27238V4.93905L8.00004 8.27238L13.3334 4.93905M13.3334 3.60571H2.66671C1.92671 3.60571 1.33337 4.19905 1.33337 4.93905V12.939C1.33337 13.2927 1.47385 13.6318 1.7239 13.8819C1.97395 14.1319 2.31309 14.2724 2.66671 14.2724H13.3334C13.687 14.2724 14.0261 14.1319 14.2762 13.8819C14.5262 13.6318 14.6667 13.2927 14.6667 12.939V4.93905C14.6667 4.58542 14.5262 4.24629 14.2762 3.99624C14.0261 3.74619 13.687 3.60571 13.3334 3.60571Z"/>
</mask>
<path d="M13.3334 6.27238L8.00004 9.60571L2.66671 6.27238V4.93905L8.00004 8.27238L13.3334 4.93905M13.3334 3.60571H2.66671C1.92671 3.60571 1.33337 4.19905 1.33337 4.93905V12.939C1.33337 13.2927 1.47385 13.6318 1.7239 13.8819C1.97395 14.1319 2.31309 14.2724 2.66671 14.2724H13.3334C13.687 14.2724 14.0261 14.1319 14.2762 13.8819C14.5262 13.6318 14.6667 13.2927 14.6667 12.939V4.93905C14.6667 4.58542 14.5262 4.24629 14.2762 3.99624C14.0261 3.74619 13.687 3.60571 13.3334 3.60571Z" fill="#8F8F8F"/>
<path d="M8.00004 9.60571L7.47004 10.4537L8.00004 10.785L8.53004 10.4537L8.00004 9.60571ZM2.66671 6.27238H1.66671V6.82663L2.13671 7.12038L2.66671 6.27238ZM2.66671 4.93905L3.19671 4.09105L1.66671 3.1348V4.93905H2.66671ZM8.00004 8.27238L7.47004 9.12038L8.00004 9.45163L8.53004 9.12038L8.00004 8.27238ZM13.3334 3.60571V2.60571V3.60571ZM1.33337 12.939H0.333374H1.33337ZM13.3334 6.27238L12.8034 5.42438L7.47004 8.75771L8.00004 9.60571L8.53004 10.4537L13.8634 7.12038L13.3334 6.27238ZM8.00004 9.60571L8.53004 8.75771L3.19671 5.42438L2.66671 6.27238L2.13671 7.12038L7.47004 10.4537L8.00004 9.60571ZM2.66671 6.27238H3.66671V4.93905H2.66671H1.66671V6.27238H2.66671ZM2.66671 4.93905L2.13671 5.78704L7.47004 9.12038L8.00004 8.27238L8.53004 7.42438L3.19671 4.09105L2.66671 4.93905ZM8.00004 8.27238L8.53004 9.12038L13.8634 5.78704L13.3334 4.93905L12.8034 4.09105L7.47004 7.42438L8.00004 8.27238ZM13.3334 3.60571V2.60571H2.66671V3.60571V4.60571H13.3334V3.60571ZM2.66671 3.60571V2.60571C1.37442 2.60571 0.333374 3.64676 0.333374 4.93905H1.33337H2.33337C2.33337 4.75133 2.47899 4.60571 2.66671 4.60571V3.60571ZM1.33337 4.93905H0.333374V12.939H1.33337H2.33337V4.93905H1.33337ZM1.33337 12.939H0.333374C0.333374 13.5579 0.579207 14.1514 1.01679 14.589L1.7239 13.8819L2.43101 13.1747C2.36849 13.1122 2.33337 13.0275 2.33337 12.939H1.33337ZM1.7239 13.8819L1.01679 14.589C1.45438 15.0265 2.04787 15.2724 2.66671 15.2724V14.2724V13.2724C2.5783 13.2724 2.49352 13.2373 2.43101 13.1747L1.7239 13.8819ZM2.66671 14.2724V15.2724H13.3334V14.2724V13.2724H2.66671V14.2724ZM13.3334 14.2724V15.2724C13.9522 15.2724 14.5457 15.0265 14.9833 14.589L14.2762 13.8819L13.5691 13.1747C13.5066 13.2373 13.4218 13.2724 13.3334 13.2724V14.2724ZM14.2762 13.8819L14.9833 14.589C15.4209 14.1514 15.6667 13.5579 15.6667 12.939H14.6667H13.6667C13.6667 13.0275 13.6316 13.1122 13.5691 13.1747L14.2762 13.8819ZM14.6667 12.939H15.6667V4.93905H14.6667H13.6667V12.939H14.6667ZM14.6667 4.93905H15.6667C15.6667 4.32021 15.4209 3.72671 14.9833 3.28913L14.2762 3.99624L13.5691 4.70334C13.6316 4.76586 13.6667 4.85064 13.6667 4.93905H14.6667ZM14.2762 3.99624L14.9833 3.28913C14.5457 2.85155 13.9522 2.60571 13.3334 2.60571V3.60571V4.60571C13.4218 4.60571 13.5066 4.64083 13.5691 4.70334L14.2762 3.99624Z" fill="#8F8F8F" mask="url(#path-1-inside-1_293_1607)"/>
</svg>
