<svg width="16" height="17" viewBox="0 0 16 17" fill="none" xmlns="http://www.w3.org/2000/svg">
<path d="M8.00037 2.77237C9.10532 2.77246 10.1653 3.21175 10.9467 3.99307C11.7279 4.77444 12.1664 5.83445 12.1664 6.93936C12.1663 7.71312 11.9054 8.61756 11.4808 9.56534C11.0591 10.5067 10.4932 11.455 9.91931 12.3056C9.34643 13.1547 8.77223 13.8975 8.34119 14.4286C8.21437 14.5849 8.09739 14.7205 7.99939 14.8368C7.90155 14.7206 7.78606 14.5845 7.65955 14.4286C7.22855 13.8976 6.65428 13.1546 6.08142 12.3056C5.50753 11.455 4.94065 10.5067 4.51892 9.56534C4.09431 8.61756 3.83345 7.71312 3.83337 6.93936C3.83337 5.83429 4.27268 4.77447 5.05408 3.99307C5.83548 3.21167 6.8953 2.77237 8.00037 2.77237ZM8.00037 4.77237C7.42573 4.77237 6.87447 5.00081 6.46814 5.40714C6.06181 5.81346 5.83337 6.36473 5.83337 6.93936C5.83346 7.51388 6.06189 8.06534 6.46814 8.47159C6.87444 8.87771 7.42588 9.10538 8.00037 9.10538C8.28479 9.10533 8.5667 9.04918 8.82947 8.94034C9.09218 8.83146 9.3315 8.67268 9.53259 8.47159C9.73369 8.2705 9.89246 8.03118 10.0013 7.76846C10.1102 7.50569 10.1663 7.22378 10.1664 6.93936C10.1664 6.36488 9.93872 5.81343 9.53259 5.40714C9.12634 5.00088 8.57488 4.77246 8.00037 4.77237Z" fill="#8F8F8F" stroke="#8F8F8F"/>
</svg>
