<svg width="16" height="17" viewBox="0 0 16 17" fill="none" xmlns="http://www.w3.org/2000/svg">
<mask id="path-1-inside-1_217_354" fill="white">
<path fill-rule="evenodd" clip-rule="evenodd" d="M2.11459 4.38702C1.33325 5.16768 1.33325 6.42502 1.33325 8.93902C1.33325 11.453 1.33325 12.7103 2.11459 13.491C2.89592 14.2717 4.15259 14.2723 6.66659 14.2723H9.33325C11.8473 14.2723 13.1046 14.2723 13.8853 13.491C14.6659 12.7097 14.6666 11.453 14.6666 8.93902C14.6666 6.42502 14.6666 5.16768 13.8853 4.38702C13.1039 3.60635 11.8473 3.60568 9.33325 3.60568H6.66659C4.15259 3.60568 2.89525 3.60568 2.11459 4.38702ZM8.49992 7.60568C8.49992 7.47307 8.44724 7.3459 8.35347 7.25213C8.2597 7.15836 8.13253 7.10568 7.99992 7.10568C7.86731 7.10568 7.74013 7.15836 7.64637 7.25213C7.5526 7.3459 7.49992 7.47307 7.49992 7.60568V8.07302L7.09525 7.83968C6.98085 7.77876 6.84726 7.76465 6.72265 7.80031C6.59805 7.83597 6.49216 7.91863 6.42731 8.03086C6.36247 8.14308 6.34374 8.2761 6.37507 8.40187C6.4064 8.52764 6.48534 8.63632 6.59525 8.70502L6.99992 8.93835L6.59525 9.17235C6.48032 9.23865 6.39644 9.3479 6.36206 9.47605C6.32768 9.6042 6.34561 9.74076 6.41192 9.85568C6.47822 9.97061 6.58747 10.0545 6.71562 10.0889C6.84377 10.1233 6.98032 10.1053 7.09525 10.039L7.49992 9.80502V10.2723C7.49992 10.405 7.5526 10.5321 7.64637 10.6259C7.74013 10.7197 7.86731 10.7723 7.99992 10.7723C8.13253 10.7723 8.2597 10.7197 8.35347 10.6259C8.44724 10.5321 8.49992 10.405 8.49992 10.2723V9.80568L8.90459 10.039C9.01951 10.1053 9.15607 10.1233 9.28422 10.0889C9.41237 10.0545 9.52162 9.97061 9.58792 9.85568C9.65422 9.74076 9.67216 9.6042 9.63778 9.47605C9.60339 9.3479 9.51951 9.23865 9.40459 9.17235L8.99992 8.93902L9.40459 8.70568C9.51951 8.63938 9.60339 8.53013 9.63778 8.40198C9.67216 8.27384 9.65422 8.13728 9.58792 8.02235C9.52162 7.90742 9.41237 7.82354 9.28422 7.78916C9.15607 7.75478 9.01951 7.77271 8.90459 7.83902L8.49992 8.07235V7.60568ZM4.48859 7.10568C4.62119 7.10568 4.74837 7.15836 4.84214 7.25213C4.93591 7.3459 4.98859 7.47307 4.98859 7.60568V8.07235L5.39259 7.83902C5.50751 7.77271 5.64407 7.75478 5.77222 7.78916C5.90037 7.82354 6.00961 7.90742 6.07592 8.02235C6.14222 8.13728 6.16016 8.27384 6.12578 8.40198C6.09139 8.53013 6.00751 8.63938 5.89259 8.70568L5.48792 8.93902L5.89259 9.17235C5.94949 9.20518 5.99937 9.2489 6.03938 9.30101C6.0794 9.35311 6.10875 9.41259 6.12578 9.47605C6.1428 9.5395 6.14716 9.60568 6.1386 9.67082C6.13005 9.73596 6.10875 9.79878 6.07592 9.85568C6.04309 9.91259 5.99937 9.96247 5.94726 10.0025C5.89515 10.0425 5.83567 10.0718 5.77222 10.0889C5.70877 10.1059 5.64258 10.1103 5.57745 10.1017C5.51231 10.0931 5.44949 10.0718 5.39259 10.039L4.98859 9.80568V10.2723C4.98859 10.405 4.93591 10.5321 4.84214 10.6259C4.74837 10.7197 4.62119 10.7723 4.48859 10.7723C4.35598 10.7723 4.2288 10.7197 4.13503 10.6259C4.04126 10.5321 3.98859 10.405 3.98859 10.2723V9.80502L3.58325 10.0383C3.46885 10.0993 3.33526 10.1134 3.21065 10.0777C3.08605 10.0421 2.98016 9.9594 2.91531 9.84717C2.85047 9.73495 2.83174 9.60193 2.86307 9.47616C2.8944 9.35039 2.97334 9.24171 3.08325 9.17302L3.48792 8.93902L3.08325 8.70568C3.02635 8.67285 2.97646 8.62913 2.93645 8.57703C2.89644 8.52492 2.86709 8.46544 2.85006 8.40198C2.83304 8.33853 2.82868 8.27235 2.83723 8.20721C2.84579 8.14207 2.86709 8.07926 2.89992 8.02235C2.93275 7.96544 2.97647 7.91556 3.02857 7.87555C3.08068 7.83554 3.14016 7.80618 3.20362 7.78916C3.26707 7.77213 3.33325 7.76778 3.39839 7.77633C3.46353 7.78488 3.52635 7.80619 3.58325 7.83902L3.98859 8.07302V7.60568C3.98859 7.47307 4.04126 7.3459 4.13503 7.25213C4.2288 7.15836 4.35598 7.10568 4.48859 7.10568ZM12.0119 7.60568C12.0119 7.47307 11.9592 7.3459 11.8655 7.25213C11.7717 7.15836 11.6445 7.10568 11.5119 7.10568C11.3793 7.10568 11.2521 7.15836 11.1584 7.25213C11.0646 7.3459 11.0119 7.47307 11.0119 7.60568V8.07302L10.6073 7.83968C10.4929 7.77876 10.3593 7.76465 10.2347 7.80031C10.11 7.83597 10.0042 7.91863 9.93931 8.03086C9.87447 8.14308 9.85574 8.2761 9.88707 8.40187C9.9184 8.52764 9.99734 8.63632 10.1073 8.70502L10.5119 8.93835L10.1066 9.17235C9.99166 9.23865 9.90778 9.3479 9.8734 9.47605C9.83901 9.6042 9.85695 9.74076 9.92325 9.85568C9.98956 9.97061 10.0988 10.0545 10.2269 10.0889C10.3551 10.1233 10.4917 10.1053 10.6066 10.039L11.0119 9.80502V10.2723C11.0119 10.405 11.0646 10.5321 11.1584 10.6259C11.2521 10.7197 11.3793 10.7723 11.5119 10.7723C11.6445 10.7723 11.7717 10.7197 11.8655 10.6259C11.9592 10.5321 12.0119 10.405 12.0119 10.2723V9.80568L12.4166 10.039C12.5315 10.1053 12.6681 10.1233 12.7962 10.0889C12.9244 10.0545 13.0336 9.97061 13.0999 9.85568C13.1662 9.74076 13.1842 9.6042 13.1498 9.47605C13.1154 9.3479 13.0315 9.23865 12.9166 9.17235L12.5119 8.93902L12.9166 8.70568C13.0315 8.63938 13.1154 8.53013 13.1498 8.40198C13.1842 8.27384 13.1662 8.13728 13.0999 8.02235C13.0336 7.90742 12.9244 7.82354 12.7962 7.78916C12.6681 7.75478 12.5315 7.77271 12.4166 7.83902L12.0119 8.07235V7.60568Z"/>
</mask>
<path fill-rule="evenodd" clip-rule="evenodd" d="M2.11459 4.38702C1.33325 5.16768 1.33325 6.42502 1.33325 8.93902C1.33325 11.453 1.33325 12.7103 2.11459 13.491C2.89592 14.2717 4.15259 14.2723 6.66659 14.2723H9.33325C11.8473 14.2723 13.1046 14.2723 13.8853 13.491C14.6659 12.7097 14.6666 11.453 14.6666 8.93902C14.6666 6.42502 14.6666 5.16768 13.8853 4.38702C13.1039 3.60635 11.8473 3.60568 9.33325 3.60568H6.66659C4.15259 3.60568 2.89525 3.60568 2.11459 4.38702ZM8.49992 7.60568C8.49992 7.47307 8.44724 7.3459 8.35347 7.25213C8.2597 7.15836 8.13253 7.10568 7.99992 7.10568C7.86731 7.10568 7.74013 7.15836 7.64637 7.25213C7.5526 7.3459 7.49992 7.47307 7.49992 7.60568V8.07302L7.09525 7.83968C6.98085 7.77876 6.84726 7.76465 6.72265 7.80031C6.59805 7.83597 6.49216 7.91863 6.42731 8.03086C6.36247 8.14308 6.34374 8.2761 6.37507 8.40187C6.4064 8.52764 6.48534 8.63632 6.59525 8.70502L6.99992 8.93835L6.59525 9.17235C6.48032 9.23865 6.39644 9.3479 6.36206 9.47605C6.32768 9.6042 6.34561 9.74076 6.41192 9.85568C6.47822 9.97061 6.58747 10.0545 6.71562 10.0889C6.84377 10.1233 6.98032 10.1053 7.09525 10.039L7.49992 9.80502V10.2723C7.49992 10.405 7.5526 10.5321 7.64637 10.6259C7.74013 10.7197 7.86731 10.7723 7.99992 10.7723C8.13253 10.7723 8.2597 10.7197 8.35347 10.6259C8.44724 10.5321 8.49992 10.405 8.49992 10.2723V9.80568L8.90459 10.039C9.01951 10.1053 9.15607 10.1233 9.28422 10.0889C9.41237 10.0545 9.52162 9.97061 9.58792 9.85568C9.65422 9.74076 9.67216 9.6042 9.63778 9.47605C9.60339 9.3479 9.51951 9.23865 9.40459 9.17235L8.99992 8.93902L9.40459 8.70568C9.51951 8.63938 9.60339 8.53013 9.63778 8.40198C9.67216 8.27384 9.65422 8.13728 9.58792 8.02235C9.52162 7.90742 9.41237 7.82354 9.28422 7.78916C9.15607 7.75478 9.01951 7.77271 8.90459 7.83902L8.49992 8.07235V7.60568ZM4.48859 7.10568C4.62119 7.10568 4.74837 7.15836 4.84214 7.25213C4.93591 7.3459 4.98859 7.47307 4.98859 7.60568V8.07235L5.39259 7.83902C5.50751 7.77271 5.64407 7.75478 5.77222 7.78916C5.90037 7.82354 6.00961 7.90742 6.07592 8.02235C6.14222 8.13728 6.16016 8.27384 6.12578 8.40198C6.09139 8.53013 6.00751 8.63938 5.89259 8.70568L5.48792 8.93902L5.89259 9.17235C5.94949 9.20518 5.99937 9.2489 6.03938 9.30101C6.0794 9.35311 6.10875 9.41259 6.12578 9.47605C6.1428 9.5395 6.14716 9.60568 6.1386 9.67082C6.13005 9.73596 6.10875 9.79878 6.07592 9.85568C6.04309 9.91259 5.99937 9.96247 5.94726 10.0025C5.89515 10.0425 5.83567 10.0718 5.77222 10.0889C5.70877 10.1059 5.64258 10.1103 5.57745 10.1017C5.51231 10.0931 5.44949 10.0718 5.39259 10.039L4.98859 9.80568V10.2723C4.98859 10.405 4.93591 10.5321 4.84214 10.6259C4.74837 10.7197 4.62119 10.7723 4.48859 10.7723C4.35598 10.7723 4.2288 10.7197 4.13503 10.6259C4.04126 10.5321 3.98859 10.405 3.98859 10.2723V9.80502L3.58325 10.0383C3.46885 10.0993 3.33526 10.1134 3.21065 10.0777C3.08605 10.0421 2.98016 9.9594 2.91531 9.84717C2.85047 9.73495 2.83174 9.60193 2.86307 9.47616C2.8944 9.35039 2.97334 9.24171 3.08325 9.17302L3.48792 8.93902L3.08325 8.70568C3.02635 8.67285 2.97646 8.62913 2.93645 8.57703C2.89644 8.52492 2.86709 8.46544 2.85006 8.40198C2.83304 8.33853 2.82868 8.27235 2.83723 8.20721C2.84579 8.14207 2.86709 8.07926 2.89992 8.02235C2.93275 7.96544 2.97647 7.91556 3.02857 7.87555C3.08068 7.83554 3.14016 7.80618 3.20362 7.78916C3.26707 7.77213 3.33325 7.76778 3.39839 7.77633C3.46353 7.78488 3.52635 7.80619 3.58325 7.83902L3.98859 8.07302V7.60568C3.98859 7.47307 4.04126 7.3459 4.13503 7.25213C4.2288 7.15836 4.35598 7.10568 4.48859 7.10568ZM12.0119 7.60568C12.0119 7.47307 11.9592 7.3459 11.8655 7.25213C11.7717 7.15836 11.6445 7.10568 11.5119 7.10568C11.3793 7.10568 11.2521 7.15836 11.1584 7.25213C11.0646 7.3459 11.0119 7.47307 11.0119 7.60568V8.07302L10.6073 7.83968C10.4929 7.77876 10.3593 7.76465 10.2347 7.80031C10.11 7.83597 10.0042 7.91863 9.93931 8.03086C9.87447 8.14308 9.85574 8.2761 9.88707 8.40187C9.9184 8.52764 9.99734 8.63632 10.1073 8.70502L10.5119 8.93835L10.1066 9.17235C9.99166 9.23865 9.90778 9.3479 9.8734 9.47605C9.83901 9.6042 9.85695 9.74076 9.92325 9.85568C9.98956 9.97061 10.0988 10.0545 10.2269 10.0889C10.3551 10.1233 10.4917 10.1053 10.6066 10.039L11.0119 9.80502V10.2723C11.0119 10.405 11.0646 10.5321 11.1584 10.6259C11.2521 10.7197 11.3793 10.7723 11.5119 10.7723C11.6445 10.7723 11.7717 10.7197 11.8655 10.6259C11.9592 10.5321 12.0119 10.405 12.0119 10.2723V9.80568L12.4166 10.039C12.5315 10.1053 12.6681 10.1233 12.7962 10.0889C12.9244 10.0545 13.0336 9.97061 13.0999 9.85568C13.1662 9.74076 13.1842 9.6042 13.1498 9.47605C13.1154 9.3479 13.0315 9.23865 12.9166 9.17235L12.5119 8.93902L12.9166 8.70568C13.0315 8.63938 13.1154 8.53013 13.1498 8.40198C13.1842 8.27384 13.1662 8.13728 13.0999 8.02235C13.0336 7.90742 12.9244 7.82354 12.7962 7.78916C12.6681 7.75478 12.5315 7.77271 12.4166 7.83902L12.0119 8.07235V7.60568Z" fill="#8F8F8F" stroke="#8F8F8F" stroke-width="2" mask="url(#path-1-inside-1_217_354)"/>
</svg>
