<svg width="16" height="17" viewBox="0 0 16 17" fill="none" xmlns="http://www.w3.org/2000/svg">
<path d="M2.66699 3.43903H5C5.09052 3.43903 5.16699 3.51549 5.16699 3.60602C5.16703 4.48984 5.30782 5.33983 5.56934 6.13434V6.13531C5.5893 6.19884 5.57555 6.26289 5.52637 6.31207L3.80273 8.03571L3.96777 8.35895C4.97615 10.3407 6.59995 11.9562 8.5791 12.9703L8.90234 13.1363L9.16016 12.8795L10.627 11.4127C10.6723 11.3673 10.7389 11.3539 10.791 11.3716L10.7969 11.3736C11.5938 11.6368 12.4531 11.7788 13.333 11.7789C13.4235 11.7789 13.5 11.8553 13.5 11.9459V14.272C13.5 14.3626 13.4235 14.439 13.333 14.439C7.34941 14.4388 2.50018 9.58962 2.5 3.60602C2.5 3.51549 2.57647 3.43903 2.66699 3.43903Z" fill="#8F8F8F" stroke="#D0D0D0"/>
</svg>
