<svg width="20" height="18" viewBox="0 0 20 18" fill="none" xmlns="http://www.w3.org/2000/svg">
<path d="M4.03682 17.7123C3.27379 17.7123 2.54119 17.3965 1.95731 16.812C0.662717 15.5132 0.662717 13.4008 1.95701 12.1028L12.0516 1.38323C13.6266 -0.194297 16.0392 -0.0525471 17.7998 1.71033C18.5887 2.50064 19.0314 3.63999 19.0148 4.83755C18.9982 6.02247 18.5353 7.15645 17.7441 7.94902L10.1149 16.071C9.90259 16.2985 9.54653 16.3089 9.31986 16.0954C9.09373 15.8817 9.08276 15.5251 9.29595 15.2984L16.9367 7.16405C17.5343 6.56527 17.8772 5.71587 17.8898 4.82178C17.9025 3.92714 17.5793 3.08365 17.0044 2.50737C15.9244 1.42512 14.166 0.858404 12.8588 2.16875L2.76445 12.8883C1.89651 13.7585 1.89679 15.156 2.7532 16.0147C3.1548 16.4166 3.63152 16.6123 4.13918 16.5817C4.64149 16.551 5.15787 16.2934 5.59324 15.8569L13.6252 7.308C13.9163 7.01634 14.5013 6.3014 13.9059 5.70459C13.5686 5.36681 13.3318 5.38762 13.2539 5.39409C13.0315 5.41378 12.7716 5.56762 12.5019 5.83818L6.4564 12.2678C6.24293 12.4948 5.88658 12.5058 5.66129 12.2917C5.43488 12.0786 5.42447 11.7214 5.63738 11.4952L11.6939 5.0535C12.17 4.57509 12.6569 4.31578 13.1524 4.27134C13.5391 4.23701 14.1143 4.31943 14.701 4.90781C15.5717 5.78023 15.4634 7.05993 14.4324 8.09325L6.40045 16.6415C5.7592 17.285 4.9849 17.6588 4.20808 17.7066C4.15099 17.7106 4.0939 17.7122 4.0368 17.7122L4.03682 17.7123Z" fill="#A2A2A2"/>
</svg>
