<svg width="24" height="24" viewBox="0 0 24 24" fill="none" xmlns="http://www.w3.org/2000/svg">
<path d="M11.9991 14C11.1658 14 10.4574 13.7083 9.8741 13.125C9.29077 12.5417 8.9991 11.8333 8.9991 11V5C8.9991 4.16667 9.29077 3.45833 9.8741 2.875C10.4574 2.29167 11.1658 2 11.9991 2C12.8324 2 13.5408 2.29167 14.1241 2.875C14.7074 3.45833 14.9991 4.16667 14.9991 5V11C14.9991 11.8333 14.7074 12.5417 14.1241 13.125C13.5408 13.7083 12.8324 14 11.9991 14ZM10.9991 20V17.925C9.46577 17.7083 8.15343 17.0583 7.0621 15.975C5.97077 14.8917 5.3081 13.575 5.0741 12.025C5.04077 11.7417 5.11577 11.5 5.2991 11.3C5.48243 11.1 5.71577 11 5.9991 11C6.28243 11 6.5201 11.096 6.7121 11.288C6.9041 11.48 7.0331 11.7173 7.0991 12C7.33243 13.1667 7.91177 14.125 8.8371 14.875C9.76243 15.625 10.8164 16 11.9991 16C13.1991 16 14.2574 15.621 15.1741 14.863C16.0908 14.105 16.6658 13.1507 16.8991 12C16.9658 11.7167 17.0951 11.4793 17.2871 11.288C17.4791 11.0967 17.7164 11.0007 17.9991 11C18.2818 10.9993 18.5151 11.0993 18.6991 11.3C18.8831 11.5007 18.9581 11.7423 18.9241 12.025C18.6908 13.5417 18.0324 14.85 16.9491 15.95C15.8658 17.05 14.5491 17.7083 12.9991 17.925V20C12.9991 20.2833 12.9031 20.521 12.7111 20.713C12.5191 20.905 12.2818 21.0007 11.9991 21C11.7164 20.9993 11.4791 20.9033 11.2871 20.712C11.0951 20.5207 10.9991 20.2833 10.9991 20Z" fill="white"/>
</svg>
