<svg width="20" height="20" viewBox="0 0 20 20" fill="none" xmlns="http://www.w3.org/2000/svg">
<path d="M12.5504 8.19181C13.0202 8.03543 13.5281 8.03543 13.9979 8.19181C14.3046 8.29431 14.5579 8.47348 14.8037 8.68848C15.0387 8.89515 15.3054 9.17098 15.6246 9.50098C16.0057 9.89709 16.3873 10.2926 16.7696 10.6876C17.1429 11.0726 17.2929 11.4793 17.2912 12.0226C17.2862 13.4051 17.2571 14.3535 16.8604 15.131C16.4807 15.8756 15.8752 16.4809 15.1304 16.8601C14.0096 17.4318 12.5762 17.2918 11.3612 17.2918H8.63957C7.72957 17.2918 7.0079 17.2918 6.42707 17.2443C5.83207 17.196 5.32957 17.0943 4.8704 16.861C4.12552 16.4815 3.51991 15.8759 3.1404 15.131C2.89457 14.6485 2.79873 14.1235 2.74873 13.4843C2.6754 12.5176 3.4954 11.7351 4.12623 11.0993C4.38207 10.841 4.65207 10.6243 4.98707 10.501C5.49533 10.3151 6.05297 10.3151 6.56123 10.501C6.89623 10.6243 7.16623 10.841 7.42207 11.0993C7.6704 11.3493 7.94873 11.6826 8.2854 12.0868C8.31457 12.1226 8.3604 12.156 8.4029 12.1118L10.9237 9.50098C11.2437 9.17098 11.5096 8.89515 11.7446 8.68848C11.9904 8.47348 12.2446 8.29431 12.5504 8.19181ZM12.5696 9.62765C12.3779 9.79598 12.1471 10.0343 11.8054 10.3885L9.30207 12.9801C9.17363 13.1132 9.01859 13.2178 8.84705 13.287C8.67551 13.3561 8.49132 13.3884 8.30649 13.3816C8.12165 13.3749 7.94031 13.3292 7.77428 13.2477C7.60826 13.1662 7.46127 13.0506 7.3429 12.9085C6.98373 12.4785 6.73957 12.186 6.53457 11.9801C6.33457 11.7776 6.2179 11.7068 6.13207 11.6751C5.90095 11.5906 5.64735 11.5906 5.41623 11.6751C5.3304 11.7068 5.21457 11.7776 5.01373 11.9801C4.7054 12.2901 4.4329 12.636 4.15373 12.9718C4.01957 13.1326 3.9829 13.2176 3.9979 13.4218C4.03957 13.9685 4.1204 14.301 4.25373 14.5635C4.51337 15.073 4.92759 15.4872 5.43707 15.7468C5.69123 15.876 6.01207 15.956 6.52873 15.9985C7.05373 16.041 7.72373 16.0418 8.66707 16.0418H11.3337C12.3271 16.0418 13.6379 16.2185 14.5637 15.7468C15.0732 15.4872 15.4874 15.073 15.7471 14.5635C15.9821 14.101 16.0354 13.4776 16.0412 12.0185C16.0421 11.7901 16.0071 11.6968 15.8429 11.5276L14.7429 10.3885C14.4012 10.0343 14.1712 9.79681 13.9787 9.62765C13.5496 9.25098 13.0171 9.23431 12.5696 9.62765Z" fill="#979797"/>
<path d="M8.63982 2.70831H11.3615C12.2715 2.70831 12.9932 2.70831 13.574 2.75581C14.169 2.80415 14.6715 2.90581 15.1315 3.13915C15.8762 3.51902 16.4815 4.12491 16.8607 4.86998C17.0948 5.32831 17.1965 5.83165 17.2448 6.42665C17.2923 7.00748 17.2923 7.72915 17.2923 8.63915V11.3608C17.2923 12.2708 17.2923 12.9925 17.2448 13.5733C17.1965 14.1683 17.0948 14.6708 16.8615 15.1308C16.4816 15.8755 15.8757 16.4808 15.1307 16.86C14.6723 17.0941 14.169 17.1958 13.574 17.2441C12.9932 17.2916 12.2715 17.2916 11.3615 17.2916H8.63982C7.72982 17.2916 7.00815 17.2916 6.42732 17.2441C5.83232 17.1958 5.32982 17.0941 4.87065 16.8608C4.12577 16.4813 3.52016 15.8757 3.14065 15.1308C2.90648 14.6708 2.80482 14.1683 2.75648 13.5733C2.70898 12.9925 2.70898 12.2708 2.70898 11.3608V8.63915C2.70898 7.72915 2.70898 7.00748 2.75648 6.42665C2.80482 5.83165 2.90648 5.32915 3.13982 4.86998C3.51955 4.12497 4.12546 3.51935 4.87065 3.13998C5.32898 2.90581 5.83232 2.80415 6.42732 2.75581C7.00815 2.70831 7.72982 2.70831 8.63982 2.70831ZM6.52898 4.00165C6.01232 4.04331 5.69148 4.12415 5.43732 4.25331C4.92784 4.51295 4.51362 4.92717 4.25398 5.43665C4.12482 5.69081 4.04482 6.01165 4.00232 6.52831C3.95982 7.05331 3.95898 7.72331 3.95898 8.66665V11.3333C3.95898 12.2775 3.95898 12.9475 4.00232 13.4716C4.04398 13.9883 4.12482 14.3091 4.25398 14.5633C4.51362 15.0728 4.92784 15.487 5.43732 15.7466C5.69148 15.8758 6.01232 15.9558 6.52898 15.9983C7.05398 16.0408 7.72398 16.0416 8.66732 16.0416H11.334C12.2782 16.0416 12.9482 16.0416 13.4723 15.9983C13.989 15.9566 14.3098 15.8758 14.564 15.7466C15.0735 15.487 15.4877 15.0728 15.7473 14.5633C15.8765 14.3091 15.9565 13.9883 15.999 13.4716C16.0415 12.9466 16.0423 12.2766 16.0423 11.3333V8.66665C16.0423 7.72331 16.0423 7.05248 15.999 6.52831C15.9573 6.01165 15.8765 5.69081 15.7473 5.43665C15.4877 4.92717 15.0735 4.51295 14.564 4.25331C14.3098 4.12415 13.989 4.04415 13.4723 4.00165C12.9473 3.95915 12.2773 3.95831 11.334 3.95831H8.66732C7.72398 3.95831 7.05315 3.95831 6.52898 4.00165Z" fill="#979797"/>
<path d="M8.33268 6.45831C8.05642 6.45831 7.79146 6.56806 7.59611 6.76341C7.40076 6.95876 7.29102 7.22371 7.29102 7.49998C7.29102 7.77625 7.40076 8.0412 7.59611 8.23655C7.79146 8.4319 8.05642 8.54165 8.33268 8.54165C8.60895 8.54165 8.8739 8.4319 9.06925 8.23655C9.2646 8.0412 9.37435 7.77625 9.37435 7.49998C9.37435 7.22371 9.2646 6.95876 9.06925 6.76341C8.8739 6.56806 8.60895 6.45831 8.33268 6.45831ZM6.04102 7.49998C6.04102 6.89219 6.28246 6.3093 6.71223 5.87953C7.142 5.44976 7.72489 5.20831 8.33268 5.20831C8.94047 5.20831 9.52336 5.44976 9.95314 5.87953C10.3829 6.3093 10.6243 6.89219 10.6243 7.49998C10.6243 8.10777 10.3829 8.69066 9.95314 9.12043C9.52336 9.5502 8.94047 9.79165 8.33268 9.79165C7.72489 9.79165 7.142 9.5502 6.71223 9.12043C6.28246 8.69066 6.04102 8.10777 6.04102 7.49998Z" fill="#979797"/>
</svg>
