<svg width="24" height="24" viewBox="0 0 24 24" fill="none" xmlns="http://www.w3.org/2000/svg">
<path d="M20.2692 8.485L20.9742 12.565C21.0156 12.8041 21.0042 13.0494 20.9409 13.2837C20.8776 13.518 20.7638 13.7356 20.6076 13.9213C20.4514 14.1071 20.2565 14.2564 20.0366 14.359C19.8166 14.4615 19.5769 14.5148 19.3342 14.515H14.1532C14.0323 14.515 13.9128 14.5413 13.8031 14.5921C13.6934 14.6429 13.596 14.7169 13.5178 14.8091C13.4396 14.9013 13.3824 15.0095 13.3502 15.126C13.3179 15.2426 13.3115 15.3647 13.3312 15.484L13.9942 19.529C14.1015 20.1861 14.0708 20.8584 13.9042 21.503C13.7652 22.036 13.3542 22.465 12.8122 22.639L12.6672 22.686C12.3392 22.791 11.9822 22.766 11.6732 22.618C11.5071 22.5395 11.3601 22.4256 11.2427 22.2843C11.1252 22.143 11.0401 21.9777 10.9932 21.8L10.5172 19.966C10.3659 19.3823 10.1457 18.8187 9.86123 18.287C9.44623 17.51 8.80423 16.887 8.13623 16.312L6.69723 15.072C6.49759 14.8995 6.34168 14.6821 6.24225 14.4377C6.14283 14.1934 6.10272 13.9289 6.12523 13.666L6.93723 4.273C6.97301 3.85759 7.16327 3.4707 7.47042 3.18873C7.77756 2.90676 8.17928 2.75021 8.59623 2.75H13.2442C16.7262 2.75 19.6972 5.176 20.2692 8.485Z" fill="#FF2C2C"/>
<path fill-rule="evenodd" clip-rule="evenodd" d="M2.96808 15.2652C3.16134 15.2737 3.35039 15.2071 3.49574 15.0795C3.64109 14.9518 3.7315 14.773 3.74808 14.5802L4.71808 3.34422C4.73451 3.1769 4.71666 3.00799 4.66562 2.8478C4.61458 2.68761 4.53142 2.5395 4.42122 2.41253C4.31102 2.28555 4.17609 2.18237 4.02468 2.1093C3.87327 2.03622 3.70855 1.99477 3.54058 1.98749C3.37261 1.98021 3.20492 2.00724 3.04775 2.06694C2.89058 2.12664 2.74723 2.21775 2.62646 2.33471C2.50568 2.45167 2.41002 2.59203 2.3453 2.7472C2.28059 2.90237 2.24819 3.06911 2.25008 3.23722V14.5162C2.2499 14.7097 2.32451 14.8958 2.45832 15.0356C2.59212 15.1753 2.77476 15.257 2.96808 15.2652Z" fill="#FF2C2C"/>
</svg>
