<svg width="20" height="20" viewBox="0 0 20 20" fill="none" xmlns="http://www.w3.org/2000/svg">
<path d="M6 3C5.20435 3 4.44129 3.31607 3.87868 3.87868C3.31607 4.44129 3 5.20435 3 6V14C3 14.7956 3.31607 15.5587 3.87868 16.1213C4.44129 16.6839 5.20435 17 6 17H11V13.917C10.6702 13.9724 10.3364 14.0002 10.002 14C8.915 14 8.088 13.728 7.527 13.447C7.30193 13.3373 7.08766 13.2067 6.887 13.057C6.81186 13.0001 6.73945 12.9397 6.67 12.876L6.655 12.862L6.65 12.857L6.648 12.855L6.646 12.854C6.55185 12.7605 6.49869 12.6334 6.49822 12.5008C6.49775 12.3681 6.55001 12.2407 6.6435 12.1465C6.73699 12.0523 6.86405 11.9992 6.99673 11.9987C7.12941 11.9983 7.25685 12.0505 7.351 12.144L7.354 12.146L7.376 12.166C7.39867 12.186 7.43567 12.216 7.487 12.256C7.591 12.334 7.753 12.443 7.974 12.553C8.413 12.773 9.087 13 10.002 13C10.434 13 10.812 12.949 11.145 12.865C11.3299 12.3209 11.6806 11.8485 12.1479 11.514C12.6151 11.1795 13.1754 10.9997 13.75 11H17V6C17 5.20435 16.6839 4.44129 16.1213 3.87868C15.5587 3.31607 14.7956 3 14 3H6ZM7.5 9C7.23478 9 6.98043 8.89464 6.79289 8.70711C6.60536 8.51957 6.5 8.26522 6.5 8C6.5 7.73478 6.60536 7.48043 6.79289 7.29289C6.98043 7.10536 7.23478 7 7.5 7C7.76522 7 8.01957 7.10536 8.20711 7.29289C8.39464 7.48043 8.5 7.73478 8.5 8C8.5 8.26522 8.39464 8.51957 8.20711 8.70711C8.01957 8.89464 7.76522 9 7.5 9ZM13.5 8C13.5 8.26522 13.3946 8.51957 13.2071 8.70711C13.0196 8.89464 12.7652 9 12.5 9C12.2348 9 11.9804 8.89464 11.7929 8.70711C11.6054 8.51957 11.5 8.26522 11.5 8C11.5 7.73478 11.6054 7.48043 11.7929 7.29289C11.9804 7.10536 12.2348 7 12.5 7C12.7652 7 13.0196 7.10536 13.2071 7.29289C13.3946 7.48043 13.5 7.73478 13.5 8ZM12.793 16.414C12.569 16.639 12.296 16.804 12 16.901V13.75C12 12.784 12.784 12 13.75 12H16.901C16.8033 12.2989 16.6364 12.5706 16.414 12.793L12.793 16.414Z" fill="#979797"/>
</svg>
