<svg width="50" height="51" viewBox="0 0 50 51" fill="none" xmlns="http://www.w3.org/2000/svg">
<path d="M25 3.02237L6.25 11.3557V23.8557C6.25 35.4182 14.25 46.2307 25 48.8557C35.75 46.2307 43.75 35.4182 43.75 23.8557V11.3557L25 3.02237ZM25 11.3557C26.6576 11.3557 28.2473 12.0142 29.4194 13.1863C30.5915 14.3584 31.25 15.9481 31.25 17.6057C31.25 19.2633 30.5915 20.853 29.4194 22.0251C28.2473 23.1972 26.6576 23.8557 25 23.8557C23.3424 23.8557 21.7527 23.1972 20.5806 22.0251C19.4085 20.853 18.75 19.2633 18.75 17.6057C18.75 15.9481 19.4085 14.3584 20.5806 13.1863C21.7527 12.0142 23.3424 11.3557 25 11.3557ZM35.6875 36.3557C33.162 40.2184 29.3905 43.1004 25 44.5224C20.6095 43.1004 16.838 40.2184 14.3125 36.3557C13.6042 35.314 13 34.2724 12.5 33.1682C12.5 29.7307 18.1458 26.9182 25 26.9182C31.8542 26.9182 37.5 29.6682 37.5 33.1682C37 34.2724 36.3958 35.314 35.6875 36.3557Z" fill="white"/>
</svg>
