<svg width="16" height="17" viewBox="0 0 16 17" fill="none" xmlns="http://www.w3.org/2000/svg">
<path d="M8.00049 8.10602C8.57476 8.10614 9.12556 8.33385 9.53174 8.73981C9.93799 9.14606 10.1664 9.69752 10.1665 10.272C10.1665 10.8467 9.93807 11.3979 9.53174 11.8043C9.12553 12.2104 8.57491 12.4389 8.00049 12.439C7.42589 12.439 6.87458 12.2105 6.46826 11.8043C6.06193 11.3979 5.8335 10.8467 5.8335 10.272C5.83358 9.69752 6.06201 9.14606 6.46826 8.73981C6.87455 8.33373 7.42604 8.10602 8.00049 8.10602ZM8.00049 5.43903C10.3862 5.43916 11.9293 6.46302 12.8716 7.49078V7.49176C13.3758 8.04566 13.7847 8.679 14.0835 9.36578H14.0845L14.1313 9.48004L14.1499 9.57281V9.57477L14.1753 9.69879C14.1763 9.69579 14.1776 9.69665 14.1714 9.7027C14.1644 9.7096 14.1339 9.73654 14.0532 9.76324H14.0522C14.0104 9.77721 13.9648 9.77407 13.9253 9.75446C13.8895 9.73662 13.8626 9.70614 13.8472 9.66949L13.8364 9.63922L13.8286 9.61774L13.8247 9.60895L13.7837 9.50543L13.7798 9.49762L13.7769 9.48981L13.6655 9.2486C13.3947 8.69218 13.0456 8.17667 12.6284 7.71832L12.6265 7.71637C11.7358 6.74843 10.2796 5.77217 8.00049 5.77203C5.72118 5.77203 4.26367 6.74687 3.37256 7.71832L3.37158 7.7193C2.89507 8.2426 2.50702 8.84051 2.22314 9.48883L2.21924 9.49957L2.21436 9.51031L2.17432 9.61383L2.16553 9.63629L2.1626 9.64606C2.14766 9.68661 2.11754 9.72005 2.07861 9.73883C2.03967 9.75757 1.99463 9.76023 1.95361 9.74664C1.91247 9.73289 1.87782 9.70315 1.85791 9.66461C1.83867 9.62722 1.83393 9.58394 1.84521 9.54352C1.86485 9.48548 1.88681 9.42928 1.90967 9.37653L1.91162 9.37164C1.96018 9.25632 2.03267 9.09581 2.13232 8.90485C2.33803 8.51837 2.65774 8.00458 3.12744 7.49274C4.06962 6.46438 5.61325 5.43903 8.00049 5.43903Z" fill="#8F8F8F" stroke="#8F8F8F"/>
</svg>
