<svg width="34" height="44" viewBox="0 0 34 44" fill="none" xmlns="http://www.w3.org/2000/svg">
<path d="M16.9999 0.0223694C14.2372 0.0223694 11.5877 1.11984 9.63422 3.07334C7.68072 5.02684 6.58325 7.67636 6.58325 10.439V14.6057H4.49992C3.39485 14.6057 2.33504 15.0447 1.55364 15.8261C0.772239 16.6075 0.333252 17.6673 0.333252 18.7724V39.6057C0.333252 40.7108 0.772239 41.7706 1.55364 42.552C2.33504 43.3334 3.39485 43.7724 4.49992 43.7724H29.4999C30.605 43.7724 31.6648 43.3334 32.4462 42.552C33.2276 41.7706 33.6666 40.7108 33.6666 39.6057V18.7724C33.6666 17.6673 33.2276 16.6075 32.4462 15.8261C31.6648 15.0447 30.605 14.6057 29.4999 14.6057H27.4166V10.439C27.4166 9.0711 27.1472 7.71656 26.6237 6.45275C26.1002 5.18894 25.3329 4.04062 24.3656 3.07334C23.3983 2.10606 22.25 1.33878 20.9862 0.815291C19.7224 0.291804 18.3679 0.0223694 16.9999 0.0223694ZM16.9999 3.9807C20.5624 3.9807 23.4583 6.87654 23.4583 10.439V14.6057H10.5416V10.439C10.5416 6.87654 13.4374 3.9807 16.9999 3.9807ZM17.3958 19.814C19.3541 19.814 20.9166 20.2515 22.0416 21.1057C23.1666 21.9807 23.7291 23.1474 23.7291 24.6057C23.7291 25.5224 23.4166 26.3349 22.8124 27.1057C22.2083 27.8557 21.4166 28.439 20.4583 28.8765C19.9166 29.189 19.5624 29.5015 19.3749 29.8557C19.1874 30.2307 19.0833 30.689 19.0833 31.2724H14.9166C14.9166 30.2307 15.1249 29.5224 15.5208 29.0224C15.9583 28.5224 16.6666 27.939 17.7499 27.2724C18.2916 26.9807 18.7291 26.6057 19.0833 26.1474C19.3749 25.7099 19.5416 25.189 19.5416 24.6057C19.5416 23.9807 19.3541 23.5224 18.9791 23.1682C18.6041 22.7932 18.0416 22.6265 17.3958 22.6265C16.8333 22.6265 16.3749 22.7724 15.9583 23.064C15.6249 23.3557 15.4166 23.7932 15.4166 24.3765H11.3124C11.2083 22.939 11.7916 21.689 12.9374 20.939C14.0624 20.189 15.5416 19.814 17.3958 19.814ZM14.9166 33.3557H19.0833V37.5224H14.9166V33.3557Z" fill="white"/>
</svg>
