<svg width="50" height="51" viewBox="0 0 50 51" fill="none" xmlns="http://www.w3.org/2000/svg">
<path d="M44.7916 25.939C44.7916 29.8535 43.6308 33.68 41.4561 36.9347C39.2814 40.1894 36.1903 42.7262 32.5739 44.2242C28.9574 45.7221 24.978 46.1141 21.1388 45.3504C17.2996 44.5867 13.773 42.7018 11.0051 39.9339C8.23719 37.1659 6.35222 33.6394 5.58855 29.8002C4.82489 25.961 5.21683 21.9815 6.71481 18.3651C8.2128 14.7486 10.7495 11.6576 14.0043 9.48287C17.259 7.30813 21.0855 6.14737 24.9999 6.14737C28.852 6.14611 32.6208 7.26901 35.844 9.37837C39.0673 11.4877 41.6049 14.4919 43.1458 18.0224M44.7916 12.3974L43.802 19.012L37.4999 17.6057" stroke="white" stroke-width="1.5" stroke-linecap="round" stroke-linejoin="round"/>
<path d="M20.8333 23.8557V20.7307C20.8333 19.6256 21.2722 18.5658 22.0536 17.7844C22.835 17.003 23.8948 16.564 24.9999 16.564C26.105 16.564 27.1648 17.003 27.9462 17.7844C28.7276 18.5658 29.1666 19.6256 29.1666 20.7307V23.8557M23.4374 35.314H26.5624C29.0062 35.314 30.2291 35.314 31.0687 34.6682C31.2854 34.5019 31.4794 34.3079 31.6458 34.0911C32.2916 33.2494 32.2916 32.0286 32.2916 29.5849C32.2916 27.1411 32.2916 25.9182 31.6458 25.0786C31.4794 24.8618 31.2854 24.6678 31.0687 24.5015C30.227 23.8557 29.0062 23.8557 26.5624 23.8557H23.4374C20.9937 23.8557 19.7708 23.8557 18.9312 24.5015C18.7144 24.6678 18.5204 24.8618 18.3541 25.0786C17.7083 25.9203 17.7083 27.1411 17.7083 29.5849C17.7083 32.0286 17.7083 33.2515 18.3541 34.0911C18.5204 34.3079 18.7144 34.5019 18.9312 34.6682C19.7728 35.314 20.9937 35.314 23.4374 35.314Z" stroke="white" stroke-width="1.5" stroke-linecap="round" stroke-linejoin="round"/>
</svg>
