<svg width="167" height="134" viewBox="0 0 167 134" fill="none" xmlns="http://www.w3.org/2000/svg">
<rect x="0.25" y="0.25" width="166.5" height="133.5" rx="11.75" fill="#212426"/>
<rect x="0.25" y="0.25" width="166.5" height="133.5" rx="11.75" stroke="white" stroke-width="0.5" stroke-dasharray="6 6"/>
<g clip-path="url(#clip0_722_10412)">
<path d="M90.85 26.04C90.17 22.59 87.14 20 83.5 20C80.61 20 78.1 21.64 76.85 24.04C73.84 24.36 71.5 26.91 71.5 30C71.5 33.31 74.19 36 77.5 36H90.5C93.26 36 95.5 33.76 95.5 31C95.5 28.36 93.45 26.22 90.85 26.04ZM90.5 34H77.5C75.29 34 73.5 32.21 73.5 30C73.5 27.95 75.03 26.24 77.06 26.03L78.13 25.92L78.63 24.97C79.58 23.14 81.44 22 83.5 22C86.12 22 88.38 23.86 88.89 26.43L89.19 27.93L90.72 28.04C92.28 28.14 93.5 29.45 93.5 31C93.5 32.65 92.15 34 90.5 34ZM79.5 29H82.05V32H84.95V29H87.5L83.5 25L79.5 29Z" fill="white"/>
</g>
<path d="M41.47 57V48.6H44.248C44.828 48.6 45.372 48.71 45.88 48.93C46.388 49.146 46.834 49.448 47.218 49.836C47.602 50.22 47.902 50.666 48.118 51.174C48.338 51.678 48.448 52.22 48.448 52.8C48.448 53.38 48.338 53.924 48.118 54.432C47.902 54.936 47.602 55.382 47.218 55.77C46.834 56.154 46.388 56.456 45.88 56.676C45.372 56.892 44.828 57 44.248 57H41.47ZM42.31 56.16H44.248C44.712 56.16 45.146 56.074 45.55 55.902C45.958 55.726 46.316 55.484 46.624 55.176C46.932 54.868 47.172 54.512 47.344 54.108C47.52 53.7 47.608 53.264 47.608 52.8C47.608 52.336 47.52 51.902 47.344 51.498C47.172 51.09 46.93 50.732 46.618 50.424C46.31 50.116 45.954 49.876 45.55 49.704C45.146 49.528 44.712 49.44 44.248 49.44H42.31V56.16ZM49.5091 57V51H50.3491V51.828C50.5611 51.524 50.8371 51.282 51.1771 51.102C51.5171 50.922 51.8871 50.832 52.2871 50.832C52.5191 50.832 52.7431 50.862 52.9591 50.922L52.6171 51.756C52.4491 51.704 52.2851 51.678 52.1251 51.678C51.8011 51.678 51.5031 51.758 51.2311 51.918C50.9631 52.078 50.7491 52.292 50.5891 52.56C50.4291 52.828 50.3491 53.126 50.3491 53.454V57H49.5091ZM58.3317 51H59.1717V57H58.3317L58.3017 55.884C58.1057 56.264 57.8317 56.572 57.4797 56.808C57.1277 57.04 56.7077 57.156 56.2197 57.156C55.7797 57.156 55.3677 57.074 54.9837 56.91C54.5997 56.742 54.2617 56.512 53.9697 56.22C53.6777 55.928 53.4497 55.59 53.2857 55.206C53.1217 54.822 53.0397 54.41 53.0397 53.97C53.0397 53.538 53.1197 53.132 53.2797 52.752C53.4437 52.372 53.6677 52.038 53.9517 51.75C54.2397 51.462 54.5717 51.238 54.9477 51.078C55.3277 50.914 55.7337 50.832 56.1657 50.832C56.6657 50.832 57.1017 50.952 57.4737 51.192C57.8457 51.428 58.1417 51.738 58.3617 52.122L58.3317 51ZM56.2017 56.34C56.6297 56.34 56.9977 56.236 57.3057 56.028C57.6137 55.816 57.8497 55.532 58.0137 55.176C58.1817 54.82 58.2657 54.428 58.2657 54C58.2657 53.56 58.1817 53.164 58.0137 52.812C57.8457 52.456 57.6077 52.174 57.2997 51.966C56.9917 51.758 56.6257 51.654 56.2017 51.654C55.7777 51.654 55.3897 51.76 55.0377 51.972C54.6897 52.18 54.4117 52.462 54.2037 52.818C53.9997 53.174 53.8977 53.568 53.8977 54C53.8977 54.436 54.0037 54.832 54.2157 55.188C54.4277 55.54 54.7077 55.82 55.0557 56.028C55.4077 56.236 55.7897 56.34 56.2017 56.34ZM65.0252 51H65.8652V57.222C65.8652 57.606 65.7812 57.966 65.6132 58.302C65.4492 58.638 65.2252 58.932 64.9412 59.184C64.6612 59.44 64.3412 59.64 63.9812 59.784C63.6212 59.928 63.2472 60 62.8592 60C62.4432 60 62.0412 59.904 61.6532 59.712C61.2652 59.524 60.9272 59.272 60.6392 58.956C60.3552 58.64 60.1532 58.29 60.0332 57.906L60.8072 57.552C60.8832 57.852 61.0252 58.122 61.2332 58.362C61.4452 58.606 61.6932 58.798 61.9772 58.938C62.2652 59.082 62.5592 59.154 62.8592 59.154C63.1352 59.154 63.4012 59.102 63.6572 58.998C63.9172 58.898 64.1492 58.76 64.3532 58.584C64.5612 58.408 64.7252 58.202 64.8452 57.966C64.9652 57.734 65.0252 57.486 65.0252 57.222V55.896C64.8172 56.272 64.5352 56.576 64.1792 56.808C63.8272 57.04 63.4172 57.156 62.9492 57.156C62.5292 57.156 62.1332 57.074 61.7612 56.91C61.3932 56.746 61.0692 56.52 60.7892 56.232C60.5092 55.94 60.2892 55.604 60.1292 55.224C59.9732 54.844 59.8952 54.436 59.8952 54C59.8952 53.564 59.9732 53.156 60.1292 52.776C60.2892 52.392 60.5092 52.056 60.7892 51.768C61.0692 51.476 61.3932 51.248 61.7612 51.084C62.1332 50.92 62.5292 50.838 62.9492 50.838C63.4172 50.838 63.8272 50.954 64.1792 51.186C64.5352 51.414 64.8172 51.718 65.0252 52.098V51ZM62.9552 56.34C63.3712 56.34 63.7292 56.232 64.0292 56.016C64.3332 55.8 64.5672 55.514 64.7312 55.158C64.8952 54.802 64.9772 54.416 64.9772 54C64.9772 53.572 64.8932 53.182 64.7252 52.83C64.5612 52.474 64.3272 52.19 64.0232 51.978C63.7192 51.762 63.3632 51.654 62.9552 51.654C62.5472 51.654 62.1752 51.76 61.8392 51.972C61.5072 52.18 61.2432 52.462 61.0472 52.818C60.8512 53.174 60.7532 53.568 60.7532 54C60.7532 54.432 60.8532 54.826 61.0532 55.182C61.2532 55.534 61.5192 55.816 61.8512 56.028C62.1872 56.236 62.5552 56.34 62.9552 56.34ZM74.3027 51H75.1907L71.9087 60H71.0147L72.1067 57L69.9527 51H70.8707L72.5267 55.842L74.3027 51ZM78.6686 57.156C78.1166 57.156 77.6126 57.014 77.1566 56.73C76.7046 56.446 76.3426 56.066 76.0706 55.59C75.8026 55.11 75.6686 54.58 75.6686 54C75.6686 53.56 75.7466 53.15 75.9026 52.77C76.0586 52.386 76.2726 52.05 76.5446 51.762C76.8206 51.47 77.1406 51.242 77.5046 51.078C77.8686 50.914 78.2566 50.832 78.6686 50.832C79.2206 50.832 79.7226 50.974 80.1746 51.258C80.6306 51.542 80.9926 51.924 81.2606 52.404C81.5326 52.884 81.6686 53.416 81.6686 54C81.6686 54.436 81.5906 54.844 81.4346 55.224C81.2786 55.604 81.0626 55.94 80.7866 56.232C80.5146 56.52 80.1966 56.746 79.8326 56.91C79.4726 57.074 79.0846 57.156 78.6686 57.156ZM78.6686 56.316C79.0766 56.316 79.4426 56.21 79.7666 55.998C80.0946 55.782 80.3526 55.498 80.5406 55.146C80.7326 54.794 80.8286 54.412 80.8286 54C80.8286 53.58 80.7326 53.194 80.5406 52.842C80.3486 52.486 80.0886 52.202 79.7606 51.99C79.4366 51.778 79.0726 51.672 78.6686 51.672C78.2606 51.672 77.8926 51.78 77.5646 51.996C77.2406 52.208 76.9826 52.49 76.7906 52.842C76.6026 53.194 76.5086 53.58 76.5086 54C76.5086 54.432 76.6066 54.824 76.8026 55.176C76.9986 55.524 77.2606 55.802 77.5886 56.01C77.9166 56.214 78.2766 56.316 78.6686 56.316ZM82.3863 54.702V51H83.2263V54.534C83.2263 54.862 83.3063 55.16 83.4663 55.428C83.6263 55.696 83.8403 55.91 84.1083 56.07C84.3803 56.23 84.6783 56.31 85.0023 56.31C85.3303 56.31 85.6263 56.23 85.8903 56.07C86.1583 55.91 86.3723 55.696 86.5323 55.428C86.6923 55.16 86.7723 54.862 86.7723 54.534V51H87.6123L87.6183 57H86.7783L86.7723 56.16C86.5603 56.464 86.2843 56.706 85.9443 56.886C85.6083 57.066 85.2403 57.156 84.8403 57.156C84.3883 57.156 83.9763 57.046 83.6043 56.826C83.2323 56.606 82.9363 56.31 82.7163 55.938C82.4963 55.566 82.3863 55.154 82.3863 54.702ZM88.8138 57V51H89.6538V51.828C89.8658 51.524 90.1418 51.282 90.4818 51.102C90.8218 50.922 91.1918 50.832 91.5918 50.832C91.8238 50.832 92.0478 50.862 92.2638 50.922L91.9218 51.756C91.7538 51.704 91.5898 51.678 91.4298 51.678C91.1058 51.678 90.8078 51.758 90.5358 51.918C90.2678 52.078 90.0538 52.292 89.8938 52.56C89.7338 52.828 89.6538 53.126 89.6538 53.454V57H88.8138ZM97.2276 49.434V51H99.0276V51.84H97.2276V57H96.3876V51.84H95.5656V51H96.3876V49.434C96.3876 49.142 96.4576 48.878 96.5976 48.642C96.7416 48.402 96.9336 48.212 97.1736 48.072C97.4136 47.928 97.6796 47.856 97.9716 47.856C98.1836 47.856 98.3876 47.898 98.5836 47.982C98.7836 48.066 98.9616 48.19 99.1176 48.354L98.5176 48.948C98.4536 48.868 98.3716 48.806 98.2716 48.762C98.1756 48.718 98.0756 48.696 97.9716 48.696C97.7676 48.696 97.5916 48.768 97.4436 48.912C97.2996 49.056 97.2276 49.23 97.2276 49.434ZM99.9466 51H100.787V57H99.9466V51ZM100.373 49.95C100.237 49.95 100.121 49.906 100.025 49.818C99.9326 49.726 99.8866 49.612 99.8866 49.476C99.8866 49.34 99.9326 49.228 100.025 49.14C100.121 49.048 100.237 49.002 100.373 49.002C100.505 49.002 100.617 49.048 100.709 49.14C100.805 49.228 100.853 49.34 100.853 49.476C100.853 49.612 100.807 49.726 100.715 49.818C100.623 49.906 100.509 49.95 100.373 49.95ZM102.279 57V48H103.119V57H102.279ZM107.157 57.156C106.605 57.156 106.101 57.014 105.645 56.73C105.193 56.446 104.831 56.066 104.559 55.59C104.291 55.11 104.157 54.58 104.157 54C104.157 53.56 104.235 53.15 104.391 52.77C104.547 52.386 104.761 52.05 105.033 51.762C105.309 51.47 105.629 51.242 105.993 51.078C106.357 50.914 106.745 50.832 107.157 50.832C107.601 50.832 108.009 50.92 108.381 51.096C108.757 51.272 109.079 51.518 109.347 51.834C109.619 52.15 109.823 52.52 109.959 52.944C110.099 53.368 110.157 53.826 110.133 54.318H105.045C105.093 54.698 105.213 55.038 105.405 55.338C105.601 55.638 105.849 55.876 106.149 56.052C106.453 56.224 106.789 56.312 107.157 56.316C107.557 56.316 107.917 56.212 108.237 56.004C108.561 55.796 108.821 55.51 109.017 55.146L109.869 55.344C109.629 55.876 109.267 56.312 108.783 56.652C108.299 56.988 107.757 57.156 107.157 57.156ZM105.021 53.64H109.287C109.259 53.268 109.145 52.928 108.945 52.62C108.749 52.308 108.495 52.06 108.183 51.876C107.871 51.688 107.529 51.594 107.157 51.594C106.785 51.594 106.445 51.686 106.137 51.87C105.829 52.05 105.577 52.296 105.381 52.608C105.185 52.916 105.065 53.26 105.021 53.64ZM112.918 57.672C112.514 57.292 112.186 56.862 111.934 56.382C111.686 55.902 111.504 55.388 111.388 54.84C111.276 54.288 111.22 53.72 111.22 53.136C111.22 52.816 111.242 52.48 111.286 52.128C111.334 51.776 111.404 51.428 111.496 51.084C111.588 50.736 111.702 50.404 111.838 50.088C111.974 49.772 112.132 49.486 112.312 49.23C112.492 48.974 112.694 48.764 112.918 48.6H113.758C113.554 48.796 113.366 49.024 113.194 49.284C113.026 49.54 112.874 49.82 112.738 50.124C112.602 50.428 112.484 50.748 112.384 51.084C112.288 51.416 112.212 51.756 112.156 52.104C112.1 52.448 112.068 52.792 112.06 53.136C112.076 53.764 112.154 54.354 112.294 54.906C112.438 55.458 112.634 55.966 112.882 56.43C113.13 56.89 113.422 57.304 113.758 57.672H112.918ZM116.929 57.114C116.601 57.106 116.281 57.046 115.969 56.934C115.657 56.822 115.385 56.67 115.153 56.478C114.921 56.286 114.755 56.068 114.655 55.824L115.381 55.512C115.445 55.668 115.563 55.812 115.735 55.944C115.911 56.072 116.111 56.176 116.335 56.256C116.559 56.332 116.781 56.37 117.001 56.37C117.245 56.37 117.473 56.33 117.685 56.25C117.897 56.17 118.069 56.056 118.201 55.908C118.337 55.756 118.405 55.578 118.405 55.374C118.405 55.154 118.333 54.982 118.189 54.858C118.045 54.73 117.863 54.63 117.643 54.558C117.423 54.482 117.197 54.41 116.965 54.342C116.541 54.226 116.167 54.098 115.843 53.958C115.519 53.818 115.265 53.64 115.081 53.424C114.901 53.204 114.811 52.922 114.811 52.578C114.811 52.214 114.913 51.9 115.117 51.636C115.325 51.368 115.595 51.162 115.927 51.018C116.263 50.87 116.621 50.796 117.001 50.796C117.489 50.796 117.933 50.902 118.333 51.114C118.737 51.326 119.029 51.608 119.209 51.96L118.531 52.362C118.459 52.198 118.345 52.056 118.189 51.936C118.033 51.816 117.855 51.722 117.655 51.654C117.459 51.586 117.259 51.55 117.055 51.546C116.799 51.542 116.561 51.58 116.341 51.66C116.121 51.736 115.943 51.85 115.807 52.002C115.675 52.154 115.609 52.34 115.609 52.56C115.609 52.78 115.675 52.948 115.807 53.064C115.939 53.176 116.117 53.268 116.341 53.34C116.569 53.408 116.825 53.488 117.109 53.58C117.473 53.696 117.815 53.828 118.135 53.976C118.455 54.124 118.713 54.308 118.909 54.528C119.105 54.748 119.201 55.026 119.197 55.362C119.197 55.722 119.089 56.036 118.873 56.304C118.657 56.572 118.377 56.778 118.033 56.922C117.689 57.062 117.321 57.126 116.929 57.114ZM120.112 57.672C120.448 57.304 120.74 56.89 120.988 56.43C121.236 55.966 121.43 55.458 121.57 54.906C121.714 54.354 121.794 53.764 121.81 53.136C121.802 52.792 121.77 52.448 121.714 52.104C121.658 51.756 121.58 51.416 121.48 51.084C121.384 50.748 121.268 50.428 121.132 50.124C120.996 49.82 120.842 49.54 120.67 49.284C120.502 49.024 120.316 48.796 120.112 48.6H120.952C121.176 48.764 121.376 48.974 121.552 49.23C121.732 49.486 121.89 49.772 122.026 50.088C122.166 50.404 122.282 50.736 122.374 51.084C122.466 51.428 122.534 51.776 122.578 52.128C122.626 52.48 122.65 52.816 122.65 53.136C122.65 53.72 122.592 54.288 122.476 54.84C122.364 55.388 122.182 55.902 121.93 56.382C121.682 56.862 121.356 57.292 120.952 57.672H120.112ZM81.3873 71.156C80.8353 71.156 80.3313 71.014 79.8753 70.73C79.4233 70.446 79.0613 70.066 78.7893 69.59C78.5213 69.11 78.3873 68.58 78.3873 68C78.3873 67.56 78.4653 67.15 78.6213 66.77C78.7773 66.386 78.9913 66.05 79.2633 65.762C79.5393 65.47 79.8593 65.242 80.2233 65.078C80.5873 64.914 80.9753 64.832 81.3873 64.832C81.9393 64.832 82.4413 64.974 82.8933 65.258C83.3493 65.542 83.7113 65.924 83.9793 66.404C84.2513 66.884 84.3873 67.416 84.3873 68C84.3873 68.436 84.3093 68.844 84.1533 69.224C83.9973 69.604 83.7813 69.94 83.5053 70.232C83.2333 70.52 82.9153 70.746 82.5513 70.91C82.1913 71.074 81.8033 71.156 81.3873 71.156ZM81.3873 70.316C81.7953 70.316 82.1613 70.21 82.4853 69.998C82.8133 69.782 83.0713 69.498 83.2593 69.146C83.4513 68.794 83.5473 68.412 83.5473 68C83.5473 67.58 83.4513 67.194 83.2593 66.842C83.0673 66.486 82.8073 66.202 82.4793 65.99C82.1553 65.778 81.7913 65.672 81.3873 65.672C80.9793 65.672 80.6113 65.78 80.2833 65.996C79.9593 66.208 79.7013 66.49 79.5093 66.842C79.3213 67.194 79.2273 67.58 79.2273 68C79.2273 68.432 79.3253 68.824 79.5213 69.176C79.7173 69.524 79.9793 69.802 80.3073 70.01C80.6353 70.214 80.9953 70.316 81.3873 70.316ZM85.4036 71V65H86.2436V65.828C86.4556 65.524 86.7316 65.282 87.0716 65.102C87.4116 64.922 87.7816 64.832 88.1816 64.832C88.4136 64.832 88.6376 64.862 88.8536 64.922L88.5116 65.756C88.3436 65.704 88.1796 65.678 88.0196 65.678C87.6956 65.678 87.3976 65.758 87.1256 65.918C86.8576 66.078 86.6436 66.292 86.4836 66.56C86.3236 66.828 86.2436 67.126 86.2436 67.454V71H85.4036Z" fill="white"/>
<path d="M67.7091 80.832C68.2931 80.832 68.8231 80.974 69.2991 81.258C69.7791 81.542 70.1611 81.924 70.4451 82.404C70.7291 82.88 70.8711 83.41 70.8711 83.994C70.8711 84.43 70.7891 84.84 70.6251 85.224C70.4611 85.604 70.2331 85.94 69.9411 86.232C69.6531 86.52 69.3171 86.746 68.9331 86.91C68.5531 87.074 68.1451 87.156 67.7091 87.156C67.2451 87.156 66.8411 87.048 66.4971 86.832C66.1571 86.612 65.8851 86.326 65.6811 85.974V87H64.6731V78H65.6811V82.014C65.8851 81.662 66.1571 81.378 66.4971 81.162C66.8411 80.942 67.2451 80.832 67.7091 80.832ZM67.6971 86.172C68.0931 86.172 68.4531 86.074 68.7771 85.878C69.1011 85.682 69.3591 85.42 69.5511 85.092C69.7431 84.76 69.8391 84.394 69.8391 83.994C69.8391 83.586 69.7411 83.218 69.5451 82.89C69.3491 82.558 69.0891 82.296 68.7651 82.104C68.4411 81.908 68.0851 81.81 67.6971 81.81C67.3051 81.81 66.9631 81.908 66.6711 82.104C66.3831 82.3 66.1591 82.564 65.9991 82.896C65.8431 83.228 65.7651 83.594 65.7651 83.994C65.7651 84.398 65.8431 84.766 65.9991 85.098C66.1591 85.426 66.3851 85.688 66.6771 85.884C66.9691 86.076 67.3091 86.172 67.6971 86.172ZM71.8684 87V81H72.8764V81.75C73.0884 81.47 73.3564 81.248 73.6804 81.084C74.0044 80.916 74.3564 80.832 74.7364 80.832C74.9684 80.832 75.1924 80.862 75.4084 80.922L75.0004 81.93C74.8364 81.878 74.6764 81.852 74.5204 81.852C74.2204 81.852 73.9444 81.926 73.6924 82.074C73.4444 82.218 73.2464 82.414 73.0984 82.662C72.9504 82.91 72.8764 83.186 72.8764 83.49V87H71.8684ZM78.4811 87.156C77.9291 87.156 77.4251 87.014 76.9691 86.73C76.5171 86.446 76.1551 86.066 75.8831 85.59C75.6151 85.11 75.4811 84.58 75.4811 84C75.4811 83.56 75.5591 83.15 75.7151 82.77C75.8711 82.386 76.0851 82.05 76.3571 81.762C76.6331 81.47 76.9531 81.242 77.3171 81.078C77.6811 80.914 78.0691 80.832 78.4811 80.832C79.0331 80.832 79.5351 80.974 79.9871 81.258C80.4431 81.542 80.8051 81.924 81.0731 82.404C81.3451 82.884 81.4811 83.416 81.4811 84C81.4811 84.436 81.4031 84.844 81.2471 85.224C81.0911 85.604 80.8751 85.94 80.5991 86.232C80.3271 86.52 80.0091 86.746 79.6451 86.91C79.2851 87.074 78.8971 87.156 78.4811 87.156ZM78.4811 86.148C78.8571 86.148 79.1951 86.05 79.4951 85.854C79.7991 85.654 80.0371 85.392 80.2091 85.068C80.3851 84.74 80.4731 84.384 80.4731 84C80.4731 83.608 80.3831 83.248 80.2031 82.92C80.0271 82.592 79.7891 82.33 79.4891 82.134C79.1891 81.938 78.8531 81.84 78.4811 81.84C78.1051 81.84 77.7671 81.94 77.4671 82.14C77.1671 82.336 76.9291 82.598 76.7531 82.926C76.5771 83.254 76.4891 83.612 76.4891 84C76.4891 84.4 76.5791 84.764 76.7591 85.092C76.9391 85.416 77.1811 85.674 77.4851 85.866C77.7891 86.054 78.1211 86.148 78.4811 86.148ZM84.8861 87H83.8661L81.8561 81H82.8401L84.3881 85.578L85.9181 81H86.9561L88.4921 85.578L90.0221 81H91.0181L89.0081 87H87.9821L86.4281 82.38L84.8861 87ZM93.7844 87.114C93.4604 87.102 93.1444 87.042 92.8364 86.934C92.5324 86.822 92.2644 86.672 92.0324 86.484C91.8044 86.292 91.6384 86.072 91.5344 85.824L92.3984 85.452C92.4584 85.588 92.5664 85.716 92.7224 85.836C92.8784 85.956 93.0584 86.052 93.2624 86.124C93.4664 86.196 93.6724 86.232 93.8804 86.232C94.1004 86.232 94.3064 86.198 94.4984 86.13C94.6904 86.062 94.8464 85.962 94.9664 85.83C95.0904 85.694 95.1524 85.532 95.1524 85.344C95.1524 85.144 95.0844 84.988 94.9484 84.876C94.8164 84.76 94.6484 84.67 94.4444 84.606C94.2444 84.538 94.0404 84.474 93.8324 84.414C93.4204 84.31 93.0524 84.186 92.7284 84.042C92.4044 83.894 92.1484 83.708 91.9604 83.484C91.7764 83.256 91.6844 82.966 91.6844 82.614C91.6844 82.242 91.7864 81.92 91.9904 81.648C92.1984 81.376 92.4704 81.166 92.8064 81.018C93.1424 80.87 93.5024 80.796 93.8864 80.796C94.3704 80.796 94.8124 80.9 95.2124 81.108C95.6124 81.316 95.9104 81.598 96.1064 81.954L95.2964 82.428C95.2284 82.284 95.1244 82.158 94.9844 82.05C94.8444 81.938 94.6844 81.85 94.5044 81.786C94.3244 81.722 94.1404 81.688 93.9524 81.684C93.7204 81.676 93.5024 81.706 93.2984 81.774C93.0984 81.842 92.9364 81.946 92.8124 82.086C92.6924 82.222 92.6324 82.392 92.6324 82.596C92.6324 82.796 92.6964 82.948 92.8244 83.052C92.9564 83.156 93.1264 83.24 93.3344 83.304C93.5464 83.364 93.7764 83.434 94.0244 83.514C94.3884 83.63 94.7284 83.764 95.0444 83.916C95.3604 84.068 95.6144 84.258 95.8064 84.486C96.0024 84.714 96.0984 84.996 96.0944 85.332C96.0944 85.7 95.9844 86.022 95.7644 86.298C95.5444 86.57 95.2584 86.778 94.9064 86.922C94.5584 87.066 94.1844 87.13 93.7844 87.114ZM99.7038 87.156C99.1518 87.156 98.6478 87.014 98.1918 86.73C97.7398 86.446 97.3778 86.066 97.1058 85.59C96.8378 85.11 96.7038 84.58 96.7038 84C96.7038 83.56 96.7818 83.15 96.9378 82.77C97.0938 82.386 97.3078 82.05 97.5798 81.762C97.8558 81.47 98.1758 81.242 98.5398 81.078C98.9038 80.914 99.2918 80.832 99.7038 80.832C100.156 80.832 100.57 80.924 100.946 81.108C101.326 81.288 101.65 81.54 101.918 81.864C102.19 82.188 102.392 82.564 102.524 82.992C102.66 83.42 102.71 83.878 102.674 84.366H97.7778C97.8258 84.706 97.9378 85.01 98.1138 85.278C98.2898 85.542 98.5138 85.752 98.7858 85.908C99.0618 86.064 99.3678 86.144 99.7038 86.148C100.064 86.148 100.39 86.056 100.682 85.872C100.974 85.684 101.21 85.428 101.39 85.104L102.416 85.344C102.176 85.876 101.814 86.312 101.33 86.652C100.846 86.988 100.304 87.156 99.7038 87.156ZM97.7478 83.574H101.66C101.628 83.238 101.52 82.932 101.336 82.656C101.152 82.376 100.918 82.152 100.634 81.984C100.35 81.816 100.04 81.732 99.7038 81.732C99.3678 81.732 99.0598 81.814 98.7798 81.978C98.4998 82.142 98.2678 82.364 98.0838 82.644C97.9038 82.92 97.7918 83.23 97.7478 83.574Z" fill="white"/>
<path d="M23.3411 115V109H24.1811V109.828C24.3971 109.524 24.6731 109.282 25.0091 109.102C25.3451 108.922 25.7131 108.832 26.1131 108.832C26.5651 108.832 26.9791 108.944 27.3551 109.168C27.7311 109.388 28.0251 109.682 28.2371 110.05C28.4491 109.682 28.7411 109.388 29.1131 109.168C29.4851 108.944 29.8971 108.832 30.3491 108.832C30.8011 108.832 31.2131 108.942 31.5851 109.162C31.9571 109.382 32.2531 109.678 32.4731 110.05C32.6931 110.422 32.8031 110.834 32.8031 111.286V115H31.9631V111.472C31.9631 111.152 31.8851 110.856 31.7291 110.584C31.5731 110.312 31.3631 110.094 31.0991 109.93C30.8391 109.762 30.5491 109.678 30.2291 109.678C29.9091 109.678 29.6171 109.756 29.3531 109.912C29.0931 110.064 28.8851 110.276 28.7291 110.548C28.5731 110.816 28.4951 111.124 28.4951 111.472V115H27.6551V111.472C27.6551 111.124 27.5771 110.816 27.4211 110.548C27.2651 110.276 27.0551 110.064 26.7911 109.912C26.5271 109.756 26.2351 109.678 25.9151 109.678C25.5991 109.678 25.3091 109.762 25.0451 109.93C24.7811 110.094 24.5711 110.312 24.4151 110.584C24.2591 110.856 24.1811 111.152 24.1811 111.472V115H23.3411ZM38.82 109H39.66V115H38.82L38.79 113.884C38.594 114.264 38.32 114.572 37.968 114.808C37.616 115.04 37.196 115.156 36.708 115.156C36.268 115.156 35.856 115.074 35.472 114.91C35.088 114.742 34.75 114.512 34.458 114.22C34.166 113.928 33.938 113.59 33.774 113.206C33.61 112.822 33.528 112.41 33.528 111.97C33.528 111.538 33.608 111.132 33.768 110.752C33.932 110.372 34.156 110.038 34.44 109.75C34.728 109.462 35.06 109.238 35.436 109.078C35.816 108.914 36.222 108.832 36.654 108.832C37.154 108.832 37.59 108.952 37.962 109.192C38.334 109.428 38.63 109.738 38.85 110.122L38.82 109ZM36.69 114.34C37.118 114.34 37.486 114.236 37.794 114.028C38.102 113.816 38.338 113.532 38.502 113.176C38.67 112.82 38.754 112.428 38.754 112C38.754 111.56 38.67 111.164 38.502 110.812C38.334 110.456 38.096 110.174 37.788 109.966C37.48 109.758 37.114 109.654 36.69 109.654C36.266 109.654 35.878 109.76 35.526 109.972C35.178 110.18 34.9 110.462 34.692 110.818C34.488 111.174 34.386 111.568 34.386 112C34.386 112.436 34.492 112.832 34.704 113.188C34.916 113.54 35.196 113.82 35.544 114.028C35.896 114.236 36.278 114.34 36.69 114.34ZM40.562 115L42.758 111.988L40.568 108.982H41.606L43.28 111.268L44.948 108.982H45.98L43.796 111.988L45.992 115H44.954L43.28 112.696L41.6 115H40.562ZM51.9256 115.114C51.5976 115.106 51.2776 115.046 50.9656 114.934C50.6536 114.822 50.3816 114.67 50.1496 114.478C49.9176 114.286 49.7516 114.068 49.6516 113.824L50.3776 113.512C50.4416 113.668 50.5596 113.812 50.7316 113.944C50.9076 114.072 51.1076 114.176 51.3316 114.256C51.5556 114.332 51.7776 114.37 51.9976 114.37C52.2416 114.37 52.4696 114.33 52.6816 114.25C52.8936 114.17 53.0656 114.056 53.1976 113.908C53.3336 113.756 53.4016 113.578 53.4016 113.374C53.4016 113.154 53.3296 112.982 53.1856 112.858C53.0416 112.73 52.8596 112.63 52.6396 112.558C52.4196 112.482 52.1936 112.41 51.9616 112.342C51.5376 112.226 51.1636 112.098 50.8396 111.958C50.5156 111.818 50.2616 111.64 50.0776 111.424C49.8976 111.204 49.8076 110.922 49.8076 110.578C49.8076 110.214 49.9096 109.9 50.1136 109.636C50.3216 109.368 50.5916 109.162 50.9236 109.018C51.2596 108.87 51.6176 108.796 51.9976 108.796C52.4856 108.796 52.9296 108.902 53.3296 109.114C53.7336 109.326 54.0256 109.608 54.2056 109.96L53.5276 110.362C53.4556 110.198 53.3416 110.056 53.1856 109.936C53.0296 109.816 52.8516 109.722 52.6516 109.654C52.4556 109.586 52.2556 109.55 52.0516 109.546C51.7956 109.542 51.5576 109.58 51.3376 109.66C51.1176 109.736 50.9396 109.85 50.8036 110.002C50.6716 110.154 50.6056 110.34 50.6056 110.56C50.6056 110.78 50.6716 110.948 50.8036 111.064C50.9356 111.176 51.1136 111.268 51.3376 111.34C51.5656 111.408 51.8216 111.488 52.1056 111.58C52.4696 111.696 52.8116 111.828 53.1316 111.976C53.4516 112.124 53.7096 112.308 53.9056 112.528C54.1016 112.748 54.1976 113.026 54.1936 113.362C54.1936 113.722 54.0856 114.036 53.8696 114.304C53.6536 114.572 53.3736 114.778 53.0296 114.922C52.6856 115.062 52.3176 115.126 51.9256 115.114ZM55.1692 109H56.0092V115H55.1692V109ZM55.5952 107.95C55.4592 107.95 55.3432 107.906 55.2472 107.818C55.1552 107.726 55.1092 107.612 55.1092 107.476C55.1092 107.34 55.1552 107.228 55.2472 107.14C55.3432 107.048 55.4592 107.002 55.5952 107.002C55.7272 107.002 55.8392 107.048 55.9312 107.14C56.0272 107.228 56.0752 107.34 56.0752 107.476C56.0752 107.612 56.0292 107.726 55.9372 107.818C55.8452 107.906 55.7312 107.95 55.5952 107.95ZM62.3384 109.84L58.4024 114.16H62.3384V115H57.2144V114.16L61.1504 109.84H57.2144V109H62.3384V109.84ZM66.1178 115.156C65.5658 115.156 65.0618 115.014 64.6058 114.73C64.1538 114.446 63.7918 114.066 63.5198 113.59C63.2518 113.11 63.1178 112.58 63.1178 112C63.1178 111.56 63.1958 111.15 63.3518 110.77C63.5078 110.386 63.7218 110.05 63.9938 109.762C64.2698 109.47 64.5898 109.242 64.9538 109.078C65.3178 108.914 65.7058 108.832 66.1178 108.832C66.5618 108.832 66.9698 108.92 67.3418 109.096C67.7178 109.272 68.0398 109.518 68.3078 109.834C68.5798 110.15 68.7838 110.52 68.9198 110.944C69.0598 111.368 69.1178 111.826 69.0938 112.318H64.0058C64.0538 112.698 64.1738 113.038 64.3658 113.338C64.5618 113.638 64.8098 113.876 65.1098 114.052C65.4138 114.224 65.7498 114.312 66.1178 114.316C66.5178 114.316 66.8778 114.212 67.1978 114.004C67.5218 113.796 67.7818 113.51 67.9778 113.146L68.8298 113.344C68.5898 113.876 68.2278 114.312 67.7438 114.652C67.2598 114.988 66.7178 115.156 66.1178 115.156ZM63.9818 111.64H68.2478C68.2198 111.268 68.1058 110.928 67.9058 110.62C67.7098 110.308 67.4558 110.06 67.1438 109.876C66.8318 109.688 66.4898 109.594 66.1178 109.594C65.7458 109.594 65.4058 109.686 65.0978 109.87C64.7898 110.05 64.5378 110.296 64.3418 110.608C64.1458 110.916 64.0258 111.26 63.9818 111.64ZM73.7238 115V107.44H72.8238L73.0638 106.6H74.5638V115H73.7238ZM76.2395 115L77.8655 106.6H78.4775L80.8295 112.78L83.1695 106.6H83.7815L85.4135 115H84.5555L83.3135 108.574L81.0935 114.448H80.5535L78.3335 108.574L77.0915 115H76.2395ZM86.6575 115V106.6H89.4955C89.9035 106.6 90.2735 106.684 90.6055 106.852C90.9415 107.016 91.2075 107.258 91.4035 107.578C91.6035 107.894 91.7035 108.278 91.7035 108.73C91.7035 108.986 91.6575 109.23 91.5655 109.462C91.4735 109.694 91.3535 109.892 91.2055 110.056C91.0575 110.216 90.8975 110.32 90.7255 110.368C90.9735 110.432 91.1875 110.544 91.3675 110.704C91.5475 110.86 91.6955 111.046 91.8115 111.262C91.9275 111.474 92.0115 111.698 92.0635 111.934C92.1195 112.17 92.1475 112.402 92.1475 112.63C92.1475 113.102 92.0435 113.516 91.8355 113.872C91.6315 114.228 91.3575 114.506 91.0135 114.706C90.6695 114.902 90.2875 115 89.8675 115H86.6575ZM87.4975 114.25H89.8015C90.0935 114.25 90.3575 114.174 90.5935 114.022C90.8335 113.87 91.0235 113.662 91.1635 113.398C91.3075 113.134 91.3795 112.836 91.3795 112.504C91.3795 112.208 91.3075 111.93 91.1635 111.67C91.0235 111.406 90.8335 111.194 90.5935 111.034C90.3575 110.87 90.0935 110.788 89.8015 110.788H87.4975V114.25ZM87.4975 110.05H89.4235C89.8195 110.05 90.1575 109.936 90.4375 109.708C90.7215 109.476 90.8635 109.148 90.8635 108.724C90.8635 108.26 90.7215 107.916 90.4375 107.692C90.1575 107.464 89.8195 107.35 89.4235 107.35H87.4975V110.05ZM95.0469 115.672C94.6429 115.292 94.3149 114.862 94.0629 114.382C93.8149 113.902 93.6329 113.388 93.5169 112.84C93.4049 112.288 93.3489 111.72 93.3489 111.136C93.3489 110.816 93.3709 110.48 93.4149 110.128C93.4629 109.776 93.5329 109.428 93.6249 109.084C93.7169 108.736 93.8309 108.404 93.9669 108.088C94.1029 107.772 94.2609 107.486 94.4409 107.23C94.6209 106.974 94.8229 106.764 95.0469 106.6H95.8869C95.6829 106.796 95.4949 107.024 95.3229 107.284C95.1549 107.54 95.0029 107.82 94.8669 108.124C94.7309 108.428 94.6129 108.748 94.5129 109.084C94.4169 109.416 94.3409 109.756 94.2849 110.104C94.2289 110.448 94.1969 110.792 94.1889 111.136C94.2049 111.764 94.2829 112.354 94.4229 112.906C94.5669 113.458 94.7629 113.966 95.0109 114.43C95.2589 114.89 95.5509 115.304 95.8869 115.672H95.0469ZM97.4384 115.156C97.3064 115.156 97.1944 115.108 97.1024 115.012C97.0104 114.92 96.9644 114.806 96.9644 114.67C96.9644 114.542 97.0104 114.432 97.1024 114.34C97.1944 114.244 97.3064 114.196 97.4384 114.196C97.5744 114.196 97.6884 114.244 97.7804 114.34C97.8764 114.432 97.9244 114.542 97.9244 114.67C97.9244 114.806 97.8764 114.92 97.7804 115.012C97.6884 115.108 97.5744 115.156 97.4384 115.156ZM100.201 118H99.3606V109H100.201V110.122C100.409 109.742 100.693 109.434 101.053 109.198C101.413 108.962 101.841 108.844 102.337 108.844C102.773 108.844 103.181 108.926 103.561 109.09C103.945 109.254 104.281 109.482 104.569 109.774C104.857 110.062 105.083 110.396 105.247 110.776C105.411 111.156 105.493 111.564 105.493 112C105.493 112.436 105.411 112.846 105.247 113.23C105.083 113.614 104.857 113.952 104.569 114.244C104.281 114.532 103.945 114.758 103.561 114.922C103.181 115.086 102.773 115.168 102.337 115.168C101.841 115.168 101.413 115.05 101.053 114.814C100.693 114.578 100.409 114.27 100.201 113.89V118ZM102.331 109.66C101.911 109.66 101.545 109.766 101.233 109.978C100.925 110.186 100.687 110.466 100.519 110.818C100.351 111.17 100.267 111.564 100.267 112C100.267 112.428 100.349 112.82 100.513 113.176C100.681 113.532 100.919 113.816 101.227 114.028C101.539 114.24 101.907 114.346 102.331 114.346C102.747 114.346 103.129 114.242 103.477 114.034C103.829 113.826 104.111 113.546 104.323 113.194C104.535 112.838 104.641 112.44 104.641 112C104.641 111.572 104.537 111.182 104.329 110.83C104.121 110.474 103.843 110.19 103.495 109.978C103.147 109.766 102.759 109.66 102.331 109.66ZM111.741 111.286V115H110.901V111.454C110.901 111.126 110.821 110.828 110.661 110.56C110.501 110.292 110.287 110.078 110.019 109.918C109.751 109.758 109.453 109.678 109.125 109.678C108.801 109.678 108.503 109.758 108.231 109.918C107.963 110.078 107.749 110.292 107.589 110.56C107.429 110.828 107.349 111.126 107.349 111.454V115H106.509V109H107.349V109.828C107.561 109.524 107.837 109.282 108.177 109.102C108.517 108.922 108.887 108.832 109.287 108.832C109.739 108.832 110.151 108.942 110.523 109.162C110.895 109.382 111.191 109.678 111.411 110.05C111.631 110.422 111.741 110.834 111.741 111.286ZM117.595 109H118.435V115.222C118.435 115.606 118.351 115.966 118.183 116.302C118.019 116.638 117.795 116.932 117.511 117.184C117.231 117.44 116.911 117.64 116.551 117.784C116.191 117.928 115.817 118 115.429 118C115.013 118 114.611 117.904 114.223 117.712C113.835 117.524 113.497 117.272 113.209 116.956C112.925 116.64 112.723 116.29 112.603 115.906L113.377 115.552C113.453 115.852 113.595 116.122 113.803 116.362C114.015 116.606 114.263 116.798 114.547 116.938C114.835 117.082 115.129 117.154 115.429 117.154C115.705 117.154 115.971 117.102 116.227 116.998C116.487 116.898 116.719 116.76 116.923 116.584C117.131 116.408 117.295 116.202 117.415 115.966C117.535 115.734 117.595 115.486 117.595 115.222V113.896C117.387 114.272 117.105 114.576 116.749 114.808C116.397 115.04 115.987 115.156 115.519 115.156C115.099 115.156 114.703 115.074 114.331 114.91C113.963 114.746 113.639 114.52 113.359 114.232C113.079 113.94 112.859 113.604 112.699 113.224C112.543 112.844 112.465 112.436 112.465 112C112.465 111.564 112.543 111.156 112.699 110.776C112.859 110.392 113.079 110.056 113.359 109.768C113.639 109.476 113.963 109.248 114.331 109.084C114.703 108.92 115.099 108.838 115.519 108.838C115.987 108.838 116.397 108.954 116.749 109.186C117.105 109.414 117.387 109.718 117.595 110.098V109ZM115.525 114.34C115.941 114.34 116.299 114.232 116.599 114.016C116.903 113.8 117.137 113.514 117.301 113.158C117.465 112.802 117.547 112.416 117.547 112C117.547 111.572 117.463 111.182 117.295 110.83C117.131 110.474 116.897 110.19 116.593 109.978C116.289 109.762 115.933 109.654 115.525 109.654C115.117 109.654 114.745 109.76 114.409 109.972C114.077 110.18 113.813 110.462 113.617 110.818C113.421 111.174 113.323 111.568 113.323 112C113.323 112.432 113.423 112.826 113.623 113.182C113.823 113.534 114.089 113.816 114.421 114.028C114.757 114.236 115.125 114.34 115.525 114.34ZM119.64 115.672L120.012 113.644H120.852L120.198 115.672H119.64ZM122.528 115.156C122.396 115.156 122.284 115.108 122.192 115.012C122.1 114.92 122.054 114.806 122.054 114.67C122.054 114.542 122.1 114.432 122.192 114.34C122.284 114.244 122.396 114.196 122.528 114.196C122.664 114.196 122.778 114.244 122.87 114.34C122.966 114.432 123.014 114.542 123.014 114.67C123.014 114.806 122.966 114.92 122.87 115.012C122.778 115.108 122.664 115.156 122.528 115.156ZM123.25 118V117.16C123.55 117.16 123.818 117.094 124.054 116.962C124.29 116.83 124.476 116.648 124.612 116.416C124.748 116.188 124.816 115.932 124.816 115.648V109H125.656V115.648C125.656 116.08 125.55 116.474 125.338 116.83C125.13 117.186 124.844 117.47 124.48 117.682C124.12 117.894 123.71 118 123.25 118ZM125.242 107.95C125.106 107.95 124.99 107.906 124.894 107.818C124.802 107.726 124.756 107.612 124.756 107.476C124.756 107.34 124.802 107.228 124.894 107.14C124.99 107.048 125.106 107.002 125.242 107.002C125.374 107.002 125.486 107.048 125.578 107.14C125.674 107.228 125.722 107.34 125.722 107.476C125.722 107.612 125.676 107.726 125.584 107.818C125.492 107.906 125.378 107.95 125.242 107.95ZM127.939 118H127.099V109H127.939V110.122C128.147 109.742 128.431 109.434 128.791 109.198C129.151 108.962 129.579 108.844 130.075 108.844C130.511 108.844 130.919 108.926 131.299 109.09C131.683 109.254 132.019 109.482 132.307 109.774C132.595 110.062 132.821 110.396 132.985 110.776C133.149 111.156 133.231 111.564 133.231 112C133.231 112.436 133.149 112.846 132.985 113.23C132.821 113.614 132.595 113.952 132.307 114.244C132.019 114.532 131.683 114.758 131.299 114.922C130.919 115.086 130.511 115.168 130.075 115.168C129.579 115.168 129.151 115.05 128.791 114.814C128.431 114.578 128.147 114.27 127.939 113.89V118ZM130.069 109.66C129.649 109.66 129.283 109.766 128.971 109.978C128.663 110.186 128.425 110.466 128.257 110.818C128.089 111.17 128.005 111.564 128.005 112C128.005 112.428 128.087 112.82 128.251 113.176C128.419 113.532 128.657 113.816 128.965 114.028C129.277 114.24 129.645 114.346 130.069 114.346C130.485 114.346 130.867 114.242 131.215 114.034C131.567 113.826 131.849 113.546 132.061 113.194C132.273 112.838 132.379 112.44 132.379 112C132.379 111.572 132.275 111.182 132.067 110.83C131.859 110.474 131.581 110.19 131.233 109.978C130.885 109.766 130.497 109.66 130.069 109.66ZM138.959 109H139.799V115.222C139.799 115.606 139.715 115.966 139.547 116.302C139.383 116.638 139.159 116.932 138.875 117.184C138.595 117.44 138.275 117.64 137.915 117.784C137.555 117.928 137.181 118 136.793 118C136.377 118 135.975 117.904 135.587 117.712C135.199 117.524 134.861 117.272 134.573 116.956C134.289 116.64 134.087 116.29 133.967 115.906L134.741 115.552C134.817 115.852 134.959 116.122 135.167 116.362C135.379 116.606 135.627 116.798 135.911 116.938C136.199 117.082 136.493 117.154 136.793 117.154C137.069 117.154 137.335 117.102 137.591 116.998C137.851 116.898 138.083 116.76 138.287 116.584C138.495 116.408 138.659 116.202 138.779 115.966C138.899 115.734 138.959 115.486 138.959 115.222V113.896C138.751 114.272 138.469 114.576 138.113 114.808C137.761 115.04 137.351 115.156 136.883 115.156C136.463 115.156 136.067 115.074 135.695 114.91C135.327 114.746 135.003 114.52 134.723 114.232C134.443 113.94 134.223 113.604 134.063 113.224C133.907 112.844 133.829 112.436 133.829 112C133.829 111.564 133.907 111.156 134.063 110.776C134.223 110.392 134.443 110.056 134.723 109.768C135.003 109.476 135.327 109.248 135.695 109.084C136.067 108.92 136.463 108.838 136.883 108.838C137.351 108.838 137.761 108.954 138.113 109.186C138.469 109.414 138.751 109.718 138.959 110.098V109ZM136.889 114.34C137.305 114.34 137.663 114.232 137.963 114.016C138.267 113.8 138.501 113.514 138.665 113.158C138.829 112.802 138.911 112.416 138.911 112C138.911 111.572 138.827 111.182 138.659 110.83C138.495 110.474 138.261 110.19 137.957 109.978C137.653 109.762 137.297 109.654 136.889 109.654C136.481 109.654 136.109 109.76 135.773 109.972C135.441 110.18 135.177 110.462 134.981 110.818C134.785 111.174 134.687 111.568 134.687 112C134.687 112.432 134.787 112.826 134.987 113.182C135.187 113.534 135.453 113.816 135.785 114.028C136.121 114.236 136.489 114.34 136.889 114.34ZM141.123 115.672C141.459 115.304 141.751 114.89 141.999 114.43C142.247 113.966 142.441 113.458 142.581 112.906C142.725 112.354 142.805 111.764 142.821 111.136C142.813 110.792 142.781 110.448 142.725 110.104C142.669 109.756 142.591 109.416 142.491 109.084C142.395 108.748 142.279 108.428 142.143 108.124C142.007 107.82 141.853 107.54 141.681 107.284C141.513 107.024 141.327 106.796 141.123 106.6H141.963C142.187 106.764 142.387 106.974 142.563 107.23C142.743 107.486 142.901 107.772 143.037 108.088C143.177 108.404 143.293 108.736 143.385 109.084C143.477 109.428 143.545 109.776 143.589 110.128C143.637 110.48 143.661 110.816 143.661 111.136C143.661 111.72 143.603 112.288 143.487 112.84C143.375 113.388 143.193 113.902 142.941 114.382C142.693 114.862 142.367 115.292 141.963 115.672H141.123Z" fill="#6D6D6D"/>
<defs>
<clipPath id="clip0_722_10412">
<rect width="24" height="24" fill="white" transform="translate(71.5 16)"/>
</clipPath>
</defs>
</svg>
