<svg width="14" height="15" viewBox="0 0 14 15" fill="none" xmlns="http://www.w3.org/2000/svg">
<path d="M11.8125 4H9.625C9.625 3.30381 9.34844 2.63613 8.85616 2.14384C8.36387 1.65156 7.69619 1.375 7 1.375C6.30381 1.375 5.63613 1.65156 5.14384 2.14384C4.65156 2.63613 4.375 3.30381 4.375 4H2.1875C1.95544 4 1.73288 4.09219 1.56878 4.25628C1.40469 4.42038 1.3125 4.64294 1.3125 4.875V11.4375C1.3125 11.6696 1.40469 11.8921 1.56878 12.0562C1.73288 12.2203 1.95544 12.3125 2.1875 12.3125H11.8125C12.0446 12.3125 12.2671 12.2203 12.4312 12.0562C12.5953 11.8921 12.6875 11.6696 12.6875 11.4375V4.875C12.6875 4.64294 12.5953 4.42038 12.4312 4.25628C12.2671 4.09219 12.0446 4 11.8125 4ZM5.25 6.1875C5.25 6.30353 5.20391 6.41481 5.12186 6.49686C5.03981 6.57891 4.92853 6.625 4.8125 6.625C4.69647 6.625 4.58519 6.57891 4.50314 6.49686C4.42109 6.41481 4.375 6.30353 4.375 6.1875V5.3125C4.375 5.19647 4.42109 5.08519 4.50314 5.00314C4.58519 4.92109 4.69647 4.875 4.8125 4.875C4.92853 4.875 5.03981 4.92109 5.12186 5.00314C5.20391 5.08519 5.25 5.19647 5.25 5.3125V6.1875ZM7 2.25C7.46413 2.25 7.90925 2.43437 8.23744 2.76256C8.56563 3.09075 8.75 3.53587 8.75 4H5.25C5.25 3.53587 5.43437 3.09075 5.76256 2.76256C6.09075 2.43437 6.53587 2.25 7 2.25ZM9.625 6.1875C9.625 6.30353 9.57891 6.41481 9.49686 6.49686C9.41481 6.57891 9.30353 6.625 9.1875 6.625C9.07147 6.625 8.96019 6.57891 8.87814 6.49686C8.79609 6.41481 8.75 6.30353 8.75 6.1875V5.3125C8.75 5.19647 8.79609 5.08519 8.87814 5.00314C8.96019 4.92109 9.07147 4.875 9.1875 4.875C9.30353 4.875 9.41481 4.92109 9.49686 5.00314C9.57891 5.08519 9.625 5.19647 9.625 5.3125V6.1875Z" fill="white"/>
</svg>
