<svg width="15" height="15" viewBox="0 0 15 15" fill="none" xmlns="http://www.w3.org/2000/svg">
<path d="M8.33171 6.33333V8.66667H5.99837V6.33333H8.33171ZM9.49837 6.33333H12.415V8.66667H9.49837V6.33333ZM8.33171 12.75H5.99837V9.83333H8.33171V12.75ZM9.49837 12.75V9.83333H12.415V12.1667C12.415 12.3214 12.3536 12.4697 12.2442 12.5791C12.1348 12.6885 11.9864 12.75 11.8317 12.75H9.49837ZM8.33171 2.25V5.16667H5.99837V2.25H8.33171ZM9.49837 2.25H11.8317C11.9864 2.25 12.1348 2.31146 12.2442 2.42085C12.3536 2.53025 12.415 2.67862 12.415 2.83333V5.16667H9.49837V2.25ZM4.83171 6.33333V8.66667H1.91504V6.33333H4.83171ZM4.83171 12.75H2.49837C2.34366 12.75 2.19529 12.6885 2.08589 12.5791C1.9765 12.4697 1.91504 12.3214 1.91504 12.1667V9.83333H4.83171V12.75ZM4.83171 2.25V5.16667H1.91504V2.83333C1.91504 2.67862 1.9765 2.53025 2.08589 2.42085C2.19529 2.31146 2.34366 2.25 2.49837 2.25H4.83171Z" fill="white"/>
</svg>
