<svg width="14" height="15" viewBox="0 0 14 15" fill="none" xmlns="http://www.w3.org/2000/svg">
<path d="M3.8181 3.41615C3.77137 3.36847 3.7157 3.33046 3.65427 3.3043C3.59285 3.27815 3.52687 3.26435 3.4601 3.2637C3.39334 3.26305 3.32711 3.27556 3.26518 3.30052C3.20326 3.32547 3.14686 3.36239 3.0992 3.40915C2.56032 3.94517 2.13284 4.58253 1.84138 5.2845C1.54993 5.98647 1.40026 6.73918 1.401 7.49925C1.40021 8.2885 1.5616 9.0695 1.87516 9.79379C2.18872 10.5181 2.64776 11.1702 3.2238 11.7098C3.32077 11.7994 3.44885 11.8477 3.58085 11.8444C3.71286 11.8412 3.83839 11.7866 3.9308 11.6923C4.152 11.4711 4.1247 11.119 3.9119 10.9153C3.44955 10.4746 3.08163 9.94459 2.83049 9.35735C2.57935 8.77011 2.45024 8.13794 2.451 7.49925C2.451 6.20705 2.9697 5.03525 3.8111 4.18265C4.0141 3.97615 4.0351 3.63315 3.8181 3.41615ZM5.0508 4.65025C4.95861 4.55539 4.83258 4.50095 4.70032 4.49885C4.56806 4.49675 4.44036 4.54717 4.3452 4.63905C3.96637 5.01275 3.66569 5.45809 3.46067 5.94914C3.25564 6.44019 3.15038 6.96712 3.151 7.49925C3.151 8.68365 3.662 9.74835 4.4761 10.4848C4.57226 10.5695 4.69737 10.6141 4.82548 10.6091C4.95359 10.6042 5.07488 10.5501 5.1642 10.4582C5.3938 10.2286 5.3511 9.86735 5.1355 9.66435C4.84007 9.38647 4.60472 9.05098 4.444 8.6786C4.28327 8.30621 4.20057 7.90484 4.201 7.49925C4.201 6.69425 4.5209 5.96345 5.041 5.42725C5.2412 5.22145 5.2741 4.87285 5.0508 4.65025ZM8.9512 4.64955C9.04339 4.55469 9.16943 4.50025 9.30169 4.49815C9.43395 4.49605 9.56165 4.54647 9.6568 4.63835C10.0357 5.01213 10.3364 5.45759 10.5415 5.94876C10.7465 6.43994 10.8517 6.96701 10.851 7.49925C10.851 8.68365 10.34 9.74835 9.5259 10.4848C9.42974 10.5695 9.30464 10.6141 9.17653 10.6091C9.04842 10.6042 8.92713 10.5501 8.8378 10.4582C8.6082 10.2286 8.6509 9.86735 8.8665 9.66435C9.16194 9.38647 9.39728 9.05098 9.55801 8.6786C9.71874 8.30621 9.80144 7.90484 9.801 7.49925C9.801 6.69425 9.4811 5.96345 8.961 5.42725C8.7608 5.22145 8.7279 4.87215 8.9512 4.64955ZM10.1839 3.41615C10.2306 3.36847 10.2863 3.33046 10.3477 3.3043C10.4092 3.27815 10.4751 3.26435 10.5419 3.2637C10.6087 3.26305 10.6749 3.27556 10.7368 3.30052C10.7988 3.32547 10.8552 3.36239 10.9028 3.40915C11.4417 3.94517 11.8692 4.58253 12.1606 5.2845C12.4521 5.98647 12.6017 6.73918 12.601 7.49925C12.6018 8.2885 12.4404 9.0695 12.1268 9.79379C11.8133 10.5181 11.3542 11.1702 10.7782 11.7098C10.6812 11.7994 10.5532 11.8477 10.4212 11.8444C10.2891 11.8412 10.1636 11.7866 10.0712 11.6923C9.85 11.4711 9.8773 11.119 10.0908 10.9153C10.553 10.4746 10.9208 9.9445 11.1718 9.35726C11.4229 8.77003 11.5519 8.13789 11.551 7.49925C11.551 6.20705 11.0323 5.03525 10.1909 4.18265C9.9879 3.97615 9.9669 3.63315 10.1839 3.41615ZM7.001 6.44925C6.72253 6.44925 6.45545 6.55988 6.25854 6.75679C6.06163 6.9537 5.951 7.22078 5.951 7.49925C5.951 7.77773 6.06163 8.0448 6.25854 8.24171C6.45545 8.43863 6.72253 8.54925 7.001 8.54925C7.27948 8.54925 7.54655 8.43863 7.74347 8.24171C7.94038 8.0448 8.051 7.77773 8.051 7.49925C8.051 7.22078 7.94038 6.9537 7.74347 6.75679C7.54655 6.55988 7.27948 6.44925 7.001 6.44925Z" fill="white"/>
</svg>
