<svg width="15" height="15" viewBox="0 0 15 15" fill="none" xmlns="http://www.w3.org/2000/svg">
<path d="M12.5293 2.3797L2.92587 5.58162C2.88655 5.59469 2.85214 5.61942 2.82721 5.65252C2.80228 5.68562 2.78802 5.72553 2.78631 5.76693C2.7846 5.80833 2.79553 5.84928 2.81764 5.88432C2.83976 5.91936 2.87201 5.94684 2.91012 5.96312L6.43929 7.4757C6.45778 7.48371 6.47803 7.48679 6.49807 7.48464C6.51811 7.48249 6.53725 7.47519 6.55362 7.46345L10.0134 4.99128C10.1207 4.91545 10.2525 5.04728 10.1767 5.15462L7.70454 8.61437C7.693 8.63073 7.68586 8.64979 7.68382 8.66971C7.68177 8.68964 7.68489 8.70975 7.69287 8.72812L9.20487 12.2573C9.22109 12.2954 9.24853 12.3277 9.28353 12.3499C9.31854 12.372 9.35946 12.383 9.40086 12.3814C9.44226 12.3797 9.48218 12.3655 9.51531 12.3406C9.54845 12.3158 9.57323 12.2814 9.58637 12.2421L12.7883 2.63812C12.8003 2.60212 12.8021 2.56348 12.7934 2.52653C12.7847 2.48958 12.7659 2.45578 12.7391 2.42894C12.7122 2.4021 12.6784 2.38327 12.6415 2.37457C12.6045 2.36587 12.5653 2.36765 12.5293 2.3797Z" fill="white"/>
</svg>
