<svg width="13" height="13" viewBox="0 0 13 13" fill="none" xmlns="http://www.w3.org/2000/svg">
<path fill-rule="evenodd" clip-rule="evenodd" d="M6.91667 0.833984C7.05954 0.834003 7.19745 0.886459 7.30422 0.981402C7.41099 1.07634 7.4792 1.20717 7.49592 1.34907L7.5 1.41732C7.50016 1.566 7.5571 1.709 7.65916 1.81712C7.76123 1.92523 7.90072 1.99029 8.04915 1.999C8.19757 2.00771 8.34372 1.95942 8.45774 1.864C8.57175 1.76857 8.64502 1.63321 8.66258 1.48557L8.66667 1.41732C8.66667 1.26261 8.72812 1.11424 8.83752 1.00484C8.94692 0.895443 9.09529 0.833984 9.25 0.833984H10.4167C10.8808 0.833984 11.3259 1.01836 11.6541 1.34655C11.9823 1.67474 12.1667 2.11986 12.1667 2.58398V8.41732C12.1667 8.88145 11.9823 9.32657 11.6541 9.65476C11.3259 9.98294 10.8808 10.1673 10.4167 10.1673H9.25C9.10712 10.1673 8.96922 10.1148 8.86245 10.0199C8.75568 9.92496 8.68747 9.79413 8.67075 9.65224L8.66667 9.58399C8.6665 9.43531 8.60957 9.2923 8.50751 9.18419C8.40544 9.07607 8.26594 9.01101 8.11752 9.0023C7.9691 8.99359 7.82295 9.04188 7.70893 9.13731C7.59492 9.23273 7.52164 9.3681 7.50408 9.51573L7.5 9.58399C7.5 9.73869 7.43854 9.88707 7.32915 9.99646C7.21975 10.1059 7.07138 10.1673 6.91667 10.1673H2.25C1.78587 10.1673 1.34075 9.98294 1.01256 9.65476C0.684375 9.32657 0.5 8.88145 0.5 8.41732V2.58398C0.5 2.11986 0.684375 1.67474 1.01256 1.34655C1.34075 1.01836 1.78587 0.833984 2.25 0.833984H6.91667ZM8.08333 6.08398C7.92862 6.08398 7.78025 6.14544 7.67085 6.25484C7.56146 6.36424 7.5 6.51261 7.5 6.66732V7.25065C7.5 7.40536 7.56146 7.55373 7.67085 7.66313C7.78025 7.77253 7.92862 7.83398 8.08333 7.83398C8.23804 7.83398 8.38642 7.77253 8.49581 7.66313C8.60521 7.55373 8.66667 7.40536 8.66667 7.25065V6.66732C8.66667 6.51261 8.60521 6.36424 8.49581 6.25484C8.38642 6.14544 8.23804 6.08398 8.08333 6.08398ZM8.08333 3.16732C7.94046 3.16734 7.80255 3.21979 7.69578 3.31473C7.58901 3.40968 7.5208 3.5405 7.50408 3.6824L7.5 3.75065V4.33398C7.50016 4.48266 7.5571 4.62567 7.65916 4.73378C7.76123 4.8419 7.90072 4.90696 8.04915 4.91567C8.19757 4.92438 8.34372 4.87609 8.45774 4.78066C8.57175 4.68524 8.64502 4.54987 8.66258 4.40223L8.66667 4.33398V3.75065C8.66667 3.59594 8.60521 3.44757 8.49581 3.33817C8.38642 3.22878 8.23804 3.16732 8.08333 3.16732Z" fill="white"/>
</svg>
