<svg width="15" height="15" viewBox="0 0 15 15" fill="none" xmlns="http://www.w3.org/2000/svg">
<path d="M1.64746 0.9375H13.0225C13.0225 0.9375 13.8975 0.9375 13.8975 1.8125V13.1875C13.8975 13.1875 13.8975 14.0625 13.0225 14.0625H1.64746C1.64746 14.0625 0.772461 14.0625 0.772461 13.1875V1.8125C0.772461 1.8125 0.772461 0.9375 1.64746 0.9375Z" stroke="white" stroke-width="1.5" stroke-linecap="round" stroke-linejoin="round"/>
<path d="M2.82414 6.75506C2.631 6.95377 2.52295 7.21995 2.52295 7.49706C2.52295 7.77416 2.631 8.04035 2.82414 8.23906C3.72889 9.14614 5.34647 10.5631 7.33505 10.5631C9.32422 10.5631 10.9418 9.14672 11.8471 8.23964C12.0403 8.04093 12.1483 7.77475 12.1483 7.49764C12.1483 7.22053 12.0403 6.95435 11.8471 6.75564C10.9412 5.84856 9.32189 4.43164 7.33505 4.43164C5.34822 4.43164 3.73005 5.84739 2.82414 6.75506Z" stroke="white" stroke-width="1.5" stroke-linecap="round" stroke-linejoin="round"/>
<path d="M6.02246 7.49414C6.02246 7.84224 6.16074 8.17608 6.40688 8.42222C6.65302 8.66836 6.98686 8.80664 7.33496 8.80664C7.68306 8.80664 8.0169 8.66836 8.26304 8.42222C8.50918 8.17608 8.64746 7.84224 8.64746 7.49414C8.64746 7.14604 8.50918 6.8122 8.26304 6.56606C8.0169 6.31992 7.68306 6.18164 7.33496 6.18164C6.98686 6.18164 6.65302 6.31992 6.40688 6.56606C6.16074 6.8122 6.02246 7.14604 6.02246 7.49414Z" stroke="white" stroke-width="1.5" stroke-linecap="round" stroke-linejoin="round"/>
</svg>
