<svg width="21" height="20" viewBox="0 0 21 20" fill="none" xmlns="http://www.w3.org/2000/svg">
<path d="M11.3327 4.99935C11.3327 4.77834 11.2449 4.56637 11.0886 4.41009C10.9323 4.25381 10.7204 4.16602 10.4993 4.16602C10.2783 4.16602 10.0664 4.25381 9.91009 4.41009C9.75381 4.56637 9.66602 4.77834 9.66602 4.99935V9.16602H5.49935C5.27834 9.16602 5.06637 9.25381 4.91009 9.41009C4.75381 9.56637 4.66602 9.77834 4.66602 9.99935C4.66602 10.2204 4.75381 10.4323 4.91009 10.5886C5.06637 10.7449 5.27834 10.8327 5.49935 10.8327H9.66602V14.9993C9.66602 15.2204 9.75381 15.4323 9.91009 15.5886C10.0664 15.7449 10.2783 15.8327 10.4993 15.8327C10.7204 15.8327 10.9323 15.7449 11.0886 15.5886C11.2449 15.4323 11.3327 15.2204 11.3327 14.9993V10.8327H15.4993C15.7204 10.8327 15.9323 10.7449 16.0886 10.5886C16.2449 10.4323 16.3327 10.2204 16.3327 9.99935C16.3327 9.77834 16.2449 9.56637 16.0886 9.41009C15.9323 9.25381 15.7204 9.16602 15.4993 9.16602H11.3327V4.99935Z" fill="white"/>
</svg>
