<svg width="16" height="17" viewBox="0 0 16 17" fill="none" xmlns="http://www.w3.org/2000/svg">
<path d="M6.0714 4.13265C6.47007 2.96598 8.08207 2.93065 8.55474 4.02665L8.59474 4.13332L9.13274 5.70665C9.25603 6.06747 9.45527 6.39766 9.71702 6.67493C9.97877 6.95221 10.2969 7.17013 10.6501 7.31398L10.7947 7.36798L12.3681 7.90532C13.5347 8.30398 13.5701 9.91598 12.4747 10.3887L12.3681 10.4287L10.7947 10.9667C10.4338 11.0899 10.1035 11.2891 9.82608 11.5508C9.54869 11.8126 9.33067 12.1308 9.18674 12.484L9.13274 12.628L8.5954 14.202C8.19674 15.3687 6.58474 15.404 6.11274 14.3087L6.0714 14.202L5.53407 12.6287C5.41086 12.2677 5.21165 11.9374 4.9499 11.66C4.68814 11.3826 4.36993 11.1646 4.01674 11.0207L3.87274 10.9667L2.2994 10.4293C1.13207 10.0307 1.09674 8.41865 2.19274 7.94665L2.2994 7.90532L3.87274 7.36798C4.23356 7.24469 4.56374 7.04545 4.84102 6.7837C5.11829 6.52195 5.33621 6.20378 5.48007 5.85065L5.53407 5.70665L6.0714 4.13265ZM12.6667 1.83398C12.7915 1.83398 12.9137 1.86897 13.0195 1.93497C13.1253 2.00096 13.2105 2.09532 13.2654 2.20732L13.2974 2.28532L13.5307 2.96932L14.2154 3.20265C14.3404 3.24511 14.45 3.32373 14.5302 3.42853C14.6105 3.53333 14.6578 3.6596 14.6663 3.79133C14.6747 3.92307 14.6438 4.05434 14.5775 4.16851C14.5113 4.28268 14.4126 4.37461 14.2941 4.43265L14.2154 4.46465L13.5314 4.69798L13.2981 5.38265C13.2555 5.5076 13.1769 5.61712 13.072 5.69731C12.9672 5.77751 12.8409 5.82478 12.7092 5.83313C12.5774 5.84149 12.4462 5.81055 12.3321 5.74424C12.2179 5.67793 12.1261 5.57923 12.0681 5.46065L12.0361 5.38265L11.8027 4.69865L11.1181 4.46532C10.9931 4.42285 10.8835 4.34424 10.8033 4.23944C10.723 4.13464 10.6756 4.00837 10.6672 3.87664C10.6588 3.7449 10.6897 3.61363 10.7559 3.49946C10.8222 3.38529 10.9208 3.29336 11.0394 3.23532L11.1181 3.20332L11.8021 2.96998L12.0354 2.28532C12.0804 2.1536 12.1654 2.03926 12.2786 1.95832C12.3918 1.87738 12.5276 1.8339 12.6667 1.83398Z" fill="white"/>
</svg>
