<svg width="16" height="16" viewBox="0 0 16 16" fill="none" xmlns="http://www.w3.org/2000/svg">
<path d="M3.95 7.55H12.95C13.0693 7.55 13.1838 7.59741 13.2682 7.68181C13.3526 7.7662 13.4 7.88066 13.4 8C13.4 8.11935 13.3526 8.23381 13.2682 8.3182C13.1838 8.40259 13.0693 8.45 12.95 8.45H3.95C3.83065 8.45 3.71619 8.40259 3.6318 8.3182C3.54741 8.23381 3.5 8.11935 3.5 8C3.5 7.88066 3.54741 7.7662 3.6318 7.68181C3.71619 7.59741 3.83065 7.55 3.95 7.55Z" fill="white"/>
<path d="M4.13789 7.99999L7.87019 11.7314C7.95468 11.8159 8.00215 11.9305 8.00215 12.05C8.00215 12.1695 7.95468 12.2841 7.87019 12.3686C7.78569 12.4531 7.67108 12.5006 7.55159 12.5006C7.43209 12.5006 7.31748 12.4531 7.23299 12.3686L3.18299 8.31859C3.14108 8.27679 3.10783 8.22713 3.08514 8.17246C3.06246 8.11779 3.05078 8.05918 3.05078 7.99999C3.05078 7.9408 3.06246 7.88219 3.08514 7.82752C3.10783 7.77285 3.14108 7.72319 3.18299 7.68139L7.23299 3.63139C7.31748 3.54689 7.43209 3.49942 7.55159 3.49942C7.67108 3.49942 7.78569 3.54689 7.87019 3.63139C7.95468 3.71589 8.00215 3.83049 8.00215 3.94999C8.00215 4.06949 7.95468 4.18409 7.87019 4.26859L4.13789 7.99999Z" fill="white"/>
</svg>
