<svg width="14" height="15" viewBox="0 0 14 15" fill="none" xmlns="http://www.w3.org/2000/svg">
<path d="M3.88889 4.38845C3.99203 4.38845 4.09094 4.34748 4.16387 4.27455C4.23681 4.20162 4.27778 4.10271 4.27778 3.99957V1.66623C4.27778 1.56309 4.23681 1.46418 4.16387 1.39125C4.09094 1.31832 3.99203 1.27734 3.88889 1.27734C3.78575 1.27734 3.68683 1.31832 3.6139 1.39125C3.54097 1.46418 3.5 1.56309 3.5 1.66623V3.99957C3.5 4.10271 3.54097 4.20162 3.6139 4.27455C3.68683 4.34748 3.78575 4.38845 3.88889 4.38845Z" fill="white"/>
<path d="M10.1111 4.38845C10.2142 4.38845 10.3131 4.34748 10.386 4.27455C10.459 4.20162 10.4999 4.10271 10.4999 3.99957V1.66623C10.4999 1.56309 10.459 1.46418 10.386 1.39125C10.3131 1.31832 10.2142 1.27734 10.1111 1.27734C10.0079 1.27734 9.909 1.31832 9.83607 1.39125C9.76314 1.46418 9.72217 1.56309 9.72217 1.66623V3.99957C9.72217 4.10271 9.76314 4.20162 9.83607 4.27455C9.909 4.34748 10.0079 4.38845 10.1111 4.38845Z" fill="white"/>
<path d="M12.5416 2.83403H10.986V4.0007C10.986 4.2276 10.8959 4.44522 10.7354 4.60567C10.575 4.76611 10.3574 4.85625 10.1305 4.85625C9.90356 4.85625 9.68594 4.76611 9.5255 4.60567C9.36505 4.44522 9.27491 4.2276 9.27491 4.0007V2.83403H4.74435V4.0007C4.74435 4.2276 4.65422 4.44522 4.49377 4.60567C4.33332 4.76611 4.11571 4.85625 3.8888 4.85625C3.66189 4.85625 3.44428 4.76611 3.28383 4.60567C3.12338 4.44522 3.03324 4.2276 3.03324 4.0007V2.83403H1.47769C1.38514 2.83298 1.29332 2.85049 1.20766 2.88554C1.12201 2.92059 1.04424 2.97246 0.978982 3.03809C0.913719 3.10371 0.862279 3.18176 0.827704 3.26761C0.793129 3.35347 0.776122 3.44538 0.777688 3.53792V12.2413C0.776143 12.3322 0.792522 12.4225 0.825889 12.5071C0.859256 12.5916 0.908958 12.6688 0.972156 12.7342C1.03535 12.7995 1.11081 12.8518 1.19421 12.888C1.27762 12.9242 1.36734 12.9436 1.45824 12.9451H12.5416C12.6325 12.9436 12.7222 12.9242 12.8056 12.888C12.889 12.8518 12.9645 12.7995 13.0277 12.7342C13.0909 12.6688 13.1406 12.5916 13.1739 12.5071C13.2073 12.4225 13.2237 12.3322 13.2221 12.2413V3.53792C13.2237 3.44701 13.2073 3.35669 13.1739 3.27211C13.1406 3.18754 13.0909 3.11036 13.0277 3.045C12.9645 2.97963 12.889 2.92736 12.8056 2.89116C12.7222 2.85496 12.6325 2.83555 12.5416 2.83403ZM10.0877 6.94847L6.32713 10.709L4.27769 8.64403C4.18689 8.54417 4.13771 8.41337 4.14021 8.27842C4.14271 8.14348 4.19672 8.01459 4.29115 7.91817C4.38559 7.82174 4.51332 7.76507 4.64819 7.75975C4.78305 7.75444 4.91484 7.80089 5.01658 7.88959L6.33102 9.20403L9.33324 6.20181C9.38253 6.15253 9.44103 6.11343 9.50542 6.08676C9.56981 6.06009 9.63883 6.04636 9.70852 6.04636C9.77822 6.04636 9.84723 6.06009 9.91162 6.08676C9.97601 6.11343 10.0345 6.15253 10.0838 6.20181C10.1331 6.25109 10.1722 6.3096 10.1988 6.37399C10.2255 6.43838 10.2392 6.50739 10.2392 6.57709C10.2392 6.64678 10.2255 6.71579 10.1988 6.78018C10.1722 6.84457 10.1331 6.90308 10.0838 6.95236L10.0877 6.94847Z" fill="white"/>
</svg>
