<svg width="21" height="21" viewBox="0 0 21 21" fill="none" xmlns="http://www.w3.org/2000/svg">
<g clip-path="url(#clip0_625_8911)">
<path d="M18.2082 10.5H7.91234M4.27817 10.5H2.7915M4.27817 10.5C4.27817 10.0182 4.46957 9.5561 4.81026 9.21541C5.15095 8.87472 5.61303 8.68332 6.09484 8.68332C6.57665 8.68332 7.03872 8.87472 7.37942 9.21541C7.72011 9.5561 7.9115 10.0182 7.9115 10.5C7.9115 10.9818 7.72011 11.4439 7.37942 11.7846C7.03872 12.1253 6.57665 12.3167 6.09484 12.3167C5.61303 12.3167 5.15095 12.1253 4.81026 11.7846C4.46957 11.4439 4.27817 10.9818 4.27817 10.5ZM18.2082 16.0058H13.4182M13.4182 16.0058C13.4182 16.4877 13.2263 16.9503 12.8855 17.2911C12.5448 17.6319 12.0826 17.8233 11.6007 17.8233C11.1189 17.8233 10.6568 17.6311 10.3161 17.2904C9.9754 16.9497 9.784 16.4876 9.784 16.0058M13.4182 16.0058C13.4182 15.5239 13.2263 15.0621 12.8855 14.7214C12.5448 14.3806 12.0826 14.1892 11.6007 14.1892C11.1189 14.1892 10.6568 14.3806 10.3161 14.7212C9.9754 15.0619 9.784 15.524 9.784 16.0058M9.784 16.0058H2.7915M18.2082 4.99416H15.6207M11.9865 4.99416H2.7915M11.9865 4.99416C11.9865 4.51235 12.1779 4.05027 12.5186 3.70958C12.8593 3.36889 13.3214 3.17749 13.8032 3.17749C14.0417 3.17749 14.278 3.22448 14.4984 3.31578C14.7188 3.40707 14.9191 3.54089 15.0877 3.70958C15.2564 3.87827 15.3903 4.07854 15.4816 4.29895C15.5728 4.51936 15.6198 4.75559 15.6198 4.99416C15.6198 5.23272 15.5728 5.46896 15.4816 5.68937C15.3903 5.90977 15.2564 6.11004 15.0877 6.27873C14.9191 6.44743 14.7188 6.58124 14.4984 6.67254C14.278 6.76383 14.0417 6.81082 13.8032 6.81082C13.3214 6.81082 12.8593 6.61943 12.5186 6.27873C12.1779 5.93804 11.9865 5.47597 11.9865 4.99416Z" stroke="white" stroke-width="1.5" stroke-miterlimit="10" stroke-linecap="round"/>
</g>
<defs>
<clipPath id="clip0_625_8911">
<rect width="20" height="20" fill="white" transform="translate(0.5 0.5)"/>
</clipPath>
</defs>
</svg>
