<svg width="12" height="12" viewBox="0 0 12 12" fill="none" xmlns="http://www.w3.org/2000/svg">
<path d="M10.375 5.99935C10.375 5.86518 10.3692 5.73685 10.3575 5.60268L11.4425 4.78018C11.6759 4.60518 11.74 4.27852 11.5942 4.02185L10.5034 2.13768C10.4334 2.01412 10.3203 1.92077 10.1857 1.87554C10.0511 1.83032 9.90458 1.83643 9.77421 1.89268L8.52005 2.42352C8.30421 2.27185 8.07671 2.13768 7.83755 2.02685L7.66838 0.679349C7.63338 0.387682 7.38255 0.166016 7.09088 0.166016H4.91505C4.61755 0.166016 4.36672 0.387682 4.33172 0.679349L4.16255 2.02685C3.92338 2.13768 3.69588 2.27185 3.48005 2.42352L2.22588 1.89268C1.95755 1.77602 1.64255 1.88102 1.49672 2.13768L0.405882 4.02768C0.260049 4.28435 0.324215 4.60518 0.557549 4.78602L1.64255 5.60852C1.61822 5.87045 1.61822 6.13408 1.64255 6.39602L0.557549 7.21852C0.324215 7.39352 0.260049 7.72018 0.405882 7.97685L1.49672 9.86102C1.64255 10.1177 1.95755 10.2227 2.22588 10.106L3.48005 9.57518C3.69588 9.72685 3.92338 9.86102 4.16255 9.97185L4.33172 11.3194C4.36672 11.611 4.61755 11.8327 4.90922 11.8327H7.08505C7.37672 11.8327 7.62755 11.611 7.66255 11.3194L7.83172 9.97185C8.07088 9.86102 8.29838 9.72685 8.51421 9.57518L9.76838 10.106C10.0367 10.2227 10.3517 10.1177 10.4975 9.86102L11.5884 7.97685C11.7342 7.72018 11.67 7.39935 11.4367 7.21852L10.3517 6.39602C10.3692 6.26185 10.375 6.13352 10.375 5.99935ZM6.02338 8.04102C4.89755 8.04102 3.98172 7.12518 3.98172 5.99935C3.98172 4.87352 4.89755 3.95768 6.02338 3.95768C7.14922 3.95768 8.06505 4.87352 8.06505 5.99935C8.06505 7.12518 7.14922 8.04102 6.02338 8.04102Z" fill="white"/>
</svg>
