<svg width="14" height="14" viewBox="0 0 14 14" fill="none" xmlns="http://www.w3.org/2000/svg">
<path fill-rule="evenodd" clip-rule="evenodd" d="M10.4181 0.643498C10.2801 0.423136 10.077 0.251254 9.83678 0.151778C9.5966 0.0523023 9.33139 0.0301823 9.07805 0.0884978L7.28005 0.501498C7.09579 0.543849 6.90432 0.543849 6.72005 0.501498L4.92205 0.0884978C4.66872 0.0301823 4.4035 0.0523023 4.16333 0.151778C3.92315 0.251254 3.71997 0.423136 3.58205 0.643498L2.60205 2.2075C2.50205 2.3675 2.36705 2.5025 2.20705 2.6035L0.643053 3.5835C0.423071 3.72129 0.251441 3.92415 0.151987 4.16391C0.0525324 4.40368 0.0301873 4.66846 0.0880528 4.9215L0.501053 6.7215C0.543251 6.90544 0.543251 7.09655 0.501053 7.2805L0.0880528 9.0795C0.0299624 9.33269 0.0521951 9.59768 0.15166 9.83765C0.251125 10.0776 0.422881 10.2806 0.643053 10.4185L2.20705 11.3985C2.36705 11.4985 2.50205 11.6335 2.60305 11.7935L3.58305 13.3575C3.86505 13.8085 4.40305 14.0315 4.92205 13.9125L6.72005 13.4995C6.90432 13.4571 7.09579 13.4571 7.28005 13.4995L9.07905 13.9125C9.33224 13.9706 9.59724 13.9484 9.83721 13.8489C10.0772 13.7494 10.2802 13.5777 10.4181 13.3575L11.3981 11.7935C11.4981 11.6335 11.6331 11.4985 11.7931 11.3985L13.3581 10.4185C13.5782 10.2804 13.7499 10.0772 13.8492 9.83704C13.9485 9.59687 13.9705 9.33173 13.9121 9.0785L13.5001 7.2805C13.4577 7.09623 13.4577 6.90476 13.5001 6.7205L13.9131 4.9215C13.9712 4.66841 13.9492 4.40349 13.8499 4.16353C13.7506 3.92357 13.579 3.72049 13.3591 3.5825L11.7941 2.6025C11.6343 2.50231 11.4992 2.36728 11.3991 2.2075L10.4181 0.643498ZM9.91505 4.7705C9.9769 4.65676 9.99223 4.52347 9.9578 4.39867C9.92338 4.27387 9.84189 4.16728 9.73047 4.10134C9.61906 4.0354 9.48641 4.01525 9.36044 4.04512C9.23447 4.07499 9.125 4.15255 9.05505 4.2615L6.44005 8.6875L4.86105 7.1755C4.81421 7.1274 4.75816 7.08923 4.69624 7.06326C4.63433 7.03729 4.56782 7.02406 4.50068 7.02435C4.43354 7.02465 4.36715 7.03846 4.30546 7.06496C4.24377 7.09147 4.18806 7.13013 4.14164 7.17863C4.09521 7.22714 4.05903 7.2845 4.03526 7.34729C4.01148 7.41008 4.0006 7.47701 4.00325 7.5441C4.0059 7.61119 4.02204 7.67705 4.05069 7.73777C4.07935 7.79849 4.11995 7.85281 4.17005 7.8975L6.20405 9.8465C6.25849 9.89855 6.32399 9.93763 6.39565 9.96082C6.46731 9.98402 6.54328 9.99072 6.6179 9.98043C6.69251 9.97014 6.76384 9.94313 6.82655 9.90141C6.88926 9.85969 6.94173 9.80434 6.98005 9.7395L9.91505 4.7705Z" fill="url(#paint0_linear_1232_5920)"/>
<defs>
<linearGradient id="paint0_linear_1232_5920" x1="0.0563965" y1="7.00041" x2="13.9448" y2="7.00041" gradientUnits="userSpaceOnUse">
<stop stop-color="#F09FFD"/>
<stop offset="1" stop-color="#1494F1"/>
</linearGradient>
</defs>
</svg>
