<svg width="21" height="21" viewBox="0 0 21 21" fill="none" xmlns="http://www.w3.org/2000/svg">
<path d="M17.651 17.6509L14.0006 14.0005M14.0006 14.0005C14.625 13.3761 15.1203 12.6348 15.4582 11.819C15.7962 11.0031 15.9701 10.1287 15.9701 9.24569C15.9701 8.36264 15.7962 7.48824 15.4583 6.67241C15.1203 5.85658 14.625 5.11529 14.0006 4.49088C13.3762 3.86647 12.6349 3.37116 11.8191 3.03324C11.0032 2.69531 10.1288 2.52138 9.2458 2.52138C8.36275 2.52138 7.48834 2.69531 6.67251 3.03324C5.85668 3.37116 5.1154 3.86647 4.49099 4.49088C3.22994 5.75194 2.52148 7.46229 2.52148 9.24569C2.52148 11.0291 3.22994 12.7394 4.49099 14.0005C5.75204 15.2615 7.4624 15.97 9.2458 15.97C11.0292 15.97 12.7395 15.2615 14.0006 14.0005Z" stroke="white" stroke-width="0.775862" stroke-linecap="round" stroke-linejoin="round"/>
</svg>
