<svg width="21" height="21" viewBox="0 0 21 21" fill="none" xmlns="http://www.w3.org/2000/svg">
<path d="M15.6554 9.43534C16.1438 13.9531 18.0644 15.319 18.0644 15.319H2.93506C2.93506 15.319 5.45661 13.5261 5.45661 7.25C5.45661 5.82364 5.98782 4.45528 6.9334 3.44666C7.87898 2.43804 9.16329 1.87069 10.4997 1.87069C10.7838 1.87069 11.064 1.8959 11.3402 1.94634M11.9538 17.8405C11.806 18.0953 11.5939 18.3067 11.3387 18.4537C11.0835 18.6007 10.7942 18.6781 10.4997 18.6781C10.2052 18.6781 9.91588 18.6007 9.66069 18.4537C9.40549 18.3067 9.19339 18.0953 9.04562 17.8405M16.3833 6.91379C17.0521 6.91379 17.6935 6.64813 18.1663 6.17525C18.6392 5.70236 18.9049 5.061 18.9049 4.39224C18.9049 3.72348 18.6392 3.08212 18.1663 2.60923C17.6935 2.13635 17.0521 1.87069 16.3833 1.87069C15.7146 1.87069 15.0732 2.13635 14.6003 2.60923C14.1274 3.08212 13.8618 3.72348 13.8618 4.39224C13.8618 5.061 14.1274 5.70236 14.6003 6.17525C15.0732 6.64813 15.7146 6.91379 16.3833 6.91379Z" stroke="white" stroke-width="1.16379" stroke-linecap="round" stroke-linejoin="round"/>
</svg>
