<svg width="21" height="20" viewBox="0 0 21 20" fill="none" xmlns="http://www.w3.org/2000/svg">
<path fill-rule="evenodd" clip-rule="evenodd" d="M5.75699 5.75873C7.20413 5.75873 8.01699 4.94445 8.01699 3.49873C8.01699 2.05302 7.2027 1.2373 5.75699 1.2373C4.31127 1.2373 3.49556 2.05159 3.49556 3.49873C3.49556 4.94588 4.30984 5.75873 5.75699 5.75873ZM16.2141 6.87731C16.2198 7.01801 16.253 7.15622 16.3121 7.28406C16.3711 7.4119 16.4548 7.52685 16.5582 7.62237C16.6617 7.71788 16.783 7.79207 16.9151 7.84072C17.0473 7.88936 17.1877 7.9115 17.3284 7.90588C17.4691 7.90025 17.6073 7.86696 17.7352 7.80792C17.863 7.74887 17.978 7.66523 18.0735 7.56176C18.169 7.45829 18.2432 7.33702 18.2918 7.20487C18.3405 7.07273 18.3626 6.93229 18.357 6.79159C18.3382 6.32899 18.3148 5.86659 18.287 5.40445C18.2336 4.47779 17.8416 3.60305 17.1855 2.94646C16.5295 2.28986 15.655 1.89717 14.7284 1.84302C14.0151 1.80111 13.307 1.77016 12.6041 1.75016C12.32 1.74202 12.0442 1.84709 11.8375 2.04226C11.6308 2.23743 11.5101 2.50672 11.502 2.79088C11.4938 3.07504 11.5989 3.35079 11.7941 3.55749C11.9893 3.76418 12.2585 3.88487 12.5427 3.89302C13.2237 3.91207 13.9098 3.94207 14.6013 3.98302C15.0044 4.00554 15.3851 4.17573 15.6708 4.46111C15.9564 4.74648 16.1269 5.12705 16.1498 5.53016C16.1765 5.98159 16.1984 6.43064 16.2156 6.87731H16.2141ZM8.20699 18.6544C8.48745 18.6575 8.75793 18.5504 8.96034 18.3563C9.16275 18.1621 9.28095 17.8963 9.28955 17.6159C9.29816 17.3356 9.19648 17.063 9.00636 16.8568C8.81624 16.6506 8.55283 16.5272 8.2727 16.513C7.62984 16.494 6.98175 16.4649 6.32842 16.4259C5.92505 16.4033 5.54413 16.2329 5.25846 15.9473C4.97279 15.6616 4.8024 15.2807 4.77984 14.8773L4.74699 14.2716C4.72989 13.9898 4.60226 13.7261 4.39184 13.5379C4.18141 13.3497 3.9052 13.2521 3.62324 13.2664C3.34127 13.2807 3.07635 13.4057 2.88606 13.6143C2.69576 13.8228 2.59547 14.0981 2.60699 14.3802L2.64127 15.0044C2.69505 15.9311 3.08739 16.8057 3.74372 17.462C4.40005 18.1183 5.27464 18.5107 6.20127 18.5644C6.87556 18.6054 7.54413 18.6354 8.20699 18.6544ZM15.2427 14.833C17.1041 14.833 18.3813 16.133 18.6456 17.9444C18.7027 18.3344 18.3756 18.6559 17.9813 18.6559H12.5027C12.1084 18.6559 11.7813 18.3344 11.8384 17.9444C12.1027 16.1316 13.3798 14.833 15.2427 14.833ZM9.15984 9.83302C8.89699 8.02302 7.61984 6.72445 5.75699 6.72445C3.89413 6.72445 2.61699 8.02445 2.3527 9.83588C2.29556 10.2259 2.6227 10.5473 3.01699 10.5473H8.49699C8.89127 10.5473 9.21699 10.2259 9.15984 9.83588V9.83302ZM17.5027 11.6102C17.5027 13.0573 16.6884 13.8716 15.2413 13.8716C13.7941 13.8716 12.9813 13.0573 12.9813 11.6102C12.9813 10.163 13.7956 9.34873 15.2413 9.34873C16.687 9.34873 17.5027 10.163 17.5027 11.6102Z" fill="#818181"/>
</svg>
