<svg width="20" height="20" viewBox="0 0 20 20" fill="none" xmlns="http://www.w3.org/2000/svg">
<path d="M9.375 10H10.625V16.25H9.375V10Z" fill="#818181"/>
<path d="M3.75 17.5H16.25C16.25 17.1685 16.1183 16.8505 15.8839 16.6161C15.6495 16.3817 15.3315 16.25 15 16.25H5C4.66848 16.25 4.35054 16.3817 4.11612 16.6161C3.8817 16.8505 3.75 17.1685 3.75 17.5ZM5 15H15C15.663 15 16.2989 15.2634 16.7678 15.7322C17.2366 16.2011 17.5 16.837 17.5 17.5V18.75H2.5V17.5C2.5 16.837 2.76339 16.2011 3.23223 15.7322C3.70107 15.2634 4.33696 15 5 15ZM10 10C10.9946 10 11.9484 9.60491 12.6517 8.90165C13.3549 8.19839 13.75 7.24456 13.75 6.25C13.75 5.25544 13.3549 4.30161 12.6517 3.59835C11.9484 2.89509 10.9946 2.5 10 2.5C9.00544 2.5 8.05161 2.89509 7.34835 3.59835C6.64509 4.30161 6.25 5.25544 6.25 6.25C6.25 7.24456 6.64509 8.19839 7.34835 8.90165C8.05161 9.60491 9.00544 10 10 10ZM10 11.25C8.67392 11.25 7.40215 10.7232 6.46447 9.78553C5.52678 8.84785 5 7.57608 5 6.25C5 4.92392 5.52678 3.65215 6.46447 2.71447C7.40215 1.77678 8.67392 1.25 10 1.25C11.3261 1.25 12.5979 1.77678 13.5355 2.71447C14.4732 3.65215 15 4.92392 15 6.25C15 7.57608 14.4732 8.84785 13.5355 9.78553C12.5979 10.7232 11.3261 11.25 10 11.25Z" fill="#818181"/>
</svg>
