<svg width="24" height="24" viewBox="0 0 24 24" fill="none" xmlns="http://www.w3.org/2000/svg">
<path d="M5.99024 4.92914C6.13069 5.06976 6.20958 5.26039 6.20958 5.45914C6.20958 5.65789 6.13069 5.84851 5.99024 5.98914C5.20091 6.77844 4.57478 7.71548 4.1476 8.74677C3.72042 9.77805 3.50055 10.8834 3.50055 11.9996C3.50055 13.1159 3.72042 14.2212 4.1476 15.2525C4.57478 16.2838 5.20091 17.2208 5.99024 18.0101C6.12679 18.1517 6.2023 18.3411 6.2005 18.5378C6.1987 18.7344 6.11973 18.9225 5.98061 19.0615C5.84149 19.2005 5.65334 19.2793 5.45669 19.2809C5.26004 19.2825 5.07063 19.2068 4.92924 19.0701C1.02424 15.1651 1.02424 8.83414 4.92924 4.92914C5.06986 4.78869 5.26049 4.7098 5.45924 4.7098C5.65799 4.7098 5.84961 4.78869 5.99024 4.92914ZM19.0702 4.92914C22.9752 8.83414 22.9752 15.1661 19.0702 19.0711C18.9281 19.2036 18.74 19.2757 18.5457 19.2723C18.3514 19.2689 18.166 19.1902 18.0286 19.0528C17.8912 18.9153 17.8125 18.73 17.8091 18.5357C17.8056 18.3414 17.8778 18.1533 18.0102 18.0111C18.7997 17.2218 19.426 16.2847 19.8532 15.2533C20.2805 14.222 20.5004 13.1165 20.5004 12.0001C20.5004 10.8838 20.2805 9.77832 19.8532 8.74694C19.426 7.71557 18.7997 6.77846 18.0102 5.98914C17.9366 5.92048 17.8774 5.83768 17.8365 5.74568C17.7955 5.65368 17.7734 5.55436 17.7716 5.45366C17.7699 5.35296 17.7884 5.25293 17.8261 5.15954C17.8638 5.06615 17.92 4.98132 17.9912 4.9101C18.0624 4.83888 18.1473 4.78274 18.2406 4.74502C18.334 4.70729 18.4341 4.68877 18.5348 4.69055C18.6355 4.69232 18.7348 4.71437 18.8268 4.75536C18.9188 4.79635 19.0016 4.85545 19.0702 4.92914ZM8.81824 7.75714C8.95869 7.89776 9.03758 8.08839 9.03758 8.28714C9.03758 8.48589 8.95869 8.67651 8.81824 8.81714C8.40022 9.23502 8.06862 9.73116 7.84238 10.2772C7.61614 10.8233 7.4997 11.4086 7.4997 11.9996C7.4997 12.5907 7.61614 13.176 7.84238 13.7221C8.06862 14.2681 8.40022 14.7643 8.81824 15.1821C8.95072 15.3243 9.02284 15.5124 9.01941 15.7067C9.01599 15.901 8.93727 16.0863 8.79986 16.2238C8.66245 16.3612 8.47706 16.4399 8.28276 16.4433C8.08846 16.4467 7.90041 16.3746 7.75824 16.2421C6.63311 15.1169 6.00102 13.5909 6.00102 11.9996C6.00102 10.4084 6.63311 8.88235 7.75824 7.75714C7.89886 7.61669 8.08949 7.5378 8.28824 7.5378C8.48699 7.5378 8.67761 7.61669 8.81824 7.75714ZM16.2432 7.75714C17.3684 8.88235 18.0005 10.4084 18.0005 11.9996C18.0005 13.5909 17.3684 15.1169 16.2432 16.2421C16.1741 16.3138 16.0914 16.371 15.9999 16.4103C15.9084 16.4497 15.81 16.4704 15.7104 16.4713C15.6108 16.4722 15.512 16.4533 15.4199 16.4156C15.3277 16.378 15.2439 16.3223 15.1735 16.2519C15.103 16.1815 15.0473 16.0978 15.0095 16.0057C14.9718 15.9135 14.9527 15.8148 14.9536 15.7152C14.9544 15.6156 14.975 15.5172 15.0143 15.4257C15.0535 15.3341 15.1106 15.2514 15.1822 15.1821C15.6001 14.7643 15.9316 14.2682 16.1577 13.7222C16.3839 13.1763 16.5003 12.5911 16.5003 12.0001C16.5003 11.4092 16.3839 10.824 16.1577 10.2781C15.9316 9.73208 15.6001 9.236 15.1822 8.81814C15.0498 8.67596 14.9776 8.48792 14.9811 8.29362C14.9845 8.09931 15.0632 7.91393 15.2006 7.77652C15.338 7.6391 15.5234 7.56039 15.7177 7.55696C15.912 7.55354 16.1001 7.62566 16.2422 7.75814M12.0002 10.5001C12.3981 10.5001 12.7796 10.6582 13.0609 10.9395C13.3422 11.2208 13.5002 11.6023 13.5002 12.0001C13.5002 12.398 13.3422 12.7795 13.0609 13.0608C12.7796 13.3421 12.3981 13.5001 12.0002 13.5001C11.6024 13.5001 11.2209 13.3421 10.9396 13.0608C10.6583 12.7795 10.5002 12.398 10.5002 12.0001C10.5002 11.6023 10.6583 11.2208 10.9396 10.9395C11.2209 10.6582 11.6024 10.5001 12.0002 10.5001Z" fill="#FF0000"/>
</svg>
