<svg width="20" height="20" viewBox="0 0 20 20" fill="none" xmlns="http://www.w3.org/2000/svg">
<path fill-rule="evenodd" clip-rule="evenodd" d="M7.24714 0C4.97571 0 3.15286 0.64 1.89571 1.89571C0.638572 3.15286 0 4.97714 0 7.24714C0 9.51857 0.64 11.3429 1.89571 12.6C2.81286 13.5171 4.03 14.1043 5.50429 14.3571C6.0093 13.832 6.55375 13.3463 7.13286 12.9043C7.48714 12.64 7.91857 12.3571 8.40143 12.1386C9.03827 11.8375 9.74137 11.7037 10.4443 11.75C11.2268 11.8138 11.969 12.1238 12.5643 12.6357L12.5986 12.6L12.6686 12.5286C12.4769 11.9849 12.4541 11.396 12.6032 10.8391C12.7524 10.2823 13.0665 9.78361 13.5043 9.40857C13.7814 9.17143 14.0786 8.98429 14.38 8.84C14.4562 8.33714 14.4943 7.80667 14.4943 7.24857C14.4943 4.97714 13.8557 3.15429 12.5986 1.89714C11.3429 0.638571 9.51857 0 7.24714 0ZM7.2 4.74429H7.31C7.97429 4.75571 8.21571 4.97 8.28572 5.06857C8.42306 5.26161 8.63146 5.39218 8.86508 5.43157C9.0987 5.47095 9.33839 5.41592 9.53143 5.27857C9.72447 5.14123 9.85504 4.93282 9.89442 4.69921C9.93381 4.46559 9.87877 4.2259 9.74143 4.03286C9.37571 3.51857 8.81571 3.19571 8.14714 3.05C8.13849 2.81953 8.04099 2.60135 7.87507 2.44116C7.70916 2.28097 7.48769 2.1912 7.25706 2.19065C7.02643 2.19009 6.80453 2.2788 6.63785 2.43819C6.47116 2.59758 6.37262 2.81529 6.36286 3.04571C5.9409 3.12669 5.5434 3.30418 5.20143 3.56429C4.93859 3.76935 4.72685 4.03254 4.58284 4.3332C4.43883 4.63386 4.36647 4.96381 4.37143 5.29714C4.37143 6.64857 5.67143 7.41857 7.12857 7.62571C7.76143 7.71714 8.18571 7.85429 8.43286 8.01C8.63 8.13429 8.65857 8.22429 8.65857 8.34429C8.65857 8.42714 8.61572 8.57857 8.38857 8.74143C8.16 8.90429 7.77571 9.04571 7.25571 9.04571C6.70571 9.04571 6.31 8.91714 6.08143 8.77286C5.86 8.63143 5.85286 8.52286 5.85286 8.49286C5.85286 8.25606 5.75879 8.02896 5.59135 7.86151C5.4239 7.69407 5.1968 7.6 4.96 7.6C4.7232 7.6 4.4961 7.69407 4.32865 7.86151C4.16121 8.02896 4.06714 8.25606 4.06714 8.49286C4.06714 9.28857 4.53143 9.90286 5.12143 10.2786C5.48 10.5071 5.90429 10.6643 6.36429 10.75C6.37823 10.9777 6.47878 11.1914 6.6453 11.3472C6.81182 11.5031 7.03168 11.5894 7.25976 11.5883C7.48785 11.5872 7.70688 11.4988 7.87189 11.3413C8.0369 11.1839 8.13539 10.9692 8.14714 10.7414C8.62714 10.6386 9.06429 10.4543 9.42857 10.1929C10.0129 9.77429 10.4429 9.12714 10.4429 8.34429C10.4429 7.5 9.99857 6.88714 9.38571 6.5C8.82143 6.14286 8.09857 5.96143 7.38143 5.85857C6.80714 5.77714 6.47286 5.61571 6.30429 5.48429C6.24961 5.44751 6.20414 5.39863 6.17143 5.34143C6.16428 5.32755 6.15945 5.31259 6.15714 5.29714C6.15714 5.14 6.20714 5.04571 6.30571 4.96857C6.42286 4.87571 6.68714 4.75286 7.2 4.74429ZM14.7429 12.4514L15.5543 13.0286C15.1257 13.4071 14.6843 13.7943 14.2614 14.1571C13.7329 14.61 13.2443 15.02 12.8514 15.33C12.7229 15.4319 12.6086 15.52 12.5086 15.5943L12.4 15.3957L12.3571 15.3171C12.1925 14.9865 11.9984 14.6714 11.7771 14.3757C11.4914 14.0186 11.0171 13.5871 10.2986 13.5286C9.89784 13.5071 9.49823 13.5877 9.13714 13.7629C8.81143 13.9114 8.49429 14.1157 8.2 14.3343C7.58715 14.8084 7.01558 15.3336 6.49143 15.9043C5.76383 16.677 5.08219 17.4917 4.45 18.3443C4.2958 18.583 4.24273 18.8732 4.30247 19.151C4.36222 19.4288 4.52988 19.6715 4.76857 19.8257C5.00727 19.9799 5.29744 20.033 5.57526 19.9732C5.85309 19.9135 6.0958 19.7458 6.25 19.5071C6.28 19.4671 6.46714 19.2157 6.78571 18.8229C7.12 18.4114 7.56571 17.8871 8.04857 17.3757C8.489 16.8957 8.96824 16.4527 9.48143 16.0514C9.66772 15.9084 9.86945 15.7867 10.0829 15.6886L10.1029 15.7129C10.2171 15.8557 10.3229 16.0543 10.4886 16.3671L10.5086 16.4043L10.5214 16.4257C10.6614 16.6886 10.89 17.1186 11.2157 17.4286C11.4014 17.6057 11.6657 17.79 12.0157 17.8714C12.3771 17.9557 12.73 17.9043 13.0414 17.7757C13.2367 17.6891 13.4217 17.5808 13.5929 17.4529C13.7671 17.3314 13.9671 17.1814 14.1786 17.0129C14.6071 16.6757 15.1214 16.2429 15.6586 15.7814C16.0814 15.4186 16.5214 15.0343 16.9471 14.6571L17.39 15.5429C17.4627 15.6886 17.5676 15.8159 17.6969 15.915C17.8261 16.0141 17.9763 16.0824 18.1359 16.1148C18.2956 16.1472 18.4605 16.1427 18.6181 16.1018C18.7758 16.0608 18.922 15.9845 19.0457 15.8786C19.6929 15.3243 19.93 14.4314 19.9857 13.7157C20.0443 12.9543 19.9243 12.0843 19.5571 11.3486C19.4788 11.1915 19.363 11.0561 19.22 10.9543C18.5486 10.4786 17.7086 10.2257 16.9471 10.1686C16.2329 10.1114 15.3129 10.21 14.6657 10.7643C14.5423 10.8702 14.4446 11.0027 14.38 11.1519C14.3154 11.3012 14.2857 11.4631 14.2929 11.6256C14.3002 11.788 14.3444 11.9467 14.4221 12.0895C14.4998 12.2323 14.609 12.3556 14.7414 12.45L14.7429 12.4514Z" fill="#3EB489"/>
</svg>
