<svg width="25" height="24" viewBox="0 0 25 24" fill="none" xmlns="http://www.w3.org/2000/svg">
<path d="M9.50016 7.9999H15.5002C15.7654 7.9999 16.0197 7.89454 16.2073 7.70701C16.3948 7.51947 16.5002 7.26512 16.5002 6.9999C16.5002 6.73468 16.3948 6.48033 16.2073 6.29279C16.0197 6.10526 15.7654 5.9999 15.5002 5.9999H9.50016C9.23494 5.9999 8.98059 6.10526 8.79305 6.29279C8.60551 6.48033 8.50016 6.73468 8.50016 6.9999C8.50016 7.26512 8.60551 7.51947 8.79305 7.70701C8.98059 7.89454 9.23494 7.9999 9.50016 7.9999ZM9.97016 4.4999C9.98489 4.62186 10.044 4.73412 10.1362 4.81527C10.2285 4.89642 10.3473 4.94079 10.4702 4.9399H14.5002C14.6224 4.93866 14.7401 4.89355 14.8319 4.81279C14.9237 4.73203 14.9834 4.62099 15.0002 4.4999C15.22 3.43694 15.6263 2.42128 16.2002 1.4999C16.2531 1.41052 16.275 1.3061 16.2623 1.20297C16.2497 1.09984 16.2032 1.00381 16.1302 0.9299C16.0698 0.850455 15.9872 0.790864 15.8927 0.758787C15.7983 0.726711 15.6964 0.723616 15.6002 0.7499L13.7402 1.5499C13.709 1.56496 13.6748 1.57278 13.6402 1.57278C13.6055 1.57278 13.5713 1.56496 13.5402 1.5499C13.4781 1.52681 13.4278 1.48006 13.4002 1.4199L12.9602 0.3099C12.9217 0.219705 12.8576 0.142796 12.7759 0.0887385C12.6941 0.0346806 12.5982 0.00585938 12.5002 0.00585938C12.4021 0.00585937 12.3062 0.0346806 12.2245 0.0887385C12.1427 0.142796 12.0786 0.219705 12.0402 0.3099L11.6002 1.4199C11.5725 1.48006 11.5222 1.52681 11.4602 1.5499C11.429 1.56496 11.3948 1.57278 11.3602 1.57278C11.3255 1.57278 11.2913 1.56496 11.2602 1.5499L9.40016 0.7499C9.30478 0.711321 9.19982 0.703104 9.0996 0.726369C8.99939 0.749634 8.90878 0.803249 8.84016 0.8799C8.76712 0.953809 8.72064 1.04984 8.70798 1.15297C8.69531 1.2561 8.71718 1.36052 8.77016 1.4499C9.34949 2.38655 9.75594 3.4196 9.97016 4.4999ZM15.9402 9.1199C15.837 9.04066 15.7102 8.9984 15.5802 8.9999H9.42016C9.2901 8.9984 9.16331 9.04066 9.06016 9.1199C6.51016 11.1199 3.66016 14.5199 3.66016 17.5199C3.66016 21.7499 6.02016 23.9999 12.5002 23.9999C18.9802 23.9999 21.3402 21.7499 21.3402 17.5199C21.3402 14.5199 18.5002 11.0699 15.9402 9.1199ZM13.5002 20.1299C13.4419 20.1413 13.3892 20.1723 13.351 20.2178C13.3128 20.2633 13.2913 20.3205 13.2902 20.3799V20.7499C13.2902 20.9488 13.2111 21.1396 13.0705 21.2802C12.9298 21.4209 12.7391 21.4999 12.5402 21.4999C12.3412 21.4999 12.1505 21.4209 12.0098 21.2802C11.8692 21.1396 11.7902 20.9488 11.7902 20.7499V20.4299C11.7902 20.3636 11.7638 20.3 11.7169 20.2531C11.67 20.2062 11.6065 20.1799 11.5402 20.1799H10.9502C10.7512 20.1799 10.5605 20.1009 10.4198 19.9602C10.2792 19.8196 10.2002 19.6288 10.2002 19.4299C10.2002 19.231 10.2792 19.0402 10.4198 18.8996C10.5605 18.7589 10.7512 18.6799 10.9502 18.6799H13.1002C13.2598 18.6854 13.4161 18.6337 13.541 18.5341C13.6658 18.4346 13.751 18.2937 13.7812 18.1368C13.8113 17.98 13.7845 17.8175 13.7054 17.6788C13.6264 17.54 13.5004 17.434 13.3502 17.3799L11.1702 16.5099C10.7308 16.3453 10.3569 16.0422 10.1052 15.6462C9.85338 15.2503 9.73736 14.7832 9.77464 14.3155C9.81192 13.8478 10.0005 13.405 10.3118 13.0539C10.6231 12.7029 11.0403 12.4628 11.5002 12.3699C11.5585 12.3585 11.6111 12.3275 11.6493 12.282C11.6875 12.2365 11.709 12.1793 11.7102 12.1199V11.7499C11.7102 11.551 11.7892 11.3602 11.9298 11.2196C12.0705 11.0789 12.2612 10.9999 12.4602 10.9999C12.6591 10.9999 12.8498 11.0789 12.9905 11.2196C13.1311 11.3602 13.2102 11.551 13.2102 11.7499V12.0699C13.2102 12.1362 13.2365 12.1998 13.2834 12.2467C13.3303 12.2936 13.3939 12.3199 13.4602 12.3199H14.0502C14.2491 12.3199 14.4398 12.3989 14.5805 12.5396C14.7211 12.6802 14.8002 12.871 14.8002 13.0699C14.8002 13.2688 14.7211 13.4596 14.5805 13.6002C14.4398 13.7409 14.2491 13.8199 14.0502 13.8199H11.9402C11.7805 13.8144 11.6242 13.8661 11.4994 13.9657C11.3745 14.0652 11.2893 14.2061 11.2591 14.363C11.229 14.5198 11.2558 14.6823 11.3349 14.821C11.4139 14.9598 11.5399 15.0658 11.6902 15.1199L13.8702 15.9899C14.3094 16.1578 14.6818 16.4645 14.9309 16.8633C15.18 17.2622 15.2922 17.7314 15.2503 18.1998C15.2084 18.6682 15.0149 19.1101 14.699 19.4584C14.3831 19.8068 13.9622 20.0425 13.5002 20.1299Z" fill="white"/>
</svg>
