<svg width="25" height="24" viewBox="0 0 25 24" fill="none" xmlns="http://www.w3.org/2000/svg">
<path d="M6.3 11.3L2.5 22L13.2 18.21M4.5 3H4.51M22.5 8H22.51M15.5 2H15.51M22.5 20H22.51M22.5 2L20.26 2.75C19.6224 2.96239 19.0783 3.38964 18.7208 3.95872C18.3633 4.52781 18.2146 5.20339 18.3 5.87C18.4 6.73 17.73 7.5 16.85 7.5H16.47C15.61 7.5 14.87 8.1 14.71 8.94L14.5 10M22.5 13L21.68 12.67C20.82 12.33 19.86 12.87 19.7 13.78C19.59 14.48 18.98 15 18.27 15H17.5M11.5 2L11.83 2.82C12.17 3.68 11.63 4.64 10.72 4.8C10.02 4.9 9.5 5.52 9.5 6.23V7" stroke="white" stroke-width="2" stroke-linecap="round" stroke-linejoin="round"/>
<path d="M11.5 13.0005C13.43 14.9305 14.33 17.1705 13.5 18.0005C12.67 18.8305 10.43 17.9305 8.50002 16.0005C6.57002 14.0705 5.67002 11.8305 6.50002 11.0005C7.33002 10.1705 9.57002 11.0705 11.5 13.0005Z" stroke="white" stroke-width="2" stroke-linecap="round" stroke-linejoin="round"/>
</svg>
