<svg width="25" height="24" viewBox="0 0 25 24" fill="none" xmlns="http://www.w3.org/2000/svg">
<path d="M12 2C10.5413 2 9.14236 2.57946 8.11091 3.61091C7.07946 4.64236 6.5 6.04131 6.5 7.5C6.5 8.95869 7.07946 10.3576 8.11091 11.3891C9.14236 12.4205 10.5413 13 12 13C13.4587 13 14.8576 12.4205 15.8891 11.3891C16.9205 10.3576 17.5 8.95869 17.5 7.5C17.5 6.04131 16.9205 4.64236 15.8891 3.61091C14.8576 2.57946 13.4587 2 12 2ZM14.882 13.5H22.118L24.199 17.662L18.5 23.995L12.8 17.662L14.882 13.5ZM12.755 14C11.9361 15.173 11.4979 16.5695 11.5 18C11.5 19.487 11.964 20.866 12.755 22H2.5V20C2.5 18.4087 3.13214 16.8826 4.25736 15.7574C5.38258 14.6321 6.9087 14 8.5 14H12.755Z" fill="white"/>
</svg>
