<svg width="24" height="28" viewBox="0 0 24 28" fill="none" xmlns="http://www.w3.org/2000/svg">
<path d="M9.7125 2.20866C10.6446 2.36159 11.2768 3.2317 11.1214 4.14928L10.5964 7.25006H15.6911L16.3071 3.59557C16.4625 2.67799 17.3464 2.05573 18.2786 2.20866C19.2107 2.36159 19.8429 3.2317 19.6875 4.14928L19.1679 7.25006H22.2857C23.2339 7.25006 24 8.00416 24 8.93756C24 9.87096 23.2339 10.6251 22.2857 10.6251H18.5946L17.4536 17.3751H20.5714C21.5196 17.3751 22.2857 18.1292 22.2857 19.0626C22.2857 19.996 21.5196 20.7501 20.5714 20.7501H16.8804L16.2643 24.4046C16.1089 25.3221 15.225 25.9444 14.2929 25.7915C13.3607 25.6385 12.7286 24.7684 12.8839 23.8508L13.4089 20.7553H8.31429L7.69821 24.4098C7.54286 25.3274 6.65893 25.9497 5.72679 25.7967C4.79464 25.6438 4.1625 24.7737 4.31786 23.8561L4.83214 20.7501H1.71429C0.766071 20.7501 0 19.996 0 19.0626C0 18.1292 0.766071 17.3751 1.71429 17.3751H5.40536L6.54643 10.6251H3.42857C2.48036 10.6251 1.71429 9.87096 1.71429 8.93756C1.71429 8.00416 2.48036 7.25006 3.42857 7.25006H7.11964L7.73571 3.59557C7.89107 2.67799 8.775 2.05573 9.70714 2.20866H9.7125ZM10.0232 10.6251L8.88214 17.3751H13.9768L15.1179 10.6251H10.0232Z" fill="white"/>
</svg>
