<svg width="24" height="24" viewBox="0 0 24 24" fill="none" xmlns="http://www.w3.org/2000/svg">
<path fill-rule="evenodd" clip-rule="evenodd" d="M8.21151 0.0381159C7.58236 -0.0441698 6.91379 0.0192588 6.34122 0.110116C5.63494 0.223259 4.94922 0.401544 4.45551 0.538687C3.74236 0.73583 2.97951 1.09069 2.30751 1.41297C1.98179 1.56726 1.74865 1.80726 1.59436 2.00097C1.43322 2.20326 1.30294 2.42097 1.20522 2.61297C0.84865 3.30383 0.714936 4.05297 0.613793 4.61869L0.531507 5.09183C-0.190738 9.13537 -0.1768 13.2761 0.57265 17.3147C0.634364 17.6798 0.711507 18.1375 0.83665 18.5558C0.999507 19.0958 1.27379 19.7095 1.82236 20.1947C2.11208 20.4518 2.62465 20.7655 3.28636 20.6404C3.85551 20.5307 4.45208 20.3198 4.97151 20.1347L5.36236 19.9975C5.68579 19.8855 5.99722 19.7764 6.29665 19.6701C6.97208 19.4301 7.59951 19.2073 8.20636 19.041C8.28894 19.022 8.37492 19.0238 8.45665 19.0461L8.82694 19.1421L8.84408 19.1473L10.7075 19.629C10.3621 18.567 10.2276 17.4477 10.3115 16.3341C10.4121 14.9165 10.8947 13.5525 11.7081 12.3871C12.5216 11.2218 13.6355 10.2984 14.9315 9.71526V3.78726C15.2424 3.75754 15.5407 3.67412 15.8264 3.53697L15.9378 3.48383C16.7418 3.09812 17.4361 2.76554 18.0207 2.6044C18.6527 2.41942 19.2972 2.2802 19.9492 2.18783C20.0658 2.32497 20.1652 2.5204 20.2509 2.80497C20.3384 3.09297 20.3932 3.3964 20.4584 3.76497L20.4978 3.98269C20.8064 5.68497 20.9709 7.41469 20.9915 9.14612C20.9947 9.43028 21.1106 9.70153 21.3138 9.90021C21.517 10.0989 21.7908 10.2087 22.0749 10.2055C22.3591 10.2024 22.6304 10.0864 22.829 9.88324C23.0277 9.68006 23.1375 9.40628 23.1344 9.12212C23.1131 7.27058 22.9365 5.4241 22.6064 3.60212L22.5738 3.41869C22.5086 3.05354 22.4298 2.60269 22.3012 2.18097C22.1389 1.59574 21.8351 1.05941 21.4167 0.619259C21.1509 0.350116 20.6487 -0.0321698 19.9578 0.0312588C19.0355 0.116973 18.0789 0.365544 17.4515 0.538687C16.6715 0.754687 15.8126 1.16612 15.0755 1.52097L14.9315 1.58954L14.9007 1.60497C14.7772 1.66204 14.6378 1.67417 14.5064 1.63926L8.59208 0.108402L8.56636 0.101544C8.44924 0.0747698 8.33079 0.05417 8.21151 0.0398302M8.21151 2.22554L8.06751 2.18783C7.76065 2.11926 7.28065 2.13126 6.67894 2.22726C6.09608 2.32154 5.50294 2.47412 5.02465 2.60612C4.53608 2.74326 3.95494 3.00212 3.28294 3.32269L3.26751 3.33983C3.20748 3.42074 3.15471 3.50679 3.10979 3.59697C2.92122 3.9604 2.83036 4.39754 2.72236 5.00269L2.64008 5.46897C1.95896 9.29204 1.97813 13.207 2.69665 17.0233C2.75494 17.3747 2.80465 17.6627 2.88865 17.9421C2.9398 18.134 3.02391 18.3156 3.13722 18.4787C3.44579 18.3998 3.76808 18.285 4.15379 18.1495L4.66808 17.9695C4.93551 17.8781 5.21094 17.7815 5.49436 17.6798C6.20579 17.4278 6.95151 17.1638 7.63722 16.9753C7.82467 16.9239 8.01733 16.894 8.21151 16.8861V2.22554ZM18.1612 13.3084C17.254 13.3075 16.3801 13.6507 15.7161 14.2689C15.0521 14.8872 14.6473 15.7343 14.5835 16.6393C14.5149 17.5993 14.7344 18.5284 15.2744 19.2381C16.0561 20.2633 16.8447 20.9695 18.1544 21.8404C18.1719 21.853 18.1928 21.8597 18.2144 21.8597C18.2359 21.8597 18.2569 21.853 18.2744 21.8404C19.5841 20.9695 20.3727 20.2633 21.1544 19.2381C21.6944 18.5284 21.9138 17.5993 21.8452 16.6393C21.7814 15.7343 21.3766 14.8872 20.7126 14.2689C20.0486 13.6507 19.1748 13.3075 18.2675 13.3084H18.1612ZM12.4458 16.485C12.5482 15.0394 13.195 13.6864 14.2556 12.6989C15.3163 11.7114 16.712 11.1628 18.1612 11.1638H18.2675C19.7167 11.1628 21.1124 11.7114 22.1731 12.6989C23.2338 13.6864 23.8805 15.0394 23.9829 16.485C24.0789 17.8461 23.7806 19.3238 22.8584 20.5341C21.9018 21.7907 20.9212 22.653 19.4624 23.6233C19.093 23.8702 18.6587 24.002 18.2144 24.002C17.7701 24.002 17.3357 23.8702 16.9664 23.6233C15.5092 22.653 14.5269 21.7907 13.5704 20.5341C12.6481 19.3238 12.3498 17.8461 12.4458 16.485ZM19.9321 16.677C19.9321 17.7741 19.3149 18.3913 18.2178 18.3913C17.1206 18.3913 16.5035 17.7741 16.5035 16.677C16.5035 15.5798 17.1206 14.9627 18.2178 14.9627C19.3149 14.9627 19.9321 15.5798 19.9321 16.677Z" fill="white"/>
</svg>
