<svg width="19" height="18" viewBox="0 0 19 18" fill="none" xmlns="http://www.w3.org/2000/svg">
<path fill-rule="evenodd" clip-rule="evenodd" d="M0.718 1.092C0.5 1.52 0.5 2.08 0.5 3.2V3.814L18.49 2.178C18.471 1.69 18.42 1.364 18.282 1.092C18.0903 0.715693 17.7843 0.409744 17.408 0.218C16.98 -5.96046e-08 16.42 0 15.3 0H3.7C2.58 0 2.02 -5.96046e-08 1.592 0.218C1.21569 0.409744 0.909744 0.715693 0.718 1.092ZM18.5 4.186L13.635 4.628L16.141 17.995C16.733 17.982 17.104 17.937 17.408 17.782C17.7843 17.5903 18.0903 17.2843 18.282 16.908C18.5 16.48 18.5 15.92 18.5 14.8V4.186ZM14.108 18L11.634 4.81L0.5 5.822V14.8C0.5 15.92 0.5 16.48 0.718 16.908C0.909744 17.2843 1.21569 17.5903 1.592 17.782C2.02 18 2.58 18 3.7 18H14.108ZM10 12.03C10 14.188 7.86 15.704 6.927 16.263C6.79801 16.3404 6.65042 16.3813 6.5 16.3813C6.34958 16.3813 6.20199 16.3404 6.073 16.263C5.14 15.704 3 14.188 3 12.029C3 9.912 4.696 8.5 6.5 8.5C8.367 8.5 10 9.912 10 12.03Z" fill="white"/>
</svg>
