<svg width="26" height="26" viewBox="0 0 26 26" fill="none" xmlns="http://www.w3.org/2000/svg">
<path d="M23.8332 13.221V14.8688C23.8332 19.0938 23.8332 21.2074 22.5635 22.5204C21.2938 23.8334 19.2518 23.8334 15.1665 23.8334H10.8332C6.74792 23.8334 4.70475 23.8334 3.43617 22.5204C2.16759 21.2074 2.1665 19.0949 2.1665 14.8688V13.221C2.1665 10.7413 2.1665 9.50194 2.72984 8.47494C3.291 7.44685 4.31909 6.80985 6.37417 5.53369L8.54084 4.18927C10.7129 2.84052 11.7995 2.16669 12.9998 2.16669C14.2002 2.16669 15.2857 2.84052 17.4588 4.18927L19.6255 5.53369C21.6806 6.80985 22.7087 7.44685 23.2709 8.47494" fill="white"/>
<path d="M9.75049 17.3334C10.6713 18.0159 11.7926 18.4168 13.0005 18.4168C14.2084 18.4168 15.3297 18.0159 16.2505 17.3334" stroke="black" stroke-linecap="round"/>
</svg>
