<svg width="25" height="24" viewBox="0 0 25 24" fill="none" xmlns="http://www.w3.org/2000/svg">
<path d="M2.75 7C2.75 6.27065 3.03973 5.57118 3.55546 5.05546C4.07118 4.53973 4.77065 4.25 5.5 4.25H19.5C20.2293 4.25 20.9288 4.53973 21.4445 5.05546C21.9603 5.57118 22.25 6.27065 22.25 7V10C22.25 10.1989 22.171 10.3897 22.0303 10.5303C21.8897 10.671 21.6989 10.75 21.5 10.75C21.1685 10.75 20.8505 10.8817 20.6161 11.1161C20.3817 11.3505 20.25 11.6685 20.25 12C20.25 12.3315 20.3817 12.6495 20.6161 12.8839C20.8505 13.1183 21.1685 13.25 21.5 13.25C21.6989 13.25 21.8897 13.329 22.0303 13.4697C22.171 13.6103 22.25 13.8011 22.25 14V17C22.25 17.7293 21.9603 18.4288 21.4445 18.9445C20.9288 19.4603 20.2293 19.75 19.5 19.75H5.5C4.77065 19.75 4.07118 19.4603 3.55546 18.9445C3.03973 18.4288 2.75 17.7293 2.75 17V14C2.75 13.8011 2.82902 13.6103 2.96967 13.4697C3.11032 13.329 3.30109 13.25 3.5 13.25C3.83152 13.25 4.14946 13.1183 4.38388 12.8839C4.6183 12.6495 4.75 12.3315 4.75 12C4.75 11.6685 4.6183 11.3505 4.38388 11.1161C4.14946 10.8817 3.83152 10.75 3.5 10.75C3.30109 10.75 3.11032 10.671 2.96967 10.5303C2.82902 10.3897 2.75 10.1989 2.75 10V7ZM13.25 8C13.25 7.80109 13.171 7.61032 13.0303 7.46967C12.8897 7.32902 12.6989 7.25 12.5 7.25C12.3011 7.25 12.1103 7.32902 11.9697 7.46967C11.829 7.61032 11.75 7.80109 11.75 8V8.5C11.75 8.69891 11.829 8.88968 11.9697 9.03033C12.1103 9.17098 12.3011 9.25 12.5 9.25C12.6989 9.25 12.8897 9.17098 13.0303 9.03033C13.171 8.88968 13.25 8.69891 13.25 8.5V8ZM13.25 11.75C13.25 11.5511 13.171 11.3603 13.0303 11.2197C12.8897 11.079 12.6989 11 12.5 11C12.3011 11 12.1103 11.079 11.9697 11.2197C11.829 11.3603 11.75 11.5511 11.75 11.75V12.25C11.75 12.4489 11.829 12.6397 11.9697 12.7803C12.1103 12.921 12.3011 13 12.5 13C12.6989 13 12.8897 12.921 13.0303 12.7803C13.171 12.6397 13.25 12.4489 13.25 12.25V11.75ZM13.25 15.5C13.25 15.3011 13.171 15.1103 13.0303 14.9697C12.8897 14.829 12.6989 14.75 12.5 14.75C12.3011 14.75 12.1103 14.829 11.9697 14.9697C11.829 15.1103 11.75 15.3011 11.75 15.5V16C11.75 16.1989 11.829 16.3897 11.9697 16.5303C12.1103 16.671 12.3011 16.75 12.5 16.75C12.6989 16.75 12.8897 16.671 13.0303 16.5303C13.171 16.3897 13.25 16.1989 13.25 16V15.5Z" fill="white"/>
</svg>
