<svg width="18" height="18" viewBox="0 0 18 18" fill="none" xmlns="http://www.w3.org/2000/svg">
<path fill-rule="evenodd" clip-rule="evenodd" d="M18 1.12444C17.9999 0.932741 17.9508 0.74425 17.8574 0.57685C17.764 0.409449 17.6294 0.268693 17.4663 0.167936C17.3032 0.0671796 17.1171 0.00976466 16.9256 0.00113953C16.7341 -0.00748561 16.5436 0.0329651 16.3721 0.118653L7.60837 4.49955H3.375C2.47989 4.49955 1.62145 4.85514 0.988515 5.4881C0.355579 6.12105 0 6.97953 0 7.87466C0 8.7698 0.355579 9.62827 0.988515 10.2612C1.62145 10.8942 2.47989 11.2498 3.375 11.2498H3.69L5.68237 17.2305C5.75702 17.4546 5.90031 17.6495 6.09193 17.7876C6.28355 17.9258 6.51379 18.0001 6.75 18H7.875C8.17337 18 8.45952 17.8815 8.6705 17.6705C8.88147 17.4595 9 17.1733 9 16.875V11.945L16.3721 15.6307C16.5436 15.7164 16.7341 15.7568 16.9256 15.7482C17.1171 15.7396 17.3032 15.6821 17.4663 15.5814C17.6294 15.4806 17.764 15.3399 17.8574 15.1725C17.9508 15.0051 17.9999 14.8166 18 14.6249V1.12444Z" fill="white"/>
</svg>
