<svg width="26" height="26" viewBox="0 0 26 26" fill="none" xmlns="http://www.w3.org/2000/svg">
<path d="M20.5833 20.5834C21.158 20.5834 21.7091 20.3551 22.1154 19.9488C22.5217 19.5424 22.75 18.9913 22.75 18.4167V15.1667C22.1754 15.1667 21.6243 14.9384 21.2179 14.5321C20.8116 14.1258 20.5833 13.5747 20.5833 13C20.5833 12.4254 20.8116 11.8743 21.2179 11.468C21.6243 11.0616 22.1754 10.8334 22.75 10.8334V7.58335C22.75 7.00872 22.5217 6.45762 22.1154 6.05129C21.7091 5.64496 21.158 5.41669 20.5833 5.41669H5.41667C4.84203 5.41669 4.29093 5.64496 3.8846 6.05129C3.47827 6.45762 3.25 7.00872 3.25 7.58335V10.8334C3.82464 10.8334 4.37574 11.0616 4.78206 11.468C5.18839 11.8743 5.41667 12.4254 5.41667 13C5.41667 13.5747 5.18839 14.1258 4.78206 14.5321C4.37574 14.9384 3.82464 15.1667 3.25 15.1667V18.4167C3.25 18.9913 3.47827 19.5424 3.8846 19.9488C4.29093 20.3551 4.84203 20.5834 5.41667 20.5834H20.5833ZM13 12.7292V13.2709V12.7292ZM13 8.66669V9.20835V8.66669ZM13 16.7917V17.3334V16.7917Z" fill="white"/>
</svg>
