<svg width="24" height="24" viewBox="0 0 24 24" fill="none" xmlns="http://www.w3.org/2000/svg">
<path d="M5.75 18.0107L5.35547 17.9248C4.5283 17.746 3.86257 17.4668 3.30859 17.0234H3.30762C2.93069 16.7226 2.63629 16.4285 2.41016 16.0928H2.40918C2.18321 15.7557 2.03533 15.3863 1.93848 14.9424C1.7528 14.0889 1.75 12.9216 1.75 11.1152V10.9316C1.75 9.08798 1.75209 7.67072 1.93652 6.56934C2.11446 5.51137 2.46571 4.71677 3.16406 4.09766L3.30859 3.97656C3.99749 3.42617 4.85779 3.12596 5.98633 2.95996L6.48633 2.89746C7.85557 2.75098 9.62532 2.75 11.9531 2.75H12.0469C14.0841 2.75 15.6937 2.75066 16.9814 2.84961L17.5137 2.89844C18.8934 3.04633 19.9044 3.34678 20.6914 3.97656C21.3869 4.53296 21.7712 5.23634 21.9834 6.16016L22.0635 6.57031C22.2479 7.67066 22.25 9.08789 22.25 10.9316V11.1152C22.25 12.9216 22.2472 14.0889 22.0615 14.9424C21.9646 15.3867 21.8158 15.7558 21.5889 16.0928V16.0938C21.4203 16.3449 21.2116 16.5724 20.959 16.7979L20.6914 17.0234C20.0025 17.5738 19.1422 17.874 18.0137 18.04L17.5137 18.1025C16.1444 18.249 14.3747 18.25 12.0469 18.25H12C10.8106 18.25 9.90919 18.6583 9.02051 19.2354L9.0166 19.2383C8.65836 19.4756 8.30696 19.7231 7.96289 19.9805L7.65918 20.2012C7.1874 20.5428 6.68648 20.8948 6.125 21.2158H6.12402C6.08604 21.2376 6.0428 21.2491 5.99902 21.249C5.95547 21.2489 5.91272 21.2376 5.875 21.2158C5.83709 21.1939 5.8051 21.162 5.7832 21.124C5.76151 21.0863 5.75012 21.0435 5.75 21V18.0107Z" stroke="white"/>
</svg>
