<svg width="54" height="58" viewBox="0 0 54 58" fill="none" xmlns="http://www.w3.org/2000/svg">
<path d="M15.7225 4.97473L15.411 5.71817C15.3858 5.77724 15.3897 5.84446 15.4187 5.90149L15.7863 6.61641C15.8753 6.79158 15.705 6.98508 15.5329 6.90564L14.8267 6.57771C14.7706 6.55124 14.7068 6.55531 14.6526 6.58586L13.9736 6.97286C13.8072 7.06655 13.6234 6.88731 13.6989 6.70604L14.0103 5.96259C14.0355 5.90352 14.0316 5.83631 14.0026 5.77928L13.635 5.06435C13.546 4.88918 13.7163 4.69568 13.8884 4.77512L14.5946 5.10305C14.6507 5.12953 14.7145 5.12545 14.7687 5.0949L15.4477 4.7079C15.6141 4.61421 15.7979 4.79345 15.7225 4.97473Z" fill="#F8931F"/>
<path d="M44.0762 5.16759L44.053 5.83567C44.053 5.88863 44.0724 5.93955 44.1111 5.97418L44.5986 6.40191C44.7166 6.50579 44.6431 6.70947 44.4883 6.70336L43.8538 6.67892C43.8035 6.67892 43.7551 6.69929 43.7222 6.74003L43.3159 7.25331C43.2173 7.37755 43.0238 7.30015 43.0296 7.13721L43.0528 6.46913C43.0528 6.41617 43.0335 6.36525 42.9948 6.33062L42.5073 5.90289C42.3892 5.79901 42.4628 5.59533 42.6175 5.60144L43.2521 5.62588C43.3024 5.62588 43.3508 5.60551 43.3836 5.56477L43.7899 5.05149C43.8886 4.92725 44.082 5.00465 44.0762 5.16759Z" fill="#F8931F"/>
<path d="M36.8677 50.8972L37.2604 51.4227C37.2914 51.4634 37.3397 51.4879 37.39 51.4879L38.0246 51.4818C38.1793 51.4818 38.249 51.6854 38.1271 51.7873L37.628 52.2008C37.5893 52.2333 37.5661 52.2843 37.5661 52.3372L37.5719 53.0053C37.5719 53.1682 37.3784 53.2416 37.2817 53.1133L36.889 52.5878C36.858 52.547 36.8096 52.5226 36.7593 52.5226L36.1248 52.5287C35.97 52.5287 35.9004 52.325 36.0223 52.2232L36.5214 51.8097C36.5601 51.7771 36.5833 51.7262 36.5833 51.6732L36.5775 51.0051C36.5775 50.8422 36.7709 50.7689 36.8677 50.8972Z" fill="#F8931F"/>
<path d="M51.7639 25.0198L52.0502 25.6166C52.0734 25.6634 52.114 25.6981 52.1643 25.7083L52.7873 25.8366C52.9401 25.8671 52.9672 26.0851 52.8298 26.1584L52.263 26.4598C52.2185 26.4843 52.1856 26.5271 52.1759 26.58L52.0541 27.2359C52.025 27.3968 51.82 27.4253 51.7503 27.2807L51.464 26.6839C51.4408 26.637 51.4002 26.6024 51.3499 26.5922L50.7269 26.4639C50.5741 26.4334 50.547 26.2154 50.6843 26.1421L51.2512 25.8406C51.2957 25.8162 51.3286 25.7734 51.3382 25.7205L51.4601 25.0646C51.4891 24.9037 51.6942 24.8752 51.7658 25.0198H51.7639Z" fill="#F8931F"/>
<path d="M3.51555 31.6537L3.09187 32.1507C3.05898 32.1894 3.0435 32.2444 3.05317 32.2953L3.16732 32.9532C3.1944 33.1141 3.01448 33.22 2.89841 33.1121L2.42636 32.666C2.3896 32.6314 2.33737 32.6151 2.289 32.6253L1.66412 32.7454C1.51129 32.7739 1.41069 32.5845 1.51322 32.4623L1.9369 31.9653C1.96979 31.9266 1.98527 31.8716 1.9756 31.8207L1.86145 31.1628C1.83437 31.0019 2.01429 30.896 2.13036 31.0039L2.60241 31.45C2.63917 31.4846 2.6914 31.5009 2.73977 31.4907L3.36465 31.3706C3.51748 31.342 3.61808 31.5315 3.51555 31.6537Z" fill="#F8931F"/>
<path d="M45.791 8.13812L45.7581 9.09135C45.7561 9.16672 45.7871 9.24004 45.8412 9.28689L46.5358 9.89794C46.706 10.0466 46.5996 10.3379 46.3791 10.3297L45.4737 10.2951C45.4021 10.2931 45.3324 10.3257 45.288 10.3827L44.7076 11.1139C44.5663 11.2932 44.2897 11.1811 44.2974 10.9489L44.3303 9.99571C44.3323 9.92034 44.3013 9.84702 44.2471 9.80017L43.5526 9.18912C43.3824 9.04043 43.4888 8.74917 43.7093 8.75731L44.6147 8.79194C44.6863 8.79398 44.7559 8.76139 44.8004 8.70436L45.3808 7.97313C45.522 7.79389 45.7987 7.90592 45.791 8.13812Z" fill="#F8931F"/>
<path d="M35.1099 53.0281L35.6709 53.7757C35.7154 53.8347 35.7831 53.8694 35.8547 53.8694L36.7601 53.8612C36.9806 53.8592 37.0793 54.1525 36.9052 54.2971L36.1952 54.8878C36.1391 54.9346 36.1062 55.0059 36.1062 55.0813L36.1139 56.0345C36.1159 56.2667 35.8373 56.3706 35.6999 56.1873L35.1389 55.4398C35.0944 55.3807 35.0267 55.3461 34.9551 55.3461L34.0497 55.3542C33.8292 55.3562 33.7305 55.0629 33.9046 54.9183L34.6146 54.3276C34.6707 54.2808 34.7036 54.2095 34.7036 54.1342L34.6959 53.1809C34.6939 52.9487 34.9725 52.8448 35.1099 53.0281Z" fill="#F8931F"/>
<path d="M2.91513 34.5799L2.30959 35.2888C2.26123 35.3458 2.24188 35.4211 2.25349 35.4945L2.416 36.4314C2.45469 36.6595 2.19739 36.8123 2.03294 36.6575L1.3597 36.02C1.30553 35.9691 1.23395 35.9487 1.1643 35.9609L0.274383 36.132C0.057706 36.1727 -0.0873898 35.9018 0.0596406 35.7287L0.665174 35.0199C0.713539 34.9629 0.732885 34.8875 0.721278 34.8142L0.55877 33.8772C0.520078 33.6491 0.777382 33.4963 0.941823 33.6511L1.61507 34.2887C1.66924 34.3396 1.74082 34.36 1.81046 34.3477L2.70039 34.1766C2.91706 34.1359 3.06216 34.4068 2.91513 34.5799Z" fill="#F8931F"/>
<path d="M24.6287 28.8836C24.5262 27.7715 25.2981 26.7816 26.3544 26.6737C27.4107 26.5657 28.3509 27.3784 28.4535 28.4905C28.556 29.6026 27.7841 30.5926 26.7278 30.7005C25.6715 30.8085 24.7313 29.9958 24.6287 28.8836Z" fill="#4A2559"/>
<path d="M37.4582 14.6481C40.2172 13.8163 41.8133 10.7872 41.0232 7.8824C40.2332 4.97765 37.3561 3.29721 34.5971 4.12904C31.8381 4.96086 30.242 7.98996 31.0321 10.8947C31.8222 13.7995 34.6993 15.4799 37.4582 14.6481Z" fill="#249EFF"/>
<path d="M48.7506 15.6244C48.3889 15.5939 47.8839 15.6061 47.8839 15.6061C47.8839 15.6061 48.8532 15.2476 49.2536 15.0154C49.6522 14.7832 49.3949 14.4186 49.0408 14.4818C48.6907 14.5429 47.7388 14.7975 47.7388 14.7975C47.7388 14.7975 48.9344 14.0092 49.2478 13.7078C49.5612 13.4063 49.3155 12.8869 48.8125 13.1558C48.3173 13.4206 47.17 14.0316 47.17 14.0316C47.17 14.0316 48.0368 13.3269 48.4488 12.8503C48.8609 12.3736 48.3792 12.0172 48.0174 12.2657C47.6556 12.5121 46.4175 13.5855 46.4175 13.5855C46.9205 12.8584 46.6187 12.3797 46.344 12.4836C46.0693 12.5875 45.6417 13.889 45.0072 14.1966C43.1596 14.5754 41.312 14.9543 39.4645 15.3331C38.4237 15.547 37.4119 15.9585 36.3517 16.0501C34.8253 16.1805 33.1925 15.8098 32.0395 14.6997C31.018 13.7159 30.4763 12.3349 30.041 10.9825C29.5457 9.44263 28.9905 7.92112 28.4585 6.39146C28.2457 5.78244 28.0348 5.17547 27.822 4.56645C27.7214 3.83727 28.5223 2.75164 28.4546 2.45222C28.3869 2.15281 27.8413 2.14873 27.5376 2.98995C27.5376 2.98995 27.7137 1.3116 27.7137 0.857383C27.7137 0.40317 27.1662 0.173008 27.0114 0.796278C26.8566 1.41955 26.7696 2.57036 26.7696 2.57036C26.7696 2.57036 26.6283 1.22605 26.5684 0.643516C26.5084 0.0528345 25.9609 0.118013 25.8913 0.560006C25.8216 1.002 25.8487 2.48481 25.8487 2.48481C25.8487 2.48481 25.5295 1.50713 25.3863 1.16494C25.2432 0.818683 24.8137 0.790168 24.8466 1.26679C24.8795 1.74748 25.1232 2.79848 25.1232 2.79848C25.1232 2.79848 24.8562 2.34834 24.6338 2.04486C24.3977 1.721 24.1404 1.86562 24.2159 2.20984C24.2913 2.5561 24.7053 4.0878 24.8969 5.34656L26.3362 21.7594C26.6786 24.8309 29.8688 26.5581 32.4399 25.0611L45.899 17.2315C45.9261 17.2233 45.9532 17.2131 45.9822 17.2009C47.0869 16.6815 48.532 16.209 48.8493 16.0868C49.1646 15.9646 49.1395 15.659 48.7526 15.6285L48.7506 15.6244Z" fill="#249EFF"/>
<path d="M49.8763 37.0314C52.1537 35.3705 52.7211 32.0802 51.1435 29.6824C49.5659 27.2846 46.4408 26.6872 44.1633 28.3482C41.8858 30.0091 41.3184 33.2994 42.896 35.6972C44.4736 38.095 47.5988 38.6924 49.8763 37.0314Z" fill="#F8C91F"/>
<path d="M45.0605 46.8098C44.9869 46.4493 44.838 45.9604 44.838 45.9604C44.838 45.9604 45.4203 46.8057 45.7376 47.1296C46.0529 47.4534 46.3005 47.1011 46.1458 46.7731C45.9949 46.4493 45.5093 45.5918 45.5093 45.5918C45.5093 45.5918 46.5308 46.5368 46.8848 46.7589C47.2388 46.9809 47.6238 46.598 47.2485 46.1824C46.879 45.773 46.0258 44.8259 46.0258 44.8259C46.0258 44.8259 46.8848 45.4757 47.4187 45.7445C47.9527 46.0134 48.1307 45.4451 47.8134 45.162C47.4961 44.8789 46.2096 43.9684 46.2096 43.9684C46.9873 44.2556 47.3239 43.8299 47.1576 43.5916C46.9912 43.3512 45.7298 43.2983 45.2829 42.7646C44.4394 41.07 43.594 39.3753 42.7505 37.6827C42.2746 36.7275 41.6323 35.8577 41.2589 34.8495C40.7211 33.3993 40.5954 31.7067 41.2512 30.2748C41.8316 29.0079 42.8976 28.0974 43.9635 27.301C45.1804 26.3926 46.3644 25.4312 47.558 24.4902C48.0339 24.1154 48.5099 23.7406 48.9858 23.3658C49.5971 23.0644 50.7753 23.5471 51.0191 23.3964C51.2628 23.2477 51.1158 22.7141 50.2936 22.6509C50.2936 22.6509 51.8181 22.3576 52.2166 22.2313C52.6151 22.105 52.6673 21.5103 52.0754 21.5307C51.4853 21.5531 50.4503 21.7853 50.4503 21.7853C50.4503 21.7853 51.5917 21.2761 52.087 21.0561C52.59 20.8341 52.381 20.3187 51.9728 20.3737C51.5646 20.4287 50.2684 20.8646 50.2684 20.8646C50.2684 20.8646 51.0403 20.2821 51.3015 20.0499C51.5666 19.8136 51.4737 19.3879 51.0616 19.5509C50.6495 19.7158 49.7925 20.2454 49.7925 20.2454C49.7925 20.2454 50.1156 19.8605 50.3207 19.561C50.5393 19.2413 50.3419 19.0315 50.0595 19.2005C49.777 19.3696 48.5447 20.1965 47.4923 20.7302L33.4702 26.6757C30.8662 27.8591 30.2317 31.4439 32.2591 33.5337L42.8647 44.4735C42.8801 44.498 42.8956 44.5224 42.915 44.5469C43.6772 45.4797 44.4917 46.7568 44.6871 47.0298C44.8825 47.3047 45.1417 47.1947 45.0643 46.8098H45.0605Z" fill="#F8C91F"/>
<path d="M33.1528 52.9977C34.8243 50.7026 34.4121 47.4154 32.2322 45.6556C30.0523 43.8958 26.9301 44.3297 25.2586 46.6248C23.587 48.9199 23.9992 52.2071 26.1791 53.9669C28.3591 55.7268 31.4813 55.2928 33.1528 52.9977Z" fill="#F8931F"/>
<path d="M15.9379 52.0348C16.2416 51.8535 16.6363 51.5602 16.6363 51.5602C16.6363 51.5602 16.0501 52.3912 15.8508 52.8027C15.6535 53.2121 16.0424 53.3547 16.2919 53.1041C16.5376 52.8577 17.1644 52.1203 17.1644 52.1203C17.1644 52.1203 16.6169 53.4178 16.5221 53.8354C16.4273 54.2529 16.8858 54.5238 17.149 54.0268C17.4063 53.538 18.006 52.4075 18.006 52.4075C18.006 52.4075 17.6771 53.4565 17.592 54.0676C17.5088 54.6786 18.0718 54.6888 18.2323 54.2875C18.3929 53.8883 18.8301 52.3383 18.8301 52.3383C18.8011 53.1978 19.2848 53.4076 19.4492 53.1714C19.6156 52.933 19.2906 51.6621 19.6369 51.0592C20.9098 49.7169 22.1828 48.3746 23.4558 47.0323C24.1735 46.2746 24.7655 45.3784 25.5606 44.7083C26.7059 43.7429 28.1898 43.1175 29.6698 43.3477C30.9795 43.5514 32.1132 44.3417 33.1443 45.1686C34.3206 46.1117 35.5355 47.0059 36.735 47.9184C37.2128 48.2809 37.6907 48.6435 38.1666 49.0081C38.6173 49.5295 38.5341 50.8433 38.7392 51.0429C38.9462 51.2425 39.3796 50.9369 39.1938 50.0998C39.1938 50.0998 39.9077 51.5317 40.1399 51.8922C40.372 52.2527 40.9215 52.1265 40.728 51.546C40.5345 50.9634 40.018 50.002 40.018 50.002C40.018 50.002 40.8151 50.9899 41.1575 51.4176C41.5057 51.8515 41.9062 51.491 41.7359 51.1019C41.5657 50.7129 40.7899 49.5499 40.7899 49.5499C40.7899 49.5499 41.5405 50.1467 41.8269 50.3381C42.117 50.5316 42.473 50.3137 42.2041 49.9511C41.9333 49.5886 41.2058 48.894 41.2058 48.894C41.2058 48.894 41.6469 49.1018 41.9778 49.2158C42.3299 49.338 42.4595 49.0814 42.2254 48.8492C41.9894 48.617 40.8828 47.6352 40.0896 46.7451L30.5984 34.5364C28.7644 32.2918 25.3556 32.7216 24.0768 35.3593L17.383 49.1608C17.3656 49.1832 17.3482 49.2056 17.3327 49.2321C16.7195 50.2668 15.8141 51.4563 15.6245 51.7313C15.4368 52.0063 15.6109 52.2324 15.934 52.0409L15.9379 52.0348Z" fill="#F8931F"/>
<path d="M13.1641 35.5158C11.7983 33.0065 8.75902 32.1388 6.37558 33.5768C3.99213 35.0148 3.16799 38.2146 4.53383 40.724C5.89966 43.2334 8.93894 44.1011 11.3224 42.6631C13.7058 41.2251 14.53 38.0252 13.1641 35.5158Z" fill="#F94E54"/>
<path d="M1.97792 25.9636C2.24876 26.1937 2.65503 26.4707 2.65503 26.4707C2.65503 26.4707 1.70514 26.2039 1.26792 26.1611C0.834564 26.1184 0.851975 26.5522 1.16345 26.7029C1.47105 26.8516 2.35517 27.1938 2.35517 27.1938C2.35517 27.1938 1.00674 27.1388 0.604345 27.1999C0.201946 27.261 0.130365 27.811 0.666253 27.8843C1.1944 27.9556 2.41321 28.1247 2.41321 28.1247C2.41321 28.1247 1.36658 28.1898 0.795871 28.3344C0.225161 28.4791 0.426361 29.0331 0.838433 29.0433C1.25051 29.0534 2.78078 28.9068 2.78078 28.9068C2.01081 29.196 2.005 29.746 2.27585 29.8213C2.54669 29.8967 3.54882 29.1084 4.21046 29.2245C5.86649 29.9721 7.52058 30.7216 9.17661 31.4691C10.1091 31.8908 11.1209 32.1372 12.0069 32.6688C13.2819 33.4326 14.3846 34.6507 14.727 36.1844C15.0307 37.5409 14.7522 38.9423 14.4059 40.2581C14.0093 41.7572 13.6688 43.2766 13.307 44.7859C13.1638 45.3868 13.0187 45.9877 12.8756 46.5906C12.5835 47.224 11.3917 47.6294 11.2931 47.9043C11.1944 48.1793 11.6239 48.493 12.2933 48.0001C12.2933 48.0001 11.295 49.2283 11.0629 49.5867C10.8307 49.9452 11.1441 50.4381 11.5871 50.0328C12.0282 49.6275 12.686 48.7659 12.686 48.7659C12.686 48.7659 12.1095 49.9106 11.8599 50.4035C11.6065 50.9046 12.0708 51.1633 12.3532 50.8537C12.6357 50.5441 13.3728 49.3545 13.3728 49.3545C13.3728 49.3545 13.1251 50.3098 13.0613 50.6602C12.9975 51.0146 13.3225 51.2834 13.5411 50.8862C13.7616 50.487 14.106 49.5175 14.106 49.5175C14.106 49.5175 14.0867 50.0267 14.106 50.3913C14.1273 50.7803 14.4039 50.8129 14.5219 50.4972C14.6399 50.1815 15.0965 48.7333 15.5898 47.6294L22.8524 33.8298C24.1544 31.2064 22.5138 28.0289 19.7144 27.7539L5.05975 26.3119C5.03461 26.3037 5.00752 26.2935 4.9785 26.2895C3.83902 26.0736 2.45383 25.6275 2.14043 25.544C1.82702 25.4625 1.69353 25.7171 1.98179 25.9615L1.97792 25.9636Z" fill="#F94E54"/>
<path d="M13.6378 19.242C16.193 18.3736 17.5958 15.4888 16.7709 12.7986C15.9461 10.1084 13.2061 8.6315 10.6509 9.4999C8.09566 10.3683 6.69291 13.2531 7.51772 15.9433C8.34254 18.6336 11.0826 20.1104 13.6378 19.242Z" fill="#3EB489"/>
<path d="M20.7821 3.95142C20.6621 4.2875 20.5402 4.76616 20.5402 4.76616C20.5402 4.76616 20.4861 3.75589 20.3913 3.31593C20.2965 2.87801 19.9192 3.02874 19.8805 3.37907C19.8419 3.72534 19.8109 4.69283 19.8109 4.69283C19.8109 4.69283 19.4491 3.35871 19.2731 2.98189C19.097 2.60711 18.5902 2.70488 18.6888 3.25075C18.7856 3.78848 19.008 5.03298 19.008 5.03298C19.008 5.03298 18.6327 4.02882 18.3309 3.51554C18.0311 3.00226 17.6016 3.36482 17.7196 3.77218C17.8376 4.17955 18.4315 5.62977 18.4315 5.62977C17.9421 4.96577 17.4545 5.12668 17.472 5.41387C17.4894 5.70106 18.4896 6.44247 18.5863 7.12277C18.4296 8.97018 18.2729 10.8155 18.1162 12.663C18.0272 13.7038 18.1162 14.767 17.9188 15.7956C17.6345 17.2743 16.8935 18.7225 15.6457 19.525C14.541 20.2359 13.2197 20.3887 11.9544 20.4498C10.5112 20.519 9.068 20.6473 7.62478 20.7533C7.0502 20.796 6.47562 20.8388 5.90104 20.8795C5.25295 20.7858 4.53327 19.745 4.26049 19.7308C3.98771 19.7165 3.84261 20.2318 4.48104 20.739C4.48104 20.739 3.09392 20.1361 2.70506 20.018C2.31814 19.8998 1.97765 20.3581 2.47097 20.6657C2.96237 20.9753 3.92193 21.3562 3.92193 21.3562C3.92193 21.3562 2.73795 21.1403 2.22528 21.0466C1.70487 20.9508 1.61975 21.4845 1.97765 21.6658C2.33749 21.847 3.61046 22.2076 3.61046 22.2076C3.61046 22.2076 2.69152 22.2564 2.36264 22.3012C2.02988 22.3461 1.89253 22.7453 2.3104 22.839C2.72828 22.9327 3.68978 22.9734 3.68978 22.9734C3.68978 22.9734 3.23515 23.1099 2.91787 23.2402C2.58125 23.3808 2.63542 23.6598 2.95076 23.6781C3.2661 23.6965 4.6803 23.7026 5.80431 23.8492L20.1901 26.7517C22.9005 27.2263 25.2046 24.6558 24.5952 21.8348L21.4089 7.0637C21.4089 7.03519 21.4089 7.00667 21.405 6.97612C21.2483 5.79476 21.2212 4.30583 21.1999 3.97383C21.1767 3.64183 20.9117 3.58887 20.784 3.94531L20.7821 3.95142Z" fill="#3EB489"/>
</svg>
