<svg width="19" height="19" viewBox="0 0 19 19" fill="none" xmlns="http://www.w3.org/2000/svg">
<path d="M8 0C5.8 0 4 1.8 4 4C4 6.2 5.8 8 8 8C10.2 8 12 6.2 12 4C12 1.8 10.2 0 8 0ZM8 10C3.6 10 0 11.8 0 14V16H9.5C9.2 15.2 9 14.4 9 13.5C9 12.3 9.3 11.2 9.9 10.1C9.3 10.1 8.7 10 8 10ZM15 16C13.6 16 12.5 14.9 12.5 13.5C12.5 13.1 12.6 12.7 12.8 12.4L11.7 11.3C11.3 11.9 11 12.7 11 13.5C11 15.7 12.8 17.5 15 17.5V19L17.2 16.8L15 14.5V16ZM15 9.5V8L12.8 10.2L15 12.4V11C16.4 11 17.5 12.1 17.5 13.5C17.5 13.9 17.4 14.3 17.2 14.6L18.3 15.7C18.7 15.1 19 14.3 19 13.5C19 11.3 17.2 9.5 15 9.5Z" fill="white"/>
</svg>
