<svg width="17" height="20" viewBox="0 0 17 20" fill="none" xmlns="http://www.w3.org/2000/svg">
<path d="M9.5 7H15L9.5 1.5V7ZM2.5 0H10.5L16.5 6V18C16.5 18.5304 16.2893 19.0391 15.9142 19.4142C15.5391 19.7893 15.0304 20 14.5 20H2.5C1.96957 20 1.46086 19.7893 1.08579 19.4142C0.710714 19.0391 0.5 18.5304 0.5 18V2C0.5 1.46957 0.710714 0.960859 1.08579 0.585786C1.46086 0.210714 1.96957 0 2.5 0ZM7.43 10.44C7.84 11.34 8.36 12.08 8.96 12.59L9.37 12.91C8.5 13.07 7.3 13.35 6.03 13.84L5.92 13.88L6.42 12.84C6.87 11.97 7.2 11.18 7.43 10.44ZM13.91 14.25C14.09 14.07 14.18 13.84 14.19 13.59C14.22 13.39 14.17 13.2 14.07 13.04C13.78 12.57 13.03 12.35 11.79 12.35L10.5 12.42L9.63 11.84C9 11.32 8.43 10.41 8.03 9.28L8.07 9.14C8.4 7.81 8.71 6.2 8.05 5.54C7.96927 5.46161 7.87378 5.40003 7.76907 5.35883C7.66435 5.31763 7.5525 5.29764 7.44 5.3H7.2C6.83 5.3 6.5 5.69 6.41 6.07C6.04 7.4 6.26 8.13 6.63 9.34V9.35C6.38 10.23 6.06 11.25 5.55 12.28L4.59 14.08L3.7 14.57C2.5 15.32 1.93 16.16 1.82 16.69C1.78 16.88 1.8 17.05 1.87 17.23L1.9 17.28L2.38 17.59L2.82 17.7C3.63 17.7 4.55 16.75 5.79 14.63L5.97 14.56C7 14.23 8.28 14 10 13.81C11.03 14.32 12.24 14.55 13 14.55C13.44 14.55 13.74 14.44 13.91 14.25ZM13.5 13.54L13.59 13.65C13.58 13.75 13.55 13.76 13.5 13.78H13.46L13.27 13.8C12.81 13.8 12.1 13.61 11.37 13.29C11.46 13.19 11.5 13.19 11.6 13.19C13 13.19 13.4 13.44 13.5 13.54ZM4.33 15C3.68 16.19 3.09 16.85 2.64 17C2.69 16.62 3.14 15.96 3.85 15.31L4.33 15ZM7.35 8.09C7.12 7.19 7.11 6.46 7.28 6.04L7.35 5.92L7.5 5.97C7.67 6.21 7.69 6.53 7.59 7.07L7.56 7.23L7.4 8.05L7.35 8.09Z" fill="#EF5350"/>
</svg>
