<svg width="24" height="24" viewBox="0 0 24 24" fill="none" xmlns="http://www.w3.org/2000/svg">
<path d="M11.9999 5.71875C16.1291 5.71875 19.4764 9.06609 19.4764 13.1953V18.6562C19.4764 18.8552 19.3974 19.0459 19.2567 19.1866C19.1161 19.3272 18.9253 19.4062 18.7264 19.4062H5.27329C5.07438 19.4062 4.88361 19.3272 4.74296 19.1866C4.60231 19.0459 4.52329 18.8552 4.52329 18.6562V13.1953C4.52329 9.06609 7.87064 5.71875 11.9999 5.71875ZM11.3436 1.59375H12.6561C12.7058 1.59375 12.7535 1.6135 12.7887 1.64867C12.8238 1.68383 12.8436 1.73152 12.8436 1.78125V4.03125C12.8436 4.08098 12.8238 4.12867 12.7887 4.16383C12.7535 4.199 12.7058 4.21875 12.6561 4.21875H11.3436C11.2939 4.21875 11.2462 4.199 11.211 4.16383C11.1759 4.12867 11.1561 4.08098 11.1561 4.03125V1.78125C11.1561 1.73152 11.1759 1.68383 11.211 1.64867C11.2462 1.6135 11.2939 1.59375 11.3436 1.59375ZM4.15415 4.49203C4.17157 4.4746 4.19224 4.46077 4.21501 4.45133C4.23777 4.4419 4.26217 4.43704 4.28681 4.43704C4.31145 4.43704 4.33585 4.4419 4.35861 4.45133C4.38137 4.46077 4.40205 4.4746 4.41946 4.49203L6.0104 6.08297C6.04554 6.11813 6.06528 6.1658 6.06528 6.21551C6.06528 6.26521 6.04554 6.31289 6.0104 6.34805L5.08228 7.27617C5.04712 7.31131 4.99944 7.33105 4.94974 7.33105C4.90003 7.33105 4.85236 7.31131 4.8172 7.27617L3.22626 5.68523C3.19112 5.65007 3.17139 5.6024 3.17139 5.5527C3.17139 5.50299 3.19112 5.45532 3.22626 5.42016L4.15439 4.49203H4.15415ZM19.8479 4.49203L20.776 5.42016C20.8111 5.45531 20.8308 5.50293 20.8308 5.55258C20.8308 5.60223 20.8111 5.64985 20.776 5.685L19.1851 7.27641C19.1677 7.29384 19.147 7.30767 19.1242 7.3171C19.1015 7.32654 19.0771 7.3314 19.0524 7.3314C19.0278 7.3314 19.0034 7.32654 18.9806 7.3171C18.9579 7.30767 18.9372 7.29384 18.9198 7.27641L17.9917 6.34828C17.9742 6.33087 17.9604 6.31019 17.951 6.28743C17.9415 6.26466 17.9367 6.24027 17.9367 6.21563C17.9367 6.19098 17.9415 6.16659 17.951 6.14382C17.9604 6.12106 17.9742 6.10038 17.9917 6.08297L19.5828 4.49203C19.618 4.45689 19.6657 4.43716 19.7154 4.43716C19.7651 4.43716 19.8127 4.45689 19.8479 4.49203ZM4.49985 20.9062H19.4999C19.6988 20.9062 19.8895 20.9853 20.0302 21.1259C20.1708 21.2666 20.2499 21.4573 20.2499 21.6562V22.2188C20.2499 22.2685 20.2301 22.3162 20.1949 22.3513C20.1598 22.3865 20.1121 22.4062 20.0624 22.4062H3.93735C3.88763 22.4062 3.83993 22.3865 3.80477 22.3513C3.76961 22.3162 3.74985 22.2685 3.74985 22.2188V21.6562C3.74985 21.4573 3.82887 21.2666 3.96952 21.1259C4.11018 20.9853 4.30094 20.9062 4.49985 20.9062ZM7.9686 13.4766V19.4062H9.4686V13.4766H7.9686Z" fill="white"/>
</svg>
