<svg width="24" height="17" viewBox="0 0 24 17" fill="none" xmlns="http://www.w3.org/2000/svg">
<path d="M22.4 16.5H1.6C1.17565 16.5 0.768687 16.3314 0.468629 16.0314C0.168571 15.7313 0 15.3243 0 14.9L0 2.1C0 1.67565 0.168571 1.26869 0.468629 0.968629C0.768687 0.668571 1.17565 0.5 1.6 0.5L22.4 0.5C22.8243 0.5 23.2313 0.668571 23.5314 0.968629C23.8314 1.26869 24 1.67565 24 2.1V14.9C24 15.3243 23.8314 15.7313 23.5314 16.0314C23.2313 16.3314 22.8243 16.5 22.4 16.5ZM18.5287 11.76V12.5C18.6347 12.5147 18.7567 12.5233 18.8807 12.5233H18.8913C19.8207 12.5233 20.2613 12.162 20.6413 11.092L22.3173 6.392H21.348L20.224 10.0227H20.204L19.08 6.392H18.0827L19.6993 10.8673L19.6127 11.1393C19.5831 11.3277 19.4838 11.498 19.3345 11.6165C19.1852 11.7351 18.9968 11.7932 18.8067 11.7793H18.8093C18.7158 11.7753 18.6225 11.7689 18.5293 11.76H18.5287ZM3.80867 5.86933H3.79133C3.51069 5.87711 3.23684 5.9574 2.99641 6.10238C2.75599 6.24735 2.55719 6.45209 2.41933 6.69667L2.41533 6.70467C1.85267 7.67267 2.21067 9.154 2.83333 10.056C3.12533 10.4827 3.44533 10.9 3.86733 10.9H3.89C4.06667 10.8887 4.23 10.8427 4.37733 10.7687L4.37 10.772C4.548 10.6827 4.75733 10.63 4.97867 10.628C5.19267 10.6293 5.39533 10.6813 5.57333 10.772L5.566 10.7687C5.70933 10.8433 5.878 10.8887 6.05733 10.8927H6.07667C6.54667 10.884 6.84133 10.4527 7.102 10.0727C7.288 9.80333 7.442 9.49333 7.55 9.162L7.55733 9.13667V9.13L7.54533 9.12467C7.28507 9.00803 7.06384 8.81899 6.90804 8.5801C6.75225 8.3412 6.66846 8.06254 6.66667 7.77733V7.77667C6.66885 7.52479 6.73442 7.27752 6.85734 7.05766C6.98026 6.8378 7.15657 6.65244 7.37 6.51867L7.376 6.51533L7.388 6.50733C7.25111 6.30869 7.06928 6.14515 6.8573 6.03001C6.64531 5.91487 6.40915 5.85136 6.168 5.84467H6.09533C5.8093 5.85848 5.52872 5.928 5.26933 6.04933L5.28333 6.04333C5.16073 6.10194 5.0295 6.14043 4.89467 6.15733L4.88867 6.158C4.74364 6.14211 4.60246 6.10129 4.47133 6.03733L4.47867 6.04067C4.27025 5.94099 4.04458 5.88237 3.814 5.868H3.80867V5.86933ZM15.884 7.08C16.4707 7.08 16.7947 7.35467 16.7947 7.85267V8.192L15.604 8.26267C14.4873 8.33 13.8973 8.78267 13.8973 9.57133C13.8993 9.76108 13.9413 9.94828 14.0206 10.1207C14.0999 10.2931 14.2147 10.4468 14.3574 10.5718C14.5002 10.6968 14.6678 10.7902 14.8492 10.8459C15.0306 10.9017 15.2217 10.9185 15.41 10.8953L15.4033 10.896L15.4467 10.8967C16.026 10.8967 16.5327 10.5847 16.8073 10.1187L16.8113 10.1113H16.8313V10.846H17.7147V7.78867C17.7147 6.902 17.0073 6.33 15.9127 6.33C14.9033 6.33 14.1527 6.90867 14.1227 7.70533H14.9827C15.033 7.50938 15.1523 7.33816 15.3188 7.22316C15.4852 7.10815 15.6876 7.05708 15.8887 7.07933L15.8847 7.07867L15.884 7.08ZM9.33333 4.70267V10.8467H10.2873V8.74533H11.6053C11.8769 8.75967 12.1484 8.71715 12.4026 8.62049C12.6568 8.52384 12.888 8.37517 13.0814 8.18402C13.2748 7.99287 13.4262 7.76344 13.5258 7.51042C13.6254 7.2574 13.6711 6.98637 13.66 6.71467V6.71867C13.6718 6.44986 13.6274 6.18154 13.5296 5.93088C13.4318 5.68022 13.2828 5.45274 13.092 5.26298C12.9012 5.07322 12.673 4.92537 12.4218 4.82889C12.1706 4.73241 11.9021 4.68942 11.6333 4.70267H11.638H9.33333ZM6.16867 4.23333C5.78764 4.26979 5.43516 4.45116 5.184 4.74L5.18267 4.742C5.05742 4.88173 4.96155 5.0452 4.90073 5.22272C4.83992 5.40023 4.81541 5.58816 4.82867 5.77533V5.77133C4.85133 5.77133 4.87533 5.774 4.902 5.774C5.07964 5.76435 5.25326 5.7174 5.41154 5.63619C5.56982 5.55498 5.70923 5.44134 5.82067 5.30267L5.82267 5.3C6.07439 5.00199 6.1989 4.61698 6.16933 4.228V4.23267L6.16867 4.23333ZM15.6593 10.1673C15.154 10.1673 14.8267 9.924 14.8267 9.548C14.8267 9.16 15.14 8.93667 15.7333 8.90133L16.7933 8.83467V9.182C16.7874 9.3229 16.7528 9.4611 16.6915 9.58809C16.6301 9.71509 16.5435 9.82819 16.4368 9.92043C16.3301 10.0127 16.2057 10.0821 16.0712 10.1245C15.9367 10.1668 15.7949 10.1812 15.6547 10.1667L15.6593 10.1673ZM11.3807 7.94733H10.2847V5.50667H11.3847C11.5541 5.48347 11.7265 5.49841 11.8895 5.5504C12.0524 5.60239 12.2016 5.69012 12.3262 5.80717C12.4509 5.92423 12.5478 6.06765 12.61 6.22696C12.6721 6.38628 12.6978 6.55746 12.6853 6.728V6.724C12.6975 6.89544 12.6711 7.06742 12.6082 7.22735C12.5453 7.38728 12.4473 7.5311 12.3216 7.64827C12.1959 7.76544 12.0455 7.85299 11.8815 7.90451C11.7176 7.95602 11.5442 7.9702 11.374 7.946L11.3807 7.94733Z" fill="white"/>
</svg>
