<svg width="12" height="12" viewBox="0 0 12 12" fill="none" xmlns="http://www.w3.org/2000/svg">
<path fill-rule="evenodd" clip-rule="evenodd" d="M4.70367 11.25H7.296C9.11659 11.25 10.0272 11.25 10.6811 10.8213C10.9633 10.6364 11.2063 10.3978 11.3963 10.1189C11.8332 9.47728 11.8332 8.58303 11.8332 6.79569C11.8332 5.00836 11.8332 4.11411 11.3963 3.47244C11.2063 3.19361 10.9633 2.95494 10.6811 2.77011C10.2611 2.49419 9.73492 2.39561 8.92934 2.36061C8.54492 2.36061 8.21417 2.07478 8.13892 1.70436C8.08141 1.43303 7.93199 1.18988 7.71592 1.016C7.49984 0.842115 7.23035 0.748166 6.953 0.750027H5.04667C4.47034 0.750027 3.97392 1.14961 3.86075 1.70436C3.7855 2.07478 3.45475 2.36061 3.07034 2.36061C2.26534 2.39561 1.73917 2.49478 1.31859 2.77011C1.03657 2.955 0.793747 3.19366 0.604004 3.47244C0.166504 4.11411 0.166504 5.00778 0.166504 6.79569C0.166504 8.58361 0.166504 9.47669 0.603421 10.1189C0.792421 10.3966 1.03509 10.6352 1.31859 10.8213C1.9725 11.25 2.88309 11.25 4.70367 11.25ZM5.99984 4.40928C4.65759 4.40928 3.56909 5.47736 3.56909 6.79511C3.56909 8.11286 4.65817 9.18269 5.99984 9.18269C7.3415 9.18269 8.43059 8.11403 8.43059 6.79628C8.43059 5.47853 7.3415 4.40928 5.99984 4.40928ZM5.99984 5.36361C5.19484 5.36361 4.5415 6.00469 4.5415 6.79569C4.5415 7.58611 5.19484 8.22719 5.99984 8.22719C6.80484 8.22719 7.45817 7.58611 7.45817 6.79569C7.45817 6.00528 6.80484 5.36361 5.99984 5.36361ZM8.75434 4.88644C8.75434 4.62278 8.97192 4.40928 9.24084 4.40928H9.88834C10.1567 4.40928 10.3748 4.62278 10.3748 4.88644C10.3736 5.01413 10.3217 5.13611 10.2306 5.22558C10.1395 5.31505 10.0166 5.3647 9.88892 5.36361H9.24084C9.17756 5.36423 9.11478 5.35237 9.05609 5.32872C8.99739 5.30508 8.94393 5.2701 8.89876 5.22579C8.85358 5.18148 8.81757 5.12871 8.79279 5.07048C8.76801 5.01226 8.75495 4.94972 8.75434 4.88644Z" fill="white"/>
</svg>
