<svg width="24" height="25" viewBox="0 0 24 25" fill="none" xmlns="http://www.w3.org/2000/svg">
<mask id="mask0_1569_18853" style="mask-type:luminance" maskUnits="userSpaceOnUse" x="1" y="4" width="21" height="17">
<path d="M13.9998 4.5H9.99976C6.22876 4.5 4.34276 4.5 3.17176 5.672C2.32776 6.515 2.09176 7.729 2.02576 9.75H21.9738C21.9078 7.729 21.6718 6.515 20.8278 5.672C19.6568 4.5 17.7708 4.5 13.9998 4.5ZM9.99976 20.5H13.9998C17.7708 20.5 19.6568 20.5 20.8278 19.328C21.9988 18.156 21.9998 16.271 21.9998 12.5C21.9998 12.0587 21.9991 11.642 21.9978 11.25H2.00176C1.99976 11.642 1.9991 12.0587 1.99976 12.5C1.99976 16.271 1.99976 18.157 3.17176 19.328C4.34376 20.499 6.22876 20.5 9.99976 20.5Z" fill="white"/>
<path fill-rule="evenodd" clip-rule="evenodd" d="M5.25 16.5C5.25 16.3011 5.32902 16.1103 5.46967 15.9697C5.61032 15.829 5.80109 15.75 6 15.75H10C10.1989 15.75 10.3897 15.829 10.5303 15.9697C10.671 16.1103 10.75 16.3011 10.75 16.5C10.75 16.6989 10.671 16.8897 10.5303 17.0303C10.3897 17.171 10.1989 17.25 10 17.25H6C5.80109 17.25 5.61032 17.171 5.46967 17.0303C5.32902 16.8897 5.25 16.6989 5.25 16.5ZM11.75 16.5C11.75 16.3011 11.829 16.1103 11.9697 15.9697C12.1103 15.829 12.3011 15.75 12.5 15.75H14C14.1989 15.75 14.3897 15.829 14.5303 15.9697C14.671 16.1103 14.75 16.3011 14.75 16.5C14.75 16.6989 14.671 16.8897 14.5303 17.0303C14.3897 17.171 14.1989 17.25 14 17.25H12.5C12.3011 17.25 12.1103 17.171 11.9697 17.0303C11.829 16.8897 11.75 16.6989 11.75 16.5Z" fill="black"/>
</mask>
<g mask="url(#mask0_1569_18853)">
<path d="M0 0.5H24V24.5H0V0.5Z" fill="white"/>
</g>
</svg>
