<svg width="24" height="24" viewBox="0 0 24 24" fill="none" xmlns="http://www.w3.org/2000/svg">
<path fill-rule="evenodd" clip-rule="evenodd" d="M3.172 5.172C2 6.343 2 8.229 2 12C2 15.771 2 17.657 3.172 18.828C4.344 19.999 6.229 20 10 20H14C17.771 20 19.657 20 20.828 18.828C21.999 17.656 22 15.771 22 12C22 8.229 22 6.343 20.828 5.172C19.656 4.001 17.771 4 14 4H10C6.229 4 4.343 4 3.172 5.172ZM12.75 10C12.75 9.80109 12.671 9.61032 12.5303 9.46967C12.3897 9.32902 12.1989 9.25 12 9.25C11.8011 9.25 11.6103 9.32902 11.4697 9.46967C11.329 9.61032 11.25 9.80109 11.25 10V10.701L10.643 10.351C10.4714 10.2596 10.271 10.2384 10.0841 10.2919C9.89719 10.3454 9.73836 10.4694 9.64109 10.6378C9.54382 10.8061 9.51573 11.0056 9.56272 11.1943C9.60972 11.3829 9.72813 11.546 9.893 11.649L10.5 11.999L9.893 12.35C9.72061 12.4495 9.59479 12.6133 9.54322 12.8055C9.49164 12.9978 9.51854 13.2026 9.618 13.375C9.71746 13.5474 9.88132 13.6732 10.0735 13.7248C10.2658 13.7764 10.4706 13.7495 10.643 13.65L11.25 13.299V14C11.25 14.1989 11.329 14.3897 11.4697 14.5303C11.6103 14.671 11.8011 14.75 12 14.75C12.1989 14.75 12.3897 14.671 12.5303 14.5303C12.671 14.3897 12.75 14.1989 12.75 14V13.3L13.357 13.65C13.5294 13.7495 13.7342 13.7764 13.9265 13.7248C14.1187 13.6732 14.2825 13.5474 14.382 13.375C14.4815 13.2026 14.5084 12.9978 14.4568 12.8055C14.4052 12.6133 14.2794 12.4495 14.107 12.35L13.5 12L14.107 11.65C14.2794 11.5505 14.4052 11.3867 14.4568 11.1945C14.5084 11.0022 14.4815 10.7974 14.382 10.625C14.2825 10.4526 14.1187 10.3268 13.9265 10.2752C13.7342 10.2236 13.5294 10.2505 13.357 10.35L12.75 10.7V10ZM6.733 9.25C6.93191 9.25 7.12268 9.32902 7.26333 9.46967C7.40398 9.61032 7.483 9.80109 7.483 10V10.7L8.089 10.35C8.26139 10.2505 8.46623 10.2236 8.65845 10.2752C8.85068 10.3268 9.01454 10.4526 9.114 10.625C9.21346 10.7974 9.24036 11.0022 9.18878 11.1945C9.13721 11.3867 9.01139 11.5505 8.839 11.65L8.232 12L8.839 12.35C8.92436 12.3992 8.99918 12.4648 9.0592 12.543C9.11922 12.6211 9.16325 12.7104 9.18878 12.8055C9.21432 12.9007 9.22086 13 9.20803 13.0977C9.1952 13.1954 9.16325 13.2896 9.114 13.375C9.06475 13.4604 8.99918 13.5352 8.92102 13.5952C8.84285 13.6552 8.75363 13.6992 8.65845 13.7248C8.56327 13.7503 8.464 13.7569 8.36629 13.744C8.26858 13.7312 8.17436 13.6992 8.089 13.65L7.483 13.3V14C7.483 14.1989 7.40398 14.3897 7.26333 14.5303C7.12268 14.671 6.93191 14.75 6.733 14.75C6.53409 14.75 6.34332 14.671 6.20267 14.5303C6.06202 14.3897 5.983 14.1989 5.983 14V13.299L5.375 13.649C5.2034 13.7404 5.00302 13.7616 4.8161 13.7081C4.62919 13.6546 4.47036 13.5306 4.37309 13.3622C4.27582 13.1939 4.24773 12.9944 4.29472 12.8057C4.34172 12.6171 4.46013 12.454 4.625 12.351L5.232 12L4.625 11.65C4.53964 11.6008 4.46482 11.5352 4.4048 11.457C4.34478 11.3789 4.30075 11.2896 4.27522 11.1945C4.24968 11.0993 4.24314 11 4.25597 10.9023C4.2688 10.8046 4.30075 10.7104 4.35 10.625C4.39925 10.5396 4.46482 10.4648 4.54298 10.4048C4.62115 10.3448 4.71037 10.3008 4.80555 10.2752C4.90073 10.2497 5 10.2431 5.09771 10.256C5.19542 10.2688 5.28964 10.3008 5.375 10.35L5.983 10.701V10C5.983 9.80109 6.06202 9.61032 6.20267 9.46967C6.34332 9.32902 6.53409 9.25 6.733 9.25ZM18.018 10C18.018 9.80109 17.939 9.61032 17.7983 9.46967C17.6577 9.32902 17.4669 9.25 17.268 9.25C17.0691 9.25 16.8783 9.32902 16.7377 9.46967C16.597 9.61032 16.518 9.80109 16.518 10V10.701L15.911 10.351C15.7394 10.2596 15.539 10.2384 15.3521 10.2919C15.1652 10.3454 15.0064 10.4694 14.9091 10.6378C14.8118 10.8061 14.7837 11.0056 14.8307 11.1943C14.8777 11.3829 14.9961 11.546 15.161 11.649L15.768 11.999L15.16 12.35C14.9876 12.4495 14.8618 12.6133 14.8102 12.8055C14.7586 12.9978 14.7855 13.2026 14.885 13.375C14.9845 13.5474 15.1483 13.6732 15.3405 13.7248C15.5328 13.7764 15.7376 13.7495 15.91 13.65L16.518 13.299V14C16.518 14.1989 16.597 14.3897 16.7377 14.5303C16.8783 14.671 17.0691 14.75 17.268 14.75C17.4669 14.75 17.6577 14.671 17.7983 14.5303C17.939 14.3897 18.018 14.1989 18.018 14V13.3L18.625 13.65C18.7974 13.7495 19.0022 13.7764 19.1945 13.7248C19.3867 13.6732 19.5505 13.5474 19.65 13.375C19.7495 13.2026 19.7764 12.9978 19.7248 12.8055C19.6732 12.6133 19.5474 12.4495 19.375 12.35L18.768 12L19.375 11.65C19.5474 11.5505 19.6732 11.3867 19.7248 11.1945C19.7764 11.0022 19.7495 10.7974 19.65 10.625C19.5505 10.4526 19.3867 10.3268 19.1945 10.2752C19.0022 10.2236 18.7974 10.2505 18.625 10.35L18.018 10.7V10Z" fill="white"/>
</svg>
