<svg width="24" height="24" viewBox="0 0 24 24" fill="none" xmlns="http://www.w3.org/2000/svg">
<path d="M4 21V15H20V21H18V17H6V21H4ZM4.5 14C4.08334 14 3.72934 13.8543 3.438 13.563C3.14667 13.2717 3.00067 12.9173 3 12.5C2.99934 12.0827 3.14534 11.7287 3.438 11.438C3.73067 11.1473 4.08467 11.0013 4.5 11C4.91534 10.9987 5.26967 11.1447 5.563 11.438C5.85634 11.7313 6.002 12.0853 6 12.5C5.998 12.9147 5.85234 13.269 5.563 13.563C5.27367 13.857 4.91934 14.0027 4.5 14ZM7 14V5C7 4.45 7.196 3.97933 7.588 3.588C7.98 3.19667 8.45067 3.00067 9 3H15C15.55 3 16.021 3.196 16.413 3.588C16.805 3.98 17.0007 4.45067 17 5V14H7ZM19.5 14C19.0833 14 18.7293 13.8543 18.438 13.563C18.1467 13.2717 18.0007 12.9173 18 12.5C17.9993 12.0827 18.1453 11.7287 18.438 11.438C18.7307 11.1473 19.0847 11.0013 19.5 11C19.9153 10.9987 20.2697 11.1447 20.563 11.438C20.8563 11.7313 21.002 12.0853 21 12.5C20.998 12.9147 20.8523 13.269 20.563 13.563C20.2737 13.857 19.9193 14.0027 19.5 14Z" fill="white"/>
</svg>
