<svg width="16" height="16" viewBox="0 0 16 16" fill="none" xmlns="http://www.w3.org/2000/svg">
<path fill-rule="evenodd" clip-rule="evenodd" d="M2.887 1.172L1.172 2.887C0.594 3.465 0.304 3.754 0.152 4.122C-4.47035e-08 4.49 0 4.898 0 5.716V10.326C0 11.152 2.08616e-07 11.565 0.155 11.936C0.31 12.306 0.605 12.596 1.192 13.175L2.891 14.849C3.467 15.417 3.756 15.701 4.121 15.851C4.485 16 4.889 16 5.699 16H10.343C11.161 16 11.569 16 11.937 15.848C12.305 15.696 12.593 15.407 13.172 14.828L14.828 13.172C15.407 12.593 15.695 12.305 15.848 11.937C16 11.569 16 11.161 16 10.343V5.7C16 4.89 16 4.486 15.85 4.121C15.701 3.757 15.417 3.468 14.849 2.892L13.175 1.193C12.595 0.605 12.305 0.311 11.935 0.156C11.565 0.00100014 11.152 0 10.326 0H5.716C4.898 0 4.49 -4.47035e-08 4.122 0.152C3.754 0.304 3.465 0.594 2.887 1.172ZM4.447 6.106C4.32912 6.04243 4.19968 6.00319 4.06635 5.99061C3.93302 5.97802 3.79852 5.99234 3.67083 6.03272C3.54314 6.0731 3.42486 6.13872 3.32301 6.22569C3.22117 6.31265 3.13782 6.41918 3.07793 6.53897C3.01804 6.65875 2.98282 6.78934 2.97436 6.923C2.9659 7.05666 2.98437 7.19065 3.02868 7.31703C3.07298 7.44341 3.14223 7.5596 3.2323 7.65872C3.32236 7.75783 3.43142 7.83784 3.553 7.894L3.858 8.047L3.606 8.553C3.54243 8.67088 3.50319 8.80032 3.49061 8.93365C3.47802 9.06698 3.49234 9.20148 3.53272 9.32917C3.5731 9.45686 3.63872 9.57514 3.72569 9.67699C3.81265 9.77883 3.91918 9.86217 4.03897 9.92207C4.15875 9.98196 4.28934 10.0172 4.423 10.0256C4.55666 10.0341 4.69065 10.0156 4.81703 9.97132C4.94341 9.92702 5.0596 9.85777 5.15872 9.7677C5.25783 9.67764 5.33784 9.56858 5.394 9.447L5.735 8.767C6.153 8.87433 6.57467 8.952 7 9V10C7 10.2652 7.10536 10.5196 7.29289 10.7071C7.48043 10.8946 7.73478 11 8 11C8.26522 11 8.51957 10.8946 8.70711 10.7071C8.89464 10.5196 9 10.2652 9 10V9C9.42671 8.95228 9.84945 8.87407 10.265 8.766L10.605 9.447C10.7236 9.68437 10.9315 9.86492 11.1832 9.94894C11.4349 10.033 11.7096 10.0136 11.947 9.895C12.1844 9.77645 12.3649 9.56846 12.4489 9.31678C12.533 9.06511 12.5136 8.79037 12.395 8.553L12.142 8.047L12.447 7.894C12.5686 7.83784 12.6776 7.75783 12.7677 7.65872C12.8578 7.5596 12.927 7.44341 12.9713 7.31703C13.0156 7.19065 13.0341 7.05666 13.0256 6.923C13.0172 6.78934 12.982 6.65875 12.9221 6.53897C12.8622 6.41918 12.7788 6.31265 12.677 6.22569C12.5751 6.13872 12.4569 6.0731 12.3292 6.03272C12.2015 5.99234 12.067 5.97802 11.9337 5.99061C11.8003 6.00319 11.6709 6.04243 11.553 6.106L11.13 6.316C10.1581 6.80183 9.08653 7.05476 8 7.05476C6.91347 7.05476 5.84186 6.80183 4.87 6.316L4.447 6.106Z" fill="white"/>
</svg>
