<svg width="16" height="16" viewBox="0 0 16 16" fill="none" xmlns="http://www.w3.org/2000/svg">
<path d="M0 6H16V9.5H0V6Z" fill="#E6E7E8"/>
<path d="M13.5 2.25H2.5C0.84325 2.25 0 3.48125 0 5V6H16V5C16 3.48125 15.1567 2.25 13.5 2.25Z" fill="#FF9933"/>
<path d="M0 10.5C0 12.0187 0.84325 13.25 2.5 13.25H13.5C15.1567 13.25 16 12.0187 16 10.5V9.5H0V10.5Z" fill="#128807"/>
<path fill-rule="evenodd" clip-rule="evenodd" d="M8.07739 6.14648C8.39682 6.14648 8.70906 6.24124 8.97462 6.41875C9.24018 6.59627 9.44711 6.84856 9.56923 7.14372C9.69136 7.43888 9.72318 7.76363 9.66069 8.07688C9.59819 8.39013 9.44417 8.6778 9.21813 8.90349C8.99209 9.12918 8.70418 9.28275 8.39083 9.34477C8.07748 9.40678 7.75278 9.37445 7.45782 9.25187C7.16285 9.12929 6.91087 8.92196 6.73377 8.65613C6.55667 8.3903 6.4624 8.07791 6.46289 7.75848C6.46369 7.33077 6.63412 6.92083 6.9368 6.61862C7.23947 6.31641 7.64967 6.14662 8.07739 6.14648ZM7.00114 6.84523C7.02889 6.87673 7.03389 6.91048 7.01539 6.93873C7.0076 6.95179 6.99548 6.96169 6.98114 6.96673C6.97016 6.97082 6.95835 6.97218 6.94672 6.9707C6.9351 6.96922 6.924 6.96494 6.91439 6.95823C6.87095 7.02047 6.83274 7.08619 6.80014 7.15473C6.83789 7.17948 6.85039 7.21048 6.83789 7.24473C6.8312 7.26217 6.81798 7.27631 6.80104 7.28415C6.7841 7.29199 6.76476 7.29292 6.74714 7.28673C6.72914 7.32273 6.68939 7.47473 6.68889 7.50673C6.70533 7.51021 6.72011 7.5191 6.73089 7.53198C6.742 7.54505 6.74772 7.56185 6.74689 7.57898C6.74214 7.62598 6.71314 7.64598 6.66889 7.64773C6.66189 7.69298 6.66264 7.84448 6.66964 7.87423C6.71631 7.87923 6.74156 7.89965 6.74539 7.93548C6.75089 7.97398 6.73239 7.99898 6.68739 8.01648C6.70073 8.09082 6.72006 8.16373 6.74539 8.23523C6.76303 8.22998 6.78189 8.2306 6.79914 8.23698C6.81589 8.24423 6.82914 8.25673 6.83614 8.27398C6.84231 8.28732 6.84373 8.3014 6.84039 8.31623C6.83804 8.32719 6.83318 8.33745 6.8262 8.34621C6.81922 8.35498 6.8103 8.362 6.80014 8.36673C6.83364 8.43623 6.87064 8.50173 6.91439 8.56323C6.95339 8.54398 6.98739 8.54848 7.01039 8.57598C7.02042 8.58734 7.02617 8.60184 7.02664 8.61698C7.02736 8.62818 7.02536 8.63939 7.02084 8.64966C7.01631 8.65992 7.00939 8.66895 7.00064 8.67598C7.05048 8.73432 7.10423 8.78807 7.16189 8.83723C7.19464 8.80848 7.22864 8.80398 7.25789 8.82448C7.27123 8.83382 7.28014 8.84598 7.28464 8.86098C7.28764 8.87161 7.28825 8.88277 7.28643 8.89366C7.28462 8.90455 7.28042 8.9149 7.27414 8.92398C7.33731 8.96732 7.40289 9.00515 7.47089 9.03748C7.49756 9.00015 7.52739 8.98773 7.56039 9.00023C7.57466 9.00536 7.58703 9.01469 7.59589 9.02698C7.60806 9.04698 7.61039 9.06882 7.60289 9.09248C7.67489 9.11798 7.74739 9.13748 7.82239 9.15073C7.83714 9.10848 7.86264 9.08873 7.89664 9.09123C7.91239 9.09248 7.92664 9.09723 7.93914 9.10798C7.95664 9.12398 7.96473 9.1444 7.96339 9.16923C8.04006 9.1749 8.11573 9.1749 8.19039 9.16923C8.19589 9.12098 8.21514 9.09673 8.25389 9.09123C8.26861 9.08912 8.28362 9.09212 8.29639 9.09973C8.30572 9.10507 8.31374 9.11242 8.31988 9.12124C8.32602 9.13006 8.33013 9.14013 8.33189 9.15073C8.40739 9.1369 8.48056 9.1174 8.55139 9.09223C8.54514 9.04498 8.55664 9.01673 8.58839 9.00198C8.59997 8.99701 8.6126 8.99503 8.62514 8.99623C8.63831 8.99707 8.64973 9.00157 8.65939 9.00973C8.66864 9.01748 8.67639 9.02698 8.68539 9.03673C8.75354 9.00457 8.81893 8.96686 8.88089 8.92398C8.85539 8.88398 8.87039 8.84573 8.89114 8.82873C8.89838 8.82253 8.90678 8.81783 8.91585 8.81491C8.92492 8.81199 8.93448 8.8109 8.94398 8.81172C8.95347 8.81253 8.96271 8.81523 8.97115 8.81965C8.97959 8.82408 8.98707 8.83014 8.99314 8.83748C9.05089 8.78798 9.10514 8.73423 9.15364 8.67648C9.12539 8.64423 9.11989 8.61023 9.14064 8.58098C9.14911 8.56794 9.16197 8.55836 9.17689 8.55398C9.18755 8.55058 9.19885 8.54969 9.20991 8.55138C9.22097 8.55307 9.23149 8.5573 9.24064 8.56373C9.28431 8.5009 9.32239 8.43532 9.35489 8.36698C9.31823 8.34248 9.30531 8.31382 9.31614 8.28098C9.32019 8.26645 9.32899 8.25368 9.34114 8.24473C9.3508 8.23785 9.36196 8.23335 9.37369 8.23161C9.38542 8.22987 9.3974 8.23094 9.40864 8.23473C9.42489 8.19948 9.46539 8.05098 9.46764 8.01498C9.45038 8.01174 9.43481 8.00253 9.42364 7.98898C9.41784 7.98222 9.4135 7.97433 9.41087 7.96582C9.40825 7.9573 9.40741 7.94834 9.40839 7.93948C9.40941 7.92367 9.41596 7.90871 9.42689 7.89723C9.4345 7.88942 9.44372 7.88336 9.45391 7.87947C9.4641 7.87559 9.47501 7.87397 9.48589 7.87473C9.49216 7.79911 9.49216 7.7231 9.48589 7.64748C9.43814 7.64273 9.41539 7.62423 9.40914 7.58648C9.40639 7.57221 9.4085 7.55742 9.41514 7.54448C9.42029 7.5345 9.42769 7.52584 9.43676 7.5192C9.44583 7.51256 9.45631 7.50812 9.46739 7.50623C9.45429 7.43154 9.43481 7.3581 9.40914 7.28673C9.36289 7.29448 9.33439 7.28198 9.31914 7.24998C9.31519 7.24143 9.31297 7.23217 9.31263 7.22275C9.31229 7.21333 9.31383 7.20393 9.31716 7.19512C9.32048 7.1863 9.32553 7.17823 9.33201 7.17138C9.33849 7.16453 9.34627 7.15904 9.35489 7.15523C9.32252 7.0865 9.2843 7.02067 9.24064 6.95848C9.20039 6.97773 9.16764 6.97323 9.14464 6.94573C9.13448 6.93408 9.12881 6.91919 9.12864 6.90373C9.12813 6.89274 9.13022 6.88178 9.13474 6.87175C9.13926 6.86172 9.14607 6.85289 9.15464 6.84598C9.10522 6.78824 9.05148 6.73433 8.99389 6.68473C8.95939 6.71423 8.92589 6.71798 8.89739 6.69748C8.88439 6.68891 8.8749 6.67596 8.87064 6.66098C8.86759 6.65049 8.86694 6.63944 8.86876 6.62866C8.87058 6.61788 8.87481 6.60765 8.88114 6.59873C8.81883 6.55528 8.75302 6.51707 8.68439 6.48448C8.65873 6.52115 8.62956 6.5339 8.59689 6.52273C8.58245 6.51794 8.56981 6.50888 8.56064 6.49673C8.55405 6.48698 8.54984 6.47581 8.54836 6.46412C8.54688 6.45244 8.54818 6.44057 8.55214 6.42948C8.4809 6.40345 8.40743 6.38395 8.33264 6.37123C8.31839 6.41173 8.29264 6.43273 8.25939 6.43073C8.24391 6.42992 8.22907 6.42433 8.21689 6.41473C8.20801 6.40719 8.20108 6.39762 8.19668 6.38682C8.19229 6.37603 8.19056 6.36434 8.19164 6.35273C8.11611 6.34632 8.04016 6.34641 7.96464 6.35298C7.95931 6.39815 7.93998 6.42357 7.90664 6.42923C7.8917 6.43247 7.87609 6.43053 7.86239 6.42373C7.8522 6.41863 7.84336 6.41119 7.83659 6.40202C7.82981 6.39286 7.82529 6.38222 7.82339 6.37098C7.74867 6.38457 7.67518 6.40422 7.60364 6.42973C7.61164 6.47398 7.59914 6.50298 7.56864 6.51873C7.55548 6.52573 7.54123 6.52798 7.52589 6.52548C7.51424 6.52392 7.50319 6.51934 7.49385 6.51219C7.48451 6.50504 7.4772 6.49558 7.47264 6.48473C7.42989 6.50073 7.29389 6.57948 7.27589 6.59923C7.29439 6.63623 7.29014 6.66898 7.26464 6.69248C7.25744 6.69885 7.24903 6.7037 7.23991 6.70675C7.23079 6.7098 7.22116 6.71099 7.21157 6.71024C7.20199 6.7095 7.19265 6.70683 7.18412 6.70241C7.17558 6.69798 7.16803 6.69189 7.16189 6.68448C7.10432 6.73392 7.05058 6.78766 7.00114 6.84523Z" fill="#010088"/>
<path fill-rule="evenodd" clip-rule="evenodd" d="M8.7703 8.95739C8.7673 8.95414 8.7643 8.95189 8.76205 8.94839C8.6167 8.72621 8.47095 8.50429 8.3248 8.28264L8.3148 8.26314C8.2808 8.18389 8.24755 8.10464 8.2128 8.02564C8.21172 8.02154 8.21012 8.01759 8.20805 8.01389C8.19405 8.01914 8.1813 8.02514 8.1663 8.03089L8.1713 8.04364C8.20255 8.12039 8.23255 8.19739 8.2643 8.27414C8.2728 8.29464 8.2763 8.31614 8.2808 8.33764C8.3053 8.45239 8.3283 8.56764 8.35305 8.68264L8.43755 9.09339C8.43809 9.09433 8.43832 9.09543 8.43818 9.09652C8.43805 9.0976 8.43756 9.09861 8.4368 9.09939L8.4333 9.09064C8.3648 8.88089 8.29455 8.67139 8.2258 8.46164C8.21205 8.42064 8.1998 8.38014 8.1848 8.33914C8.1778 8.31864 8.17555 8.29764 8.1723 8.27639C8.16355 8.21689 8.15605 8.15689 8.1463 8.09739C8.1448 8.08322 8.14296 8.06922 8.1408 8.05539L8.13805 8.03839C8.12305 8.03989 8.1093 8.04189 8.0943 8.04364C8.0943 8.04964 8.09463 8.05581 8.0953 8.06214C8.10405 8.13539 8.11155 8.20889 8.12205 8.28189C8.12755 8.32189 8.1248 8.36114 8.12255 8.40114L8.1173 8.50264C8.1128 8.57114 8.1093 8.63939 8.10455 8.70764L8.09705 8.84864L8.08355 9.08789C8.08155 9.11039 8.08105 9.13339 8.0788 9.15539L8.0728 9.07964L8.06505 8.91564L8.05605 8.76939C8.05338 8.71939 8.05055 8.66947 8.04755 8.61964L8.04205 8.52189L8.03355 8.36714C8.031 8.33982 8.03167 8.3123 8.03555 8.28514C8.04055 8.24797 8.04513 8.21056 8.0493 8.17289C8.05413 8.13572 8.05871 8.09881 8.06305 8.06214L8.0643 8.04364L8.02055 8.03789C8.01905 8.04789 8.0173 8.05781 8.0153 8.06764L7.9833 8.29664C7.9803 8.32639 7.96855 8.35389 7.95855 8.38164C7.88155 8.61631 7.80413 8.85081 7.7263 9.08514C7.72455 9.08939 7.7238 9.09339 7.72055 9.09739C7.72038 9.09456 7.7208 9.09189 7.7218 9.08939C7.75396 8.93122 7.78671 8.77314 7.82005 8.61514L7.88505 8.30064L7.89105 8.28339C7.9233 8.20414 7.9543 8.12414 7.9873 8.04489C7.98853 8.04024 7.9902 8.03572 7.9923 8.03139L7.9508 8.01414C7.94905 8.01864 7.9463 8.02239 7.9448 8.02689L7.84205 8.26564C7.83993 8.27163 7.83726 8.27741 7.83405 8.28289C7.68653 8.50636 7.53945 8.7301 7.3928 8.95414C7.39094 8.95763 7.38829 8.96063 7.38505 8.96289L7.39005 8.95214L7.75155 8.23539C7.75471 8.22891 7.75857 8.22279 7.76305 8.21714L7.91755 8.00989C7.9208 8.00639 7.9228 8.00314 7.9258 7.99939C7.91305 7.99014 7.9028 7.98164 7.89005 7.97189C7.88721 7.97506 7.88471 7.97814 7.88255 7.98114C7.82855 8.04914 7.77521 8.11697 7.72255 8.18464C7.71688 8.19097 7.7108 8.19714 7.7043 8.20314C7.5073 8.37939 7.3103 8.55464 7.11255 8.73114C7.10871 8.73464 7.10438 8.73764 7.09955 8.74014L7.10455 8.73339C7.26655 8.55222 7.42813 8.37106 7.5893 8.18989C7.59863 8.17989 7.60771 8.16964 7.61655 8.15914C7.63505 8.13781 7.65563 8.11864 7.6783 8.10164L7.8578 7.96039C7.8618 7.95739 7.8648 7.95414 7.8693 7.95114L7.8418 7.91589L7.8308 7.92364L7.6243 8.07789C7.61643 8.08344 7.60825 8.08853 7.5998 8.09314C7.36505 8.21164 7.12905 8.33014 6.8938 8.44864C6.8893 8.45064 6.88505 8.45314 6.8798 8.45314L6.8893 8.44639L7.3283 8.15889C7.40496 8.10872 7.48138 8.05839 7.55755 8.00789L7.57655 7.99789C7.65638 7.96406 7.7358 7.93014 7.8148 7.89614C7.81846 7.89481 7.82246 7.89306 7.8268 7.89089L7.81005 7.84964C7.8053 7.85089 7.8023 7.85214 7.79855 7.85339C7.71755 7.88564 7.6373 7.91839 7.5558 7.95039C7.53905 7.95664 7.5208 7.95964 7.50305 7.96339L6.9568 8.07689C6.88805 8.09164 6.81805 8.10614 6.74905 8.12039C6.74626 8.12101 6.74335 8.12065 6.7408 8.11939C6.7598 8.11322 6.77871 8.10689 6.79755 8.10039C7.03355 8.02272 7.26921 7.94489 7.50455 7.86689C7.52305 7.86064 7.5428 7.85889 7.56155 7.85589L7.78855 7.82364L7.8023 7.82064L7.7973 7.77664L7.7608 7.78064L7.6098 7.79889L7.5258 7.80914C7.51913 7.80997 7.51255 7.81022 7.50605 7.80989L7.34705 7.80064L7.25305 7.79539L7.09105 7.78589L6.8548 7.77289C6.7978 7.76989 6.7423 7.76614 6.68555 7.76214C6.69455 7.76139 6.70455 7.75989 6.7143 7.75989L6.90805 7.74889L7.16405 7.73439L7.37605 7.72239L7.50905 7.71439C7.51471 7.71439 7.5203 7.71472 7.5258 7.71539L7.6783 7.73364L7.7863 7.74664H7.7973C7.79855 7.73239 7.8008 7.71889 7.8023 7.70339C7.79305 7.70139 7.78255 7.69989 7.7733 7.69814C7.70663 7.68881 7.64005 7.67922 7.57355 7.66939L7.53205 7.66389C7.5244 7.66284 7.51687 7.66108 7.50955 7.65864C7.3108 7.59339 7.1133 7.52764 6.9148 7.46239L6.7493 7.40739C6.7446 7.40597 6.74013 7.40386 6.73605 7.40114L6.7708 7.40814L7.19505 7.49639C7.30855 7.52014 7.4238 7.54364 7.5373 7.56764L7.5573 7.57389C7.6373 7.60539 7.71655 7.63789 7.7973 7.66989L7.8093 7.67464C7.8148 7.66114 7.82063 7.64739 7.8268 7.63339C7.8227 7.63101 7.81844 7.62892 7.81405 7.62714C7.73455 7.59347 7.65521 7.55947 7.57605 7.52514L7.55805 7.51589C7.3338 7.36914 7.11055 7.22164 6.88605 7.07464C6.88304 7.07306 6.88066 7.0705 6.8793 7.06739L6.8883 7.07239C7.1118 7.18489 7.33555 7.29731 7.55955 7.40964C7.59655 7.42814 7.63255 7.45039 7.66555 7.47564C7.72005 7.51789 7.77555 7.55839 7.83105 7.59989L7.84205 7.60764L7.86955 7.57289L7.8598 7.56439L7.65655 7.40464C7.64988 7.39914 7.64371 7.39339 7.63805 7.38739C7.46088 7.18906 7.28396 6.99072 7.1073 6.79239C7.1049 6.7902 7.10294 6.78757 7.10155 6.78464C7.1068 6.78514 7.1088 6.78864 7.11105 6.79089C7.21805 6.88589 7.32471 6.98089 7.43105 7.07589L7.70655 7.32139C7.71155 7.32622 7.7163 7.33122 7.7208 7.33639L7.87855 7.53689C7.88255 7.54139 7.88555 7.54614 7.89005 7.55214L7.9263 7.52439C7.92405 7.52089 7.92105 7.51814 7.9193 7.51489C7.86796 7.44606 7.81638 7.37731 7.76455 7.30864C7.75915 7.3006 7.75423 7.29225 7.7498 7.28364C7.62996 7.04697 7.51055 6.81031 7.39155 6.57364C7.3893 6.56914 7.38705 6.56564 7.38655 6.56089L7.39255 6.56789L7.64805 6.95839L7.8288 7.23339C7.83505 7.24389 7.84205 7.25489 7.84605 7.26639C7.87955 7.34339 7.91255 7.42047 7.94505 7.49764C7.94705 7.50097 7.94905 7.50489 7.95105 7.50939L7.99255 7.49214L7.98805 7.48164C7.95705 7.40364 7.92588 7.32581 7.89455 7.24814C7.8858 7.22839 7.88255 7.20789 7.8783 7.18739C7.85105 7.05714 7.8248 6.92664 7.79755 6.79614C7.7708 6.67064 7.7453 6.54614 7.71905 6.42014C7.71871 6.41964 7.71905 6.41822 7.72005 6.41589L7.74205 6.48264C7.82055 6.71847 7.8983 6.95456 7.9753 7.19089C7.9818 7.20939 7.98405 7.22964 7.9868 7.24889C7.9958 7.31456 8.00546 7.38039 8.0158 7.44639C8.01755 7.45889 8.0183 7.47139 8.0208 7.48514L8.0643 7.47964V7.46314L8.0453 7.30639C8.04155 7.27589 8.0388 7.24614 8.03455 7.21639C8.03212 7.19638 8.03212 7.17615 8.03455 7.15614L8.0403 7.05464L8.05255 6.85089C8.0548 6.81439 8.05555 6.77739 8.0578 6.74089C8.06096 6.69322 8.0638 6.64539 8.0663 6.59739C8.06846 6.56239 8.0703 6.52739 8.0718 6.49239C8.07396 6.45122 8.07688 6.41014 8.08055 6.36914C8.08138 6.38031 8.08205 6.39189 8.08255 6.40389C8.08588 6.45406 8.08888 6.50439 8.09155 6.55489L8.10455 6.78389L8.1123 6.91239L8.12405 7.13539L8.12655 7.16814C8.1298 7.19714 8.12405 7.22589 8.12155 7.25464L8.10555 7.38564C8.10305 7.41039 8.0993 7.43514 8.0963 7.46014C8.0958 7.46614 8.0958 7.47264 8.09405 7.47989C8.10955 7.48214 8.12355 7.48364 8.13905 7.48564C8.1413 7.47489 8.1423 7.46489 8.14405 7.45439C8.15605 7.37322 8.16771 7.29181 8.17905 7.21014C8.18005 7.20414 8.18255 7.19789 8.18405 7.19164C8.26555 6.94714 8.34555 6.70239 8.42655 6.45739C8.43055 6.44614 8.43355 6.43539 8.4398 6.42464L8.43705 6.44164C8.40055 6.61864 8.36255 6.79514 8.3263 6.97164C8.30996 7.05447 8.29305 7.13731 8.27555 7.22014C8.27431 7.22699 8.27212 7.23364 8.26905 7.23989L8.17255 7.48114C8.17088 7.48447 8.1693 7.48839 8.1678 7.49289C8.1828 7.49864 8.19505 7.50439 8.20955 7.51014L8.2153 7.49814L8.31605 7.26139C8.32005 7.25339 8.32305 7.24564 8.3283 7.23914L8.76455 6.57364C8.7673 6.57014 8.76955 6.56664 8.7738 6.56414C8.7723 6.56764 8.77055 6.57114 8.76855 6.57464L8.4098 7.28714C8.40613 7.29397 8.40213 7.30047 8.3978 7.30664L8.2423 7.51389L8.23405 7.52514L8.26955 7.55289L8.2773 7.54339C8.33013 7.47589 8.3833 7.40831 8.4368 7.34064C8.44269 7.33302 8.4493 7.32599 8.45655 7.31964C8.65405 7.14314 8.85171 6.96689 9.04955 6.79089C9.0528 6.78814 9.05505 6.78539 9.0603 6.78389L9.0538 6.79189C8.9733 6.88306 8.89213 6.97397 8.8103 7.06464C8.71313 7.17331 8.6163 7.28197 8.5198 7.39064C8.51446 7.39614 8.50905 7.40106 8.50355 7.40539L8.3003 7.56514L8.2903 7.57314C8.2998 7.58514 8.3083 7.59664 8.3183 7.60864L8.32905 7.60064L8.5373 7.44464L8.5538 7.43414C8.79346 7.31381 9.03246 7.19347 9.2708 7.07314C9.27446 7.07114 9.2783 7.07006 9.2823 7.06989C9.27163 7.07706 9.26088 7.08406 9.25005 7.09089L8.60205 7.51614C8.59621 7.51981 8.59021 7.52306 8.58405 7.52589C8.5043 7.56039 8.4238 7.59439 8.3448 7.62864L8.33205 7.63364C8.3388 7.64764 8.34355 7.66089 8.34955 7.67489L8.36105 7.67114C8.4413 7.63939 8.52105 7.60614 8.60205 7.57539C8.62205 7.56739 8.64405 7.56389 8.6658 7.55939L9.03405 7.48289C9.14855 7.45939 9.26205 7.43539 9.3768 7.41164C9.38696 7.40931 9.39738 7.40714 9.40805 7.40514C9.4108 7.40514 9.4133 7.40464 9.4173 7.40614L9.3823 7.41764C9.1383 7.49847 8.8943 7.57881 8.6503 7.65864C8.6318 7.66514 8.6113 7.66689 8.59205 7.66989L8.43005 7.69314L8.3718 7.70139L8.35755 7.70389C8.35905 7.71864 8.3613 7.73239 8.3623 7.74839L8.40005 7.74439L8.53505 7.72839C8.5688 7.72414 8.60405 7.71939 8.6393 7.71614C8.65505 7.71489 8.67105 7.71639 8.6873 7.71714C8.72155 7.71864 8.7558 7.72164 8.79155 7.72314L8.99355 7.73514L9.08455 7.74014L9.29055 7.75189C9.3393 7.75489 9.38955 7.75714 9.43805 7.76014C9.45008 7.76079 9.46209 7.76187 9.47405 7.76339L9.43755 7.76639L9.2863 7.77464L9.09905 7.78564L8.9578 7.79314C8.8928 7.79714 8.82655 7.80089 8.76105 7.80514C8.72505 7.80664 8.68805 7.81014 8.6518 7.81039C8.63105 7.81089 8.6093 7.80689 8.58905 7.80464L8.4558 7.78864L8.37055 7.77839H8.3623C8.36096 7.79272 8.35938 7.80739 8.35755 7.82239L8.62205 7.86064C8.64805 7.86389 8.6708 7.87414 8.6953 7.88189L9.4063 8.11664C9.41101 8.11731 9.41543 8.1193 9.41905 8.12239C9.41321 8.12139 9.4073 8.12056 9.4013 8.11989L8.7838 7.99114L8.6208 7.95714C8.61555 7.95564 8.60855 7.95364 8.6028 7.95089C8.52263 7.91906 8.44213 7.88689 8.3613 7.85439L8.35055 7.85064L8.3323 7.89139L8.34555 7.89764C8.42521 7.93147 8.50463 7.96547 8.5838 7.99964C8.58996 8.00231 8.5963 8.00581 8.6028 8.01014L9.2683 8.44614C9.27155 8.44864 9.2758 8.45164 9.27855 8.45639C9.27505 8.45472 9.2718 8.45297 9.2688 8.45114L8.92205 8.27714C8.80088 8.21581 8.67913 8.15447 8.5568 8.09314C8.54896 8.08936 8.54165 8.08457 8.53505 8.07889L8.32805 7.92439L8.3183 7.91739C8.3088 7.92889 8.3003 7.94014 8.2903 7.95214L8.2998 7.95964C8.3668 8.01314 8.43505 8.06664 8.5023 8.11989C8.50991 8.12542 8.51687 8.1318 8.52305 8.13889L9.0528 8.73164C9.05516 8.73448 9.05687 8.73781 9.0578 8.74139C9.05505 8.73839 9.0513 8.73639 9.04855 8.73414C8.84971 8.55664 8.65071 8.37931 8.45155 8.20214C8.44702 8.19814 8.44299 8.19361 8.43955 8.18864L8.27755 7.98214C8.27521 7.97897 8.27263 7.97581 8.2698 7.97264C8.2583 7.98214 8.24705 7.99064 8.23555 8.00064C8.23671 8.00381 8.23846 8.00689 8.2408 8.00989L8.39805 8.21939C8.40234 8.22562 8.40634 8.23205 8.41005 8.23864L8.7673 8.94889C8.76932 8.95206 8.7706 8.95565 8.77105 8.95939H8.7703V8.95739Z" fill="#010088"/>
<path fill-rule="evenodd" clip-rule="evenodd" d="M8.76758 8.95703L8.77358 8.96453C8.77233 8.96503 8.77233 8.96578 8.77083 8.96603C8.77033 8.96253 8.76858 8.96028 8.76808 8.95703H8.76758Z" fill="#010088"/>
</svg>
