<svg width="24" height="24" viewBox="0 0 24 24" fill="none" xmlns="http://www.w3.org/2000/svg">
<path d="M7.33464 11L6.66797 13.0667H8.0013L7.33464 11Z" fill="white"/>
<path d="M20.2018 2H9.53516V5.33333H12.2018V6.66667H3.53516C2.40182 6.66667 1.53516 7.53333 1.53516 8.66667V16C1.53516 17.1333 2.40182 18 3.53516 18H4.20182V21.4L8.40182 18H12.8685V13.3333H20.2018C21.3352 13.3333 22.2018 12.4667 22.2018 11.3333V4C22.2018 2.86667 21.3352 2 20.2018 2ZM8.73516 15.2667L8.40182 14.2H6.33516L5.93516 15.2667H4.33516L6.53516 9.33333H8.13516L10.3352 15.2667H8.73516ZM18.8685 10V11.3333C18.0018 11.3333 17.0685 11.0667 16.2685 10.6667C15.4685 11.0667 14.5352 11.2667 13.6018 11.3333L13.5352 10C14.0018 10 14.4685 9.93333 14.9352 9.8C14.3352 9.2 13.9352 8.46667 13.7352 7.66667H15.1352C15.3352 8.26667 15.7352 8.73333 16.2018 9.13333C16.9352 8.53333 17.4018 7.66667 17.4685 6.66667H13.4685V5.33333H15.4685V4H16.8018V5.33333H19.0018L19.0685 6C19.1352 7.4 18.6018 8.8 17.6018 9.8C18.0685 9.93333 18.4685 10 18.8685 10Z" fill="white"/>
</svg>
