<svg width="24" height="24" viewBox="0 0 24 24" fill="none" xmlns="http://www.w3.org/2000/svg">
<path d="M15.3333 2.66602H4.66659C4.31296 2.66602 3.97382 2.80649 3.72378 3.05654C3.47373 3.30659 3.33325 3.64573 3.33325 3.99935V19.9993C3.33325 20.353 3.47373 20.6921 3.72378 20.9422C3.97382 21.1922 4.31296 21.3327 4.66659 21.3327H15.3333C15.6869 21.3327 16.026 21.1922 16.2761 20.9422C16.5261 20.6921 16.6666 20.353 16.6666 19.9993V15.9993H10.4199C10.2431 15.9993 10.0735 15.9291 9.94851 15.8041C9.82349 15.6791 9.75325 15.5095 9.75325 15.3327C9.75325 15.1559 9.82349 14.9863 9.94851 14.8613C10.0735 14.7363 10.2431 14.666 10.4199 14.666H16.6666V3.99935C16.6666 3.64573 16.5261 3.30659 16.2761 3.05654C16.026 2.80649 15.6869 2.66602 15.3333 2.66602Z" fill="#FF2C2C"/>
<path d="M18.7734 11.5197C18.6459 11.4105 18.4818 11.3534 18.314 11.3599C18.1463 11.3664 17.9871 11.4359 17.8684 11.5546C17.7496 11.6734 17.6801 11.8325 17.6736 12.0003C17.6671 12.1681 17.7242 12.3321 17.8334 12.4597L20.0867 14.6663H16.6667V15.9997H20.0867L17.8334 18.3063C17.7636 18.3661 17.7069 18.4397 17.6669 18.5224C17.6269 18.6051 17.6044 18.6952 17.6009 18.787C17.5973 18.8788 17.6128 18.9703 17.6463 19.0559C17.6798 19.1414 17.7307 19.2191 17.7956 19.2841C17.8606 19.3491 17.9383 19.3999 18.0239 19.4334C18.1094 19.467 18.201 19.4824 18.2928 19.4789C18.3846 19.4753 18.4747 19.4528 18.5574 19.4128C18.6401 19.3728 18.7136 19.3161 18.7734 19.2463L22.6667 15.3797L18.7734 11.5197Z" fill="#FF2C2C"/>
</svg>
