<svg width="24" height="24" viewBox="0 0 24 24" fill="none" xmlns="http://www.w3.org/2000/svg">
<path d="M6.43041 2.41331C6.55649 2.26284 6.61854 2.06894 6.60325 1.87322C6.58796 1.67751 6.49654 1.49559 6.34863 1.36653C6.20071 1.23746 6.00809 1.17153 5.81211 1.1829C5.61613 1.19426 5.43242 1.28202 5.30041 1.42731L4.00841 2.90731C3.27579 3.74688 2.86165 4.81728 2.83841 5.93131L2.78141 8.65031C2.7773 8.84923 2.85237 9.04163 2.99012 9.18518C3.12787 9.32874 3.317 9.4117 3.51591 9.41581C3.71482 9.41993 3.90722 9.34485 4.05078 9.2071C4.19434 9.06936 4.2773 8.88023 4.28141 8.68131L4.33741 5.96331C4.35345 5.20104 4.63699 4.46867 5.13841 3.89431L6.43041 2.41331Z" fill="white"/>
<path fill-rule="evenodd" clip-rule="evenodd" d="M6.23597 7.7C6.30313 6.63014 6.77549 5.62608 7.5569 4.89224C8.3383 4.15839 9.37 3.74993 10.442 3.75H10.999V3C10.999 2.73478 11.1043 2.48043 11.2919 2.29289C11.4794 2.10536 11.7338 2 11.999 2C12.2642 2 12.5185 2.10536 12.7061 2.29289C12.8936 2.48043 12.999 2.73478 12.999 3V3.75H13.556C14.6279 3.74993 15.6596 4.15839 16.4411 4.89224C17.2225 5.62608 17.6948 6.63014 17.762 7.7L17.983 11.234C18.0684 12.5812 18.5207 13.8794 19.291 14.988C19.4503 15.2171 19.5477 15.4835 19.5736 15.7613C19.5995 16.0392 19.5531 16.319 19.4389 16.5736C19.3246 16.8281 19.1464 17.0488 18.9216 17.2142C18.6968 17.3795 18.433 17.4838 18.156 17.517L14.749 17.925V19C14.749 19.7293 14.4592 20.4288 13.9435 20.9445C13.4278 21.4603 12.7283 21.75 11.999 21.75C11.2696 21.75 10.5702 21.4603 10.0544 20.9445C9.5387 20.4288 9.24897 19.7293 9.24897 19V17.925L5.84197 17.516C5.56507 17.4827 5.30148 17.3784 5.07682 17.2131C4.85216 17.0478 4.67406 16.8273 4.55983 16.5729C4.44559 16.3184 4.39911 16.0388 4.42489 15.7611C4.45068 15.4834 4.54785 15.2171 4.70697 14.988C5.47722 13.8794 5.92954 12.5812 6.01497 11.234L6.23597 7.7ZM10.749 19C10.749 19.3315 10.8807 19.6495 11.1151 19.8839C11.3495 20.1183 11.6675 20.25 11.999 20.25C12.3305 20.25 12.6484 20.1183 12.8829 19.8839C13.1173 19.6495 13.249 19.3315 13.249 19V18.25H10.749V19Z" fill="white"/>
<path d="M17.6435 1.35471C17.4937 1.48548 17.402 1.6704 17.3885 1.8688C17.3749 2.0672 17.4408 2.26285 17.5715 2.41271L18.8635 3.89271C19.3648 4.46747 19.648 5.20022 19.6635 5.96271L19.7205 8.67971C19.7225 8.7782 19.744 8.87533 19.7835 8.96554C19.8231 9.05576 19.8801 9.1373 19.9511 9.2055C20.0222 9.27371 20.106 9.32724 20.1978 9.36305C20.2896 9.39886 20.3875 9.41625 20.486 9.41421C20.5845 9.41218 20.6816 9.39076 20.7718 9.35119C20.8621 9.31162 20.9436 9.25466 21.0118 9.18358C21.08 9.1125 21.1335 9.02868 21.1693 8.9369C21.2052 8.84513 21.2225 8.7472 21.2205 8.64871L21.1635 5.93071C21.1403 4.81668 20.7261 3.74628 19.9935 2.90671L18.7015 1.42671C18.5707 1.2769 18.3858 1.18516 18.1874 1.17165C17.989 1.15815 17.7934 1.224 17.6435 1.35471Z" fill="white"/>
</svg>
