<svg width="24" height="17" viewBox="0 0 24 17" fill="none" xmlns="http://www.w3.org/2000/svg">
<path d="M22.4 16.5H1.6C1.17565 16.5 0.768687 16.3314 0.468629 16.0314C0.168571 15.7313 0 15.3243 0 14.9L0 2.1C0 1.67565 0.168571 1.26869 0.468629 0.968629C0.768687 0.668571 1.17565 0.5 1.6 0.5L22.4 0.5C22.8243 0.5 23.2313 0.668571 23.5314 0.968629C23.8314 1.26869 24 1.67565 24 2.1V14.9C24 15.3243 23.8314 15.7313 23.5314 16.0314C23.2313 16.3314 22.8243 16.5 22.4 16.5ZM9.35467 7.38333C9.33637 7.38338 9.31834 7.38761 9.30193 7.3957C9.28552 7.40379 9.27118 7.41552 9.26 7.43C9.23374 7.45674 9.21871 7.49252 9.218 7.53C9.218 7.544 9.28333 7.74333 9.42333 8.152L9.726 9.036L9.86667 9.448C10.0244 9.91022 10.1069 10.156 10.114 10.1853C9.8037 10.5697 9.52312 10.9771 9.27467 11.404L9.24933 11.4507L9.248 11.4673C9.248 11.534 9.302 11.5887 9.36933 11.5887L9.38733 11.5873H9.38667H10.1987C10.2365 11.5868 10.2735 11.5768 10.3065 11.5583C10.3394 11.5398 10.3672 11.5133 10.3873 11.4813L10.388 11.4807L13.076 7.60133C13.0902 7.58277 13.098 7.56005 13.098 7.53667L13.0973 7.52667V7.52733C13.0966 7.48986 13.0816 7.45408 13.0553 7.42733C13.0442 7.41294 13.03 7.40126 13.0137 7.39318C12.9974 7.3851 12.9795 7.38082 12.9613 7.38067H12.1487C12.1108 7.38109 12.0736 7.39102 12.0405 7.40954C12.0074 7.42806 11.9795 7.45458 11.9593 7.48667L11.9587 7.48733L10.8387 9.13133L10.3753 7.55C10.3634 7.50181 10.3358 7.45898 10.2968 7.4283C10.2578 7.39762 10.2096 7.38086 10.16 7.38067L10.1427 7.38133H10.1433L9.35467 7.38333ZM18.6733 7.30933H18.656C18.1507 7.30933 17.6967 7.52867 17.3833 7.87667L17.382 7.878C17.0395 8.23258 16.8483 8.70638 16.8487 9.19933V9.21733V9.21667C16.8478 9.23667 16.8473 9.25844 16.8473 9.282C16.8473 9.64 16.9867 9.966 17.2133 10.208L17.2127 10.2073C17.3416 10.333 17.495 10.4306 17.6634 10.4942C17.8318 10.5578 18.0116 10.5858 18.1913 10.5767H18.188C18.4127 10.574 18.626 10.528 18.8207 10.4453L18.81 10.4493C19.0067 10.3753 19.1733 10.26 19.3047 10.1133L19.306 10.112C19.2993 10.1493 19.2918 10.1829 19.2833 10.2127L19.2847 10.206C19.2736 10.247 19.2664 10.289 19.2633 10.3313V10.3327C19.2633 10.4447 19.3091 10.5009 19.4007 10.5013H20.128C20.1564 10.5039 20.185 10.5007 20.2122 10.492C20.2393 10.4833 20.2645 10.4692 20.2861 10.4507C20.3077 10.4321 20.3254 10.4094 20.3381 10.3838C20.3508 10.3583 20.3582 10.3305 20.36 10.302V10.3013L20.792 7.55C20.796 7.52924 20.7953 7.50784 20.7899 7.4874C20.7844 7.46697 20.7745 7.44803 20.7607 7.432C20.7485 7.41571 20.7327 7.40243 20.7145 7.39319C20.6964 7.38394 20.6764 7.37897 20.656 7.37867H19.854C19.756 7.37867 19.694 7.49533 19.674 7.72667C19.5566 7.57615 19.4023 7.45855 19.226 7.38531C19.0497 7.31207 18.8575 7.28566 18.668 7.30867L18.6733 7.308V7.30933ZM6.698 7.30933H6.67933C6.17467 7.30933 5.72067 7.52867 5.40867 7.87667L5.40733 7.878C5.06488 8.23258 4.87364 8.70638 4.874 9.19933V9.21733V9.21667C4.86501 9.39789 4.89274 9.57906 4.95552 9.7493C5.0183 9.91954 5.11484 10.0753 5.23933 10.2073L5.23867 10.2067C5.47467 10.436 5.79733 10.5773 6.15333 10.5773L6.21733 10.576H6.214C6.43533 10.5727 6.64533 10.5267 6.83667 10.4447L6.826 10.4487C7.02533 10.3727 7.19467 10.258 7.33133 10.112L7.332 10.1113C7.30733 10.1767 7.292 10.2527 7.29 10.3313V10.3327C7.29044 10.4447 7.33622 10.5009 7.42733 10.5013H8.154C8.1824 10.5039 8.21103 10.5007 8.23818 10.492C8.26534 10.4833 8.29047 10.4692 8.3121 10.4507C8.33373 10.4321 8.35141 10.4094 8.36411 10.3838C8.3768 10.3583 8.38424 10.3305 8.386 10.302V10.3013L8.81867 7.55C8.8224 7.5294 8.82146 7.50822 8.81592 7.48803C8.81038 7.46784 8.80039 7.44915 8.78667 7.43333C8.77445 7.41704 8.75867 7.40376 8.74052 7.39452C8.72238 7.38527 8.70236 7.38031 8.682 7.38H7.88C7.782 7.38 7.72 7.49667 7.70067 7.728C7.58201 7.57873 7.42741 7.46202 7.25135 7.38879C7.07528 7.31557 6.88351 7.28823 6.694 7.30933L6.69933 7.30867L6.698 7.30933ZM21.7413 5.83333L21.7307 5.83267C21.6988 5.83255 21.6681 5.84443 21.6447 5.86592C21.6212 5.88741 21.6067 5.91695 21.604 5.94867L20.9187 10.3347C20.913 10.3558 20.913 10.378 20.9185 10.3991C20.924 10.4203 20.9348 10.4396 20.95 10.4553C20.9626 10.4703 20.9783 10.4822 20.9961 10.4904C21.0138 10.4986 21.0331 10.5028 21.0527 10.5027H21.7527L21.774 10.504C21.827 10.504 21.8779 10.4829 21.9154 10.4454C21.9529 10.4079 21.974 10.357 21.974 10.304V10.3027L22.658 5.99267L22.6587 5.978C22.6588 5.93996 22.6464 5.90295 22.6233 5.87267V5.87333C22.5988 5.84797 22.5653 5.83334 22.53 5.83267L22.52 5.83333H21.7413ZM13.9613 5.83333C13.9328 5.82979 13.9037 5.83226 13.8762 5.84059C13.8486 5.84891 13.8231 5.86291 13.8012 5.88168C13.7794 5.90045 13.7617 5.92357 13.7493 5.94957C13.7369 5.97558 13.7301 6.00388 13.7293 6.03267L13.0447 10.334C13.041 10.3544 13.0418 10.3755 13.0473 10.3955C13.0527 10.4156 13.0625 10.4342 13.076 10.45C13.0878 10.4666 13.1034 10.4801 13.1215 10.4894C13.1396 10.4987 13.1597 10.5034 13.18 10.5033H14.05C14.0891 10.5037 14.1272 10.4903 14.1574 10.4654C14.1876 10.4405 14.2081 10.4058 14.2153 10.3673V10.366L14.4053 9.14333C14.4079 9.11677 14.4158 9.09099 14.4285 9.06752C14.4412 9.04405 14.4585 9.02336 14.4793 9.00667C14.5251 8.97033 14.5802 8.94665 14.638 8.938H14.64C14.694 8.928 14.756 8.92267 14.8193 8.922C14.8753 8.922 14.9427 8.92556 15.02 8.93267C15.1045 8.94252 15.1896 8.94698 15.2747 8.946C15.7631 8.9468 16.2338 8.76268 16.592 8.43067L16.5907 8.432C16.7693 8.24256 16.9072 8.01854 16.996 7.77374C17.0847 7.52895 17.1224 7.26857 17.1067 7.00867V7.014C17.121 6.84212 17.0915 6.66941 17.021 6.51201C16.9505 6.35462 16.8412 6.21768 16.7033 6.114L16.7007 6.112C16.3825 5.91083 16.0099 5.81324 15.634 5.83267H15.638L13.9613 5.83333ZM1.97333 5.83333C1.94545 5.83034 1.91724 5.83325 1.89055 5.84187C1.86386 5.85048 1.83928 5.86462 1.81841 5.88336C1.79753 5.90209 1.78083 5.92501 1.76939 5.95061C1.75795 5.97622 1.75203 6.00395 1.752 6.032V6.03333L1.06667 10.3347C1.06295 10.3551 1.06384 10.3761 1.06926 10.3962C1.07468 10.4163 1.08449 10.4349 1.098 10.4507C1.10978 10.4673 1.12538 10.4808 1.14348 10.49C1.16158 10.4993 1.18166 10.5041 1.202 10.504H2.00467C2.03325 10.5075 2.06225 10.5051 2.08982 10.4967C2.11739 10.4884 2.14292 10.4744 2.16476 10.4557C2.18661 10.4369 2.20429 10.4138 2.21667 10.3878C2.22905 10.3618 2.23586 10.3335 2.23667 10.3047L2.42667 9.14533C2.42917 9.11882 2.43695 9.09307 2.44955 9.0696C2.46214 9.04613 2.47929 9.02542 2.5 9.00867C2.54574 8.97233 2.60089 8.94865 2.65867 8.94H2.66067C2.71967 8.92966 2.77943 8.92431 2.83933 8.924H2.84C2.896 8.924 2.96267 8.92756 3.04 8.93467C3.1243 8.9445 3.20914 8.94895 3.294 8.948C3.80267 8.948 4.26533 8.75267 4.612 8.43267L4.61067 8.434C4.78931 8.24456 4.92725 8.02054 5.016 7.77574C5.10474 7.53095 5.1424 7.27057 5.12667 7.01067V7.016C5.14101 6.84412 5.11154 6.67141 5.04101 6.51401C4.97047 6.35662 4.86117 6.21968 4.72333 6.116L4.72067 6.114C4.40395 5.91353 4.03305 5.81575 3.65867 5.834H3.66267L1.97333 5.83333ZM18.6293 9.72333L18.5973 9.724C18.427 9.72416 18.2621 9.66393 18.132 9.554L18.1333 9.55467C18.0736 9.49891 18.0258 9.43154 17.9931 9.35668C17.9603 9.28182 17.9431 9.20106 17.9427 9.11933L17.9433 9.08933V9.07133C17.9433 8.822 18.044 8.596 18.2073 8.432C18.368 8.26733 18.592 8.16533 18.84 8.16533H18.862H18.8607L18.8833 8.16467C19.0627 8.16467 19.226 8.23067 19.3513 8.33933L19.3507 8.33867C19.4125 8.39606 19.4618 8.46559 19.4955 8.5429C19.5292 8.62021 19.5466 8.70365 19.5467 8.788L19.546 8.82V8.81867V8.83467C19.546 9.08067 19.444 9.30333 19.2793 9.46133C19.1962 9.54423 19.0975 9.60992 18.9889 9.65464C18.8804 9.69937 18.7641 9.72226 18.6467 9.722H18.63L18.6293 9.72333ZM6.64333 9.72333L6.61 9.724C6.43533 9.724 6.27467 9.66 6.152 9.554L6.15267 9.55467C6.09404 9.49861 6.04739 9.43125 6.01554 9.35665C5.98369 9.28206 5.96729 9.20178 5.96733 9.12067L5.968 9.08933V9.07133C5.968 8.822 6.06867 8.596 6.232 8.432C6.39267 8.26733 6.616 8.16533 6.864 8.16533H6.88733H6.886L6.90867 8.16467C7.088 8.16467 7.25133 8.23067 7.37667 8.33933L7.376 8.33867C7.43761 8.39604 7.48674 8.46549 7.52035 8.54268C7.55396 8.61987 7.57131 8.70315 7.57133 8.78733L7.57067 8.82V8.81867V8.842C7.57067 9.088 7.46867 9.30933 7.304 9.46733C7.13329 9.63202 6.9052 9.72382 6.668 9.72333H6.64333ZM14.5813 8.01667L14.7607 6.88933C14.7621 6.87274 14.7668 6.85658 14.7745 6.8418C14.7821 6.82702 14.7927 6.81389 14.8054 6.80318C14.8182 6.79247 14.8329 6.78437 14.8488 6.77937C14.8647 6.77436 14.8814 6.77254 14.898 6.774H15.0873L15.128 6.77333C15.2436 6.77333 15.3571 6.78111 15.4687 6.79667L15.456 6.79533C15.5593 6.814 15.6493 6.86067 15.72 6.92733C15.7606 6.96515 15.7929 7.01099 15.8148 7.06194C15.8367 7.1129 15.8478 7.16786 15.8473 7.22333L15.8467 7.24867V7.24733C15.8608 7.35872 15.8471 7.47186 15.8069 7.57668C15.7666 7.68149 15.701 7.7747 15.616 7.848L15.6153 7.84867C15.4029 7.96987 15.1593 8.02554 14.9153 8.00867H14.9193L14.5827 8.01933L14.5813 8.01667ZM2.59533 8.01667L2.77467 6.88933C2.77609 6.87274 2.78078 6.85658 2.78846 6.8418C2.79613 6.82702 2.80665 6.81389 2.81941 6.80318C2.83217 6.79247 2.84691 6.78437 2.8628 6.77937C2.87869 6.77436 2.89541 6.77254 2.912 6.774H3.11133C3.32477 6.75853 3.53839 6.80139 3.72933 6.898L3.72267 6.89467C3.84889 6.976 3.89111 7.14622 3.84933 7.40533C3.84634 7.50195 3.82004 7.59642 3.77268 7.68069C3.72532 7.76496 3.65831 7.83654 3.57733 7.88933L3.57533 7.89067C3.2595 8.00762 2.92102 8.0505 2.586 8.016L2.59533 8.01667Z" fill="white"/>
</svg>
