<svg width="14" height="18" viewBox="0 0 14 18" fill="none" xmlns="http://www.w3.org/2000/svg">
<path d="M6.5 13.2096H7.5V7.55664H6.5V13.2096ZM7 5.97964C7.17467 5.97964 7.321 5.92064 7.439 5.80264C7.55633 5.68464 7.615 5.53864 7.615 5.36464C7.615 5.18997 7.556 5.04364 7.438 4.92564C7.32 4.80764 7.174 4.74897 7 4.74964C6.826 4.75031 6.68 4.80931 6.562 4.92664C6.444 5.04397 6.385 5.19031 6.385 5.36564C6.385 5.54097 6.444 5.68697 6.562 5.80364C6.68 5.92031 6.826 5.97897 7 5.97964ZM7 17.9416C4.99067 17.345 3.32167 16.128 1.993 14.2906C0.664333 12.4533 0 10.383 0 8.07964V2.67164L7 0.0566406L14 2.67164V8.07964C14 10.3823 13.3357 12.4523 12.007 14.2896C10.6783 16.127 9.00933 17.3436 7 17.9416Z" fill="white"/>
</svg>
