<svg width="24" height="24" viewBox="0 0 24 24" fill="none" xmlns="http://www.w3.org/2000/svg">
<path d="M18.5 17.8V15.5C18.5 15.3667 18.45 15.25 18.35 15.15C18.25 15.05 18.1333 15 18 15C17.8667 15 17.75 15.05 17.65 15.15C17.55 15.25 17.5 15.3667 17.5 15.5V17.775C17.5 17.9083 17.525 18.0377 17.575 18.163C17.625 18.2883 17.7 18.4007 17.8 18.5L19.3 20C19.4 20.1 19.5167 20.15 19.65 20.15C19.7833 20.15 19.9 20.1 20 20C20.1 19.9 20.15 19.7833 20.15 19.65C20.15 19.5167 20.1 19.4 20 19.3L18.5 17.8ZM13 6V9C13 9.28333 13.096 9.521 13.288 9.713C13.48 9.905 13.7173 10.0007 14 10H20V6H13ZM18 23C16.6167 23 15.4377 22.5123 14.463 21.537C13.4883 20.5617 13.0007 19.3827 13 18C12.9993 16.6173 13.487 15.4383 14.463 14.463C15.439 13.4877 16.618 13 18 13C19.382 13 20.5613 13.4877 21.538 14.463C22.5147 15.4383 23.002 16.6173 23 18C22.998 19.3827 22.5103 20.562 21.537 21.538C20.5637 22.514 19.3847 23.0013 18 23ZM4 20C3.45 20 2.97933 19.8043 2.588 19.413C2.19667 19.0217 2.00067 18.5507 2 18V6C2 5.45 2.196 4.97933 2.588 4.588C2.98 4.19667 3.45067 4.00067 4 4H20C20.55 4 21.021 4.196 21.413 4.588C21.805 4.98 22.0007 5.45067 22 6V10.9C22 11.2 21.871 11.425 21.613 11.575C21.355 11.725 21.084 11.7333 20.8 11.6C20.35 11.4 19.8873 11.25 19.412 11.15C18.9367 11.05 18.458 11 17.976 11C16.0427 11 14.397 11.6833 13.039 13.05C11.681 14.4167 11.0013 16.0667 11 18C11 18.15 11.0043 18.3 11.013 18.45C11.0217 18.6 11.034 18.7417 11.05 18.875C11.0833 19.175 11.0123 19.4377 10.837 19.663C10.6617 19.8883 10.4327 20.0007 10.15 20H4Z" fill="white"/>
</svg>
