<svg width="12" height="13" viewBox="0 0 12 13" fill="none" xmlns="http://www.w3.org/2000/svg">
<path d="M0.666667 12.5C0.477778 12.5 0.319556 12.436 0.192 12.308C0.0644445 12.18 0.000444444 12.0218 0 11.8333V10.2167C0 10.0389 0.0333334 9.86933 0.1 9.708C0.166667 9.54667 0.261111 9.40511 0.383333 9.28333L8.8 0.883333C8.93333 0.761111 9.08067 0.666667 9.242 0.6C9.40333 0.533333 9.57267 0.5 9.75 0.5C9.92733 0.5 10.0996 0.533333 10.2667 0.6C10.4338 0.666667 10.5782 0.766667 10.7 0.9L11.6167 1.83333C11.75 1.95556 11.8471 2.1 11.908 2.26667C11.9689 2.43333 11.9996 2.6 12 2.76667C12 2.94444 11.9693 3.114 11.908 3.27533C11.8467 3.43667 11.7496 3.58378 11.6167 3.71667L3.21667 12.1167C3.09444 12.2389 2.95267 12.3333 2.79133 12.4C2.63 12.4667 2.46067 12.5 2.28333 12.5H0.666667ZM9.73333 3.7L10.6667 2.76667L9.73333 1.83333L8.8 2.76667L9.73333 3.7Z" fill="#242424"/>
</svg>
