<svg width="24" height="24" viewBox="0 0 24 24" fill="none" xmlns="http://www.w3.org/2000/svg">
<path d="M12 13C14.2091 13 16 11.2091 16 9C16 6.79086 14.2091 5 12 5C9.79086 5 8 6.79086 8 9C8 11.2091 9.79086 13 12 13Z" fill="white"/>
<path d="M17 12C18.6569 12 20 10.6569 20 9C20 7.34315 18.6569 6 17 6C15.3431 6 14 7.34315 14 9C14 10.6569 15.3431 12 17 12Z" fill="white"/>
<path d="M7 12C8.65685 12 10 10.6569 10 9C10 7.34315 8.65685 6 7 6C5.34315 6 4 7.34315 4 9C4 10.6569 5.34315 12 7 12Z" fill="white"/>
<path fill-rule="evenodd" clip-rule="evenodd" d="M17.5684 18.0003H19.8944C20.4864 18.0003 20.9394 17.4903 20.7964 16.9163C20.4274 15.4463 19.4474 13.0003 16.9994 13.0003C16.1134 13.0003 15.4194 13.3203 14.8774 13.8003C16.3854 14.7773 17.1654 16.4903 17.5684 18.0003ZM9.12136 13.8003C8.54046 13.2752 7.78235 12.9894 6.99936 13.0003C4.55136 13.0003 3.57136 15.4463 3.20236 16.9163C3.05936 17.4903 3.51236 18.0003 4.10436 18.0003H6.43136C6.83436 16.4903 7.61336 14.7773 9.12136 13.8003Z" fill="white"/>
<path d="M12.0013 14C15.7103 14 16.6673 17.301 16.9153 19.006C16.9953 19.553 16.5533 20 16.0013 20H8.00131C7.44931 20 7.00831 19.553 7.08731 19.006C7.33531 17.301 8.29231 14 12.0013 14Z" fill="white"/>
</svg>
