<svg width="24" height="24" viewBox="0 0 24 24" fill="none" xmlns="http://www.w3.org/2000/svg">
<path d="M10.925 14.05L16.6 8.4L15.175 6.975L10.925 11.225L8.8 9.1L7.4 10.5L10.925 14.05ZM1 21V19H23V21H1ZM4 18C3.45 18 2.97933 17.8043 2.588 17.413C2.19667 17.0217 2.00067 16.5507 2 16V5C2 4.45 2.196 3.97933 2.588 3.588C2.98 3.19667 3.45067 3.00067 4 3H20C20.55 3 21.021 3.196 21.413 3.588C21.805 3.98 22.0007 4.45067 22 5V16C22 16.55 21.8043 17.021 21.413 17.413C21.0217 17.805 20.5507 18.0007 20 18H4Z" fill="white"/>
</svg>
