<svg width="18" height="20" viewBox="0 0 18 20" fill="none" xmlns="http://www.w3.org/2000/svg">
<path d="M17.0308 4.34102L9.18469 0.851787C9.12693 0.824628 9.0639 0.810547 9.00007 0.810547C8.93625 0.810547 8.87322 0.824628 8.81546 0.851787L0.969306 4.34102C0.888176 4.37641 0.818934 4.43439 0.769835 4.50804C0.720736 4.58169 0.69385 4.6679 0.692383 4.7564V7.23025C0.692383 11.7718 3.40623 17.2733 8.83392 19.1749C8.94167 19.2114 9.05848 19.2114 9.16623 19.1749C14.5939 17.2733 17.3078 11.7718 17.3078 7.23025V4.7564C17.3063 4.6679 17.2794 4.58169 17.2303 4.50804C17.1812 4.43439 17.112 4.37641 17.0308 4.34102ZM13.3275 7.3964L8.45361 13.6013C8.38277 13.6908 8.29388 13.7643 8.19272 13.8171C8.09157 13.8699 7.98043 13.9008 7.86654 13.9078L7.81854 13.9096C7.60392 13.9093 7.39817 13.824 7.24623 13.6724L4.73546 11.1616C4.58404 11.0098 4.49912 10.8041 4.49938 10.5897C4.49964 10.3753 4.58506 10.1698 4.73684 10.0184C4.88863 9.86698 5.09435 9.78206 5.30875 9.78232C5.52314 9.78258 5.72866 9.868 5.88007 10.0198L7.74654 11.8862L12.0573 6.39856C12.1921 6.23705 12.3845 6.13442 12.5937 6.11244C12.8028 6.09046 13.0124 6.15085 13.1778 6.28081C13.3432 6.41077 13.4514 6.60007 13.4795 6.80852C13.5076 7.01698 13.4534 7.22818 13.3284 7.39733L13.3275 7.3964Z" fill="white"/>
</svg>
