<svg width="20" height="17" viewBox="0 0 20 17" fill="none" xmlns="http://www.w3.org/2000/svg">
<path d="M9.75 11.5C9.96667 11.5 10.146 11.429 10.288 11.287C10.43 11.145 10.5007 10.966 10.5 10.75V9.5H13C13.2833 9.5 13.521 9.404 13.713 9.212C13.905 9.02 14.0007 8.78267 14 8.5V6.5C14 6.21667 13.904 5.97933 13.712 5.788C13.52 5.59667 13.2827 5.50067 13 5.5H10C9.71667 5.5 9.47933 5.596 9.288 5.788C9.09667 5.98 9.00067 6.21733 9 6.5V10.75C9 10.9667 9.071 11.146 9.213 11.288C9.355 11.43 9.534 11.5007 9.75 11.5ZM15.75 11.5C15.9667 11.5 16.146 11.429 16.288 11.287C16.43 11.145 16.5007 10.966 16.5 10.75V6.25C16.5 6.03333 16.429 5.85433 16.287 5.713C16.145 5.57167 15.966 5.50067 15.75 5.5C15.534 5.49933 15.355 5.57033 15.213 5.713C15.071 5.85567 15 6.03467 15 6.25V10.75C15 10.9667 15.071 11.146 15.213 11.288C15.355 11.43 15.534 11.5007 15.75 11.5ZM10.5 8V7H12.5V8H10.5ZM4 11.5H7C7.28333 11.5 7.521 11.404 7.713 11.212C7.905 11.02 8.00067 10.7827 8 10.5V6.25C8 6.03333 7.929 5.85433 7.787 5.713C7.645 5.57167 7.466 5.50067 7.25 5.5C7.034 5.49933 6.855 5.57033 6.713 5.713C6.571 5.85567 6.5 6.03467 6.5 6.25V10H4.5V6.25C4.5 6.03333 4.429 5.85433 4.287 5.713C4.145 5.57167 3.966 5.50067 3.75 5.5C3.534 5.49933 3.355 5.57033 3.213 5.713C3.071 5.85567 3 6.03467 3 6.25V10.5C3 10.7833 3.096 11.021 3.288 11.213C3.48 11.405 3.71733 11.5007 4 11.5ZM2 16.5C1.45 16.5 0.979333 16.3043 0.588 15.913C0.196667 15.5217 0.000666667 15.0507 0 14.5V2.5C0 1.95 0.196 1.47933 0.588 1.088C0.98 0.696666 1.45067 0.500667 2 0.5H18C18.55 0.5 19.021 0.696 19.413 1.088C19.805 1.48 20.0007 1.95067 20 2.5V14.5C20 15.05 19.8043 15.521 19.413 15.913C19.0217 16.305 18.5507 16.5007 18 16.5H2Z" fill="white"/>
</svg>
