<svg width="18" height="16" viewBox="0 0 18 16" fill="none" xmlns="http://www.w3.org/2000/svg">
<path d="M8.27437 0.542188L0.361868 14.2484C0.0431179 14.8047 0.443118 15.5047 1.08687 15.5047H16.9119C17.5556 15.5047 17.9556 14.8109 17.6369 14.2484L9.72437 0.542188C9.39937 -0.0140625 8.59937 -0.0140625 8.27437 0.542188Z" fill="#EED202"/>
<path d="M8.12402 10.4363C8.12485 10.6684 8.21783 10.8906 8.38251 11.0541C8.46406 11.1351 8.56075 11.1992 8.66706 11.2428C8.77338 11.2864 8.88724 11.3086 9.00215 11.3082C9.11705 11.3078 9.23076 11.2848 9.33676 11.2404C9.44276 11.196 9.53899 11.1313 9.61995 11.0497C9.70091 10.9682 9.76502 10.8715 9.80861 10.7652C9.85221 10.6588 9.87443 10.545 9.87402 10.4301V4.70508C9.87402 4.22383 9.48652 3.83008 8.99902 3.83008C8.51777 3.83008 8.12402 4.21758 8.12402 4.70508V10.4363ZM9.87402 12.9238C9.87402 13.1559 9.78184 13.3785 9.61774 13.5425C9.45365 13.7066 9.23109 13.7988 8.99902 13.7988C8.76696 13.7988 8.5444 13.7066 8.3803 13.5425C8.21621 13.3785 8.12402 13.1559 8.12402 12.9238C8.12402 12.6918 8.21621 12.4692 8.3803 12.3051C8.5444 12.141 8.76696 12.0488 8.99902 12.0488C9.23109 12.0488 9.45365 12.141 9.61774 12.3051C9.78184 12.4692 9.87402 12.6918 9.87402 12.9238Z" fill="black"/>
</svg>
