<svg width="24" height="24" viewBox="0 0 24 24" fill="none" xmlns="http://www.w3.org/2000/svg">
<path d="M4 20C3.45 20 2.97933 19.8043 2.588 19.413C2.19667 19.0217 2.00067 18.5507 2 18V6C2 5.45 2.196 4.97933 2.588 4.588C2.98 4.19667 3.45067 4.00067 4 4H20C20.55 4 21.021 4.196 21.413 4.588C21.805 4.98 22.0007 5.45067 22 6V6.35C21.7667 6.23333 21.525 6.146 21.275 6.088C21.025 6.03 20.7667 6.00067 20.5 6H15.5C14.5333 6 13.7083 6.34167 13.025 7.025C12.3417 7.70833 12 8.53333 12 9.5V10H7.75C7.51667 10 7.31267 10.0667 7.138 10.2C6.96333 10.3333 6.84233 10.5083 6.775 10.725L6.225 12.725C5.84167 13.1583 5.54167 13.6543 5.325 14.213C5.10833 14.7717 5 15.3673 5 16C5 16.6327 5.10833 17.2287 5.325 17.788C5.54167 18.3473 5.84167 18.843 6.225 19.275L6.425 20H4ZM15.5 20C15.0833 20 14.7293 19.8543 14.438 19.563C14.1467 19.2717 14.0007 18.9173 14 18.5V9.5C14 9.08333 14.146 8.72933 14.438 8.438C14.73 8.14667 15.084 8.00067 15.5 8H20.5C20.9167 8 21.271 8.146 21.563 8.438C21.855 8.73 22.0007 9.084 22 9.5V18.5C22 18.9167 21.8543 19.271 21.563 19.563C21.2717 19.855 20.9173 20.0007 20.5 20H15.5ZM8.3 19.275L8 18.25C7.68333 17.9667 7.43767 17.6333 7.263 17.25C7.08833 16.8667 7.00067 16.45 7 16C6.99933 15.55 7.087 15.1333 7.263 14.75C7.439 14.3667 7.68467 14.0333 8 13.75L8.3 12.725C8.36667 12.5083 8.48333 12.3333 8.65 12.2C8.81667 12.0667 9.01667 12 9.25 12H10.75C10.9833 12 11.1833 12.0667 11.35 12.2C11.5167 12.3333 11.6333 12.5083 11.7 12.725L12 13.75C12.3167 14.0333 12.5627 14.3667 12.738 14.75C12.9133 15.1333 13.0007 15.55 13 16C12.9993 16.45 12.912 16.8667 12.738 17.25C12.564 17.6333 12.318 17.9667 12 18.25L11.7 19.275C11.6333 19.4917 11.5167 19.6667 11.35 19.8C11.1833 19.9333 10.9833 20 10.75 20H9.25C9.01667 20 8.81667 19.9333 8.65 19.8C8.48333 19.6667 8.36667 19.4917 8.3 19.275ZM10 17.5C10.4333 17.5 10.7917 17.3543 11.075 17.063C11.3583 16.7717 11.5 16.4173 11.5 16C11.5 15.5827 11.35 15.2287 11.05 14.938C10.75 14.6473 10.4 14.5013 10 14.5C9.6 14.4987 9.25 14.6403 8.95 14.925C8.65 15.2097 8.5 15.568 8.5 16C8.5 16.432 8.64167 16.7903 8.925 17.075C9.20833 17.3597 9.56667 17.5013 10 17.5ZM18 12.5C18.2167 12.5 18.396 12.425 18.538 12.275C18.68 12.125 18.7507 11.95 18.75 11.75C18.75 11.5333 18.679 11.3543 18.537 11.213C18.395 11.0717 18.216 11.0007 18 11C17.8 11 17.625 11.071 17.475 11.213C17.325 11.355 17.25 11.534 17.25 11.75C17.25 11.95 17.325 12.125 17.475 12.275C17.625 12.425 17.8 12.5 18 12.5Z" fill="white"/>
</svg>
