<svg width="24" height="28" viewBox="0 0 24 28" fill="none" xmlns="http://www.w3.org/2000/svg">
<path d="M3.42857 2.1875C1.5375 2.1875 0 3.70098 0 5.5625V22.4375C0 24.299 1.5375 25.8125 3.42857 25.8125H20.5714C22.4625 25.8125 24 24.299 24 22.4375V5.5625C24 3.70098 22.4625 2.1875 20.5714 2.1875H3.42857ZM19.3446 6.61719L13.7839 12.8715L20.325 21.3828H15.2036L11.1964 16.2201L6.60536 21.3828H4.06071L10.0071 14.6908L3.73393 6.61719H8.98393L12.6107 11.3369L16.8 6.61719H19.3446ZM17.3196 19.8852L8.21786 8.03574H6.70179L15.9054 19.8852H17.3143H17.3196Z" fill="white"/>
</svg>
