<svg width="25" height="24" viewBox="0 0 25 24" fill="none" xmlns="http://www.w3.org/2000/svg">
<path d="M15.1855 11.5133L6.88379 10.0508V20.8575C6.88369 20.975 6.90678 21.0913 6.95173 21.1998C6.99667 21.3083 7.0626 21.4069 7.14573 21.4899C7.22885 21.5729 7.32754 21.6387 7.43613 21.6834C7.54472 21.7282 7.66108 21.7511 7.77854 21.7508H22.1035C22.2211 21.7513 22.3376 21.7285 22.4464 21.6839C22.5552 21.6392 22.654 21.5734 22.7373 21.4904C22.8206 21.4074 22.8867 21.3088 22.9317 21.2002C22.9768 21.0916 22.9999 20.9751 22.9998 20.8575V16.8758L15.1855 11.5133Z" fill="#185C37"/>
<path d="M15.1855 2.25H7.77854C7.66108 2.24971 7.54472 2.2726 7.43613 2.31736C7.32754 2.36213 7.22885 2.42789 7.14573 2.51088C7.0626 2.59386 6.99667 2.69244 6.95173 2.80096C6.90678 2.90947 6.88369 3.0258 6.88379 3.14325V7.125L15.1855 12L19.5813 13.4625L22.9998 12V7.125L15.1855 2.25Z" fill="#21A366"/>
<path d="M6.88379 7.125H15.1855V12H6.88379V7.125Z" fill="#107C41"/>
<path opacity="0.1" d="M12.8253 6.15039H6.88379V18.3379H12.8253C13.062 18.3367 13.2888 18.2423 13.4564 18.0751C13.624 17.9079 13.719 17.6814 13.7208 17.4446V7.04364C13.719 6.80689 13.624 6.58038 13.4564 6.41318C13.2888 6.24598 13.062 6.15157 12.8253 6.15039Z" fill="black"/>
<path opacity="0.2" d="M12.337 6.63672H6.88379V18.8242H12.337C12.5738 18.823 12.8005 18.7286 12.9682 18.5614C13.1358 18.3942 13.2308 18.1677 13.2325 17.931V7.52997C13.2308 7.29322 13.1358 7.06671 12.9682 6.89951C12.8005 6.73231 12.5738 6.6379 12.337 6.63672Z" fill="black"/>
<path opacity="0.2" d="M12.337 6.63672H6.88379V17.8492H12.337C12.5738 17.848 12.8005 17.7536 12.9682 17.5864C13.1358 17.4192 13.2308 17.1927 13.2325 16.956V7.52997C13.2308 7.29322 13.1358 7.06671 12.9682 6.89951C12.8005 6.73231 12.5738 6.6379 12.337 6.63672Z" fill="black"/>
<path opacity="0.2" d="M11.8488 6.63672H6.88379V17.8492H11.8488C12.0855 17.848 12.3123 17.7536 12.4799 17.5864C12.6475 17.4192 12.7425 17.1927 12.7443 16.956V7.52997C12.7425 7.29322 12.6475 7.06671 12.4799 6.89951C12.3123 6.73231 12.0855 6.6379 11.8488 6.63672Z" fill="black"/>
<path d="M2.8955 6.63672H11.849C12.0862 6.63652 12.3137 6.7305 12.4816 6.89799C12.6496 7.06549 12.7441 7.2928 12.7445 7.52997V16.4685C12.7441 16.7056 12.6496 16.933 12.4816 17.1005C12.3137 17.2679 12.0862 17.3619 11.849 17.3617H2.8955C2.77798 17.3621 2.66154 17.3393 2.55286 17.2946C2.44418 17.2499 2.34541 17.1841 2.2622 17.1011C2.179 17.0181 2.113 16.9195 2.06801 16.8109C2.02301 16.7024 1.9999 16.586 2 16.4685V7.52997C1.9999 7.41245 2.02301 7.29607 2.06801 7.1875C2.113 7.07894 2.179 6.98033 2.2622 6.89733C2.34541 6.81434 2.44418 6.74859 2.55286 6.70387C2.66154 6.65915 2.77798 6.63633 2.8955 6.63672Z" fill="url(#paint0_linear_1569_18982)"/>
<path d="M4.77539 14.9052L6.65864 11.9922L4.93364 9.0957H6.31889L7.26014 10.9505C7.34714 11.126 7.41014 11.2565 7.43864 11.3435H7.45139C7.51289 11.203 7.57789 11.0665 7.64639 10.934L8.65289 9.0987H9.92789L8.15864 11.9787L9.97289 14.9075H8.61614L7.52864 12.8742C7.47829 12.7867 7.43539 12.6951 7.40039 12.6005H7.38239C7.35061 12.6927 7.30833 12.7811 7.25639 12.8637L6.13664 14.9052H4.77539Z" fill="white"/>
<path d="M22.1043 2.25001H15.1855V7.12501H22.9998V3.14326C22.9999 3.02573 22.9768 2.90935 22.9318 2.80079C22.8868 2.69222 22.8208 2.59361 22.7376 2.51061C22.6544 2.42762 22.5556 2.36187 22.4469 2.31715C22.3383 2.27243 22.2218 2.24961 22.1043 2.25001Z" fill="#33C481"/>
<path d="M15.1855 12H22.9998V16.875H15.1855V12Z" fill="#107C41"/>
<defs>
<linearGradient id="paint0_linear_1569_18982" x1="3.8705" y1="5.93472" x2="10.874" y2="18.0637" gradientUnits="userSpaceOnUse">
<stop stop-color="#18884F"/>
<stop offset="0.5" stop-color="#117E43"/>
<stop offset="1" stop-color="#0B6631"/>
</linearGradient>
</defs>
</svg>
